<?xml version="1.0" encoding="UTF-8" standalone="no"?>
<!-- Created with Inkscape (http://www.inkscape.org/) -->

<svg
   xmlns:dc="http://purl.org/dc/elements/1.1/"
   xmlns:cc="http://creativecommons.org/ns#"
   xmlns:rdf="http://www.w3.org/1999/02/22-rdf-syntax-ns#"
   xmlns:svg="http://www.w3.org/2000/svg"
   xmlns="http://www.w3.org/2000/svg"
   xmlns:sodipodi="http://sodipodi.sourceforge.net/DTD/sodipodi-0.dtd"
   xmlns:inkscape="http://www.inkscape.org/namespaces/inkscape"
   width="348.22379"
   height="200.34937"
   id="svg5512"
   version="1.1"
   inkscape:version="0.48.3.1 r9886"
   sodipodi:docname="chart.svg">
  <defs
     id="defs5514">
    <clipPath
       clipPathUnits="userSpaceOnUse"
       id="clipPath698">
      <path
         inkscape:connector-curvature="0"
         d="M 0,800 800,800 800,0 0,0 0,800 z"
         id="path700" />
    </clipPath>
    <clipPath
       clipPathUnits="userSpaceOnUse"
       id="clipPath802">
      <path
         inkscape:connector-curvature="0"
         d="M 0,800 800,800 800,0 0,0 0,800 z"
         id="path804" />
    </clipPath>
    <clipPath
       clipPathUnits="userSpaceOnUse"
       id="clipPath1064">
      <path
         inkscape:connector-curvature="0"
         d="M 0,800 800,800 800,0 0,0 0,800 z"
         id="path1066" />
    </clipPath>
    <clipPath
       clipPathUnits="userSpaceOnUse"
       id="clipPath1064-0">
      <path
         inkscape:connector-curvature="0"
         d="M 0,800 800,800 800,0 0,0 0,800 z"
         id="path1066-4" />
    </clipPath>
  </defs>
  <sodipodi:namedview
     id="base"
     pagecolor="#ffffff"
     bordercolor="#666666"
     borderopacity="1.0"
     inkscape:pageopacity="0.0"
     inkscape:pageshadow="2"
     inkscape:zoom="2.3004858"
     inkscape:cx="65.238394"
     inkscape:cy="12.009058"
     inkscape:document-units="px"
     inkscape:current-layer="layer1"
     showgrid="false"
     inkscape:window-width="1440"
     inkscape:window-height="850"
     inkscape:window-x="0"
     inkscape:window-y="22"
     inkscape:window-maximized="1"
     fit-margin-top="0"
     fit-margin-left="0"
     fit-margin-right="0"
     fit-margin-bottom="0" />
  <metadata
     id="metadata5517">
    <rdf:RDF>
      <cc:Work
         rdf:about="">
        <dc:format>image/svg+xml</dc:format>
        <dc:type
           rdf:resource="http://purl.org/dc/dcmitype/StillImage" />
        <dc:title />
      </cc:Work>
    </rdf:RDF>
  </metadata>
  <g
     inkscape:label="Capa 1"
     inkscape:groupmode="layer"
     id="layer1"
     transform="translate(-142.49109,-115.12441)">
    <g
       id="g6815" />
    <path
       inkscape:connector-curvature="0"
       id="path704"
       style="fill:#56997d;fill-opacity:1;fill-rule:nonzero;stroke:none"
       d="m 273.55435,251.33253 -68.52092,-46.01843 -38.93761,-33.03089 2.49772,-3.02306 38.8539,32.95989 66.86421,44.88651 66.835,-15.58466 74.31845,-15.7444 73.44822,-31.47695 1.51655,3.63241 -73.9836,31.6643 -74.46445,15.77594 -68.42747,15.95934 z" />
    <path
       inkscape:connector-curvature="0"
       id="path708"
       style="fill:#56997d;fill-opacity:1;fill-rule:nonzero;stroke:none"
       d="m 210.33899,203.8641 c 0,2.39597 -1.91758,4.33839 -4.28293,4.33839 -2.36534,0 -4.28292,-1.94242 -4.28292,-4.33839 0,-2.39597 1.91758,-4.33838 4.28292,-4.33838 2.36535,0 4.28293,1.94241 4.28293,4.33838" />
    <path
       inkscape:connector-curvature="0"
       id="path712"
       style="fill:#56997d;fill-opacity:1;fill-rule:nonzero;stroke:none"
       d="m 277.6095,249.21994 c 0,2.39597 -1.91758,4.33839 -4.28292,4.33839 -2.36535,0 -4.28293,-1.94242 -4.28293,-4.33839 0,-2.39597 1.91758,-4.33838 4.28293,-4.33838 2.36534,0 4.28292,1.94241 4.28292,4.33838" />
    <path
       inkscape:connector-curvature="0"
       id="path716"
       style="fill:#56997d;fill-opacity:1;fill-rule:nonzero;stroke:none"
       d="m 345.8059,233.444 c 0,2.39597 -1.91758,4.33838 -4.28292,4.33838 -2.36535,0 -4.28293,-1.94241 -4.28293,-4.33838 0,-2.39597 1.91758,-4.33839 4.28293,-4.33839 2.36534,0 4.28292,1.94242 4.28292,4.33839" />
    <path
       inkscape:connector-curvature="0"
       id="path720"
       style="fill:#f1c40f;fill-opacity:1;fill-rule:nonzero;stroke:none"
       d="m 489.26881,251.14953 -73.96218,-15.84891 -0.29397,-0.18734 -73.98943,-47.02612 -67.69743,0 -0.50033,-0.34707 -66.77076,-46.71454 -37.95253,16.2788 -1.51655,-3.63241 39.92268,-17.12085 68.03033,47.59209 67.60594,0 0.47306,0.30368 74.17244,47.1405 73.2847,15.70298 -0.80597,3.85919 z" />
    <path
       inkscape:connector-curvature="0"
       id="path724"
       style="fill:#f1c40f;fill-opacity:1;fill-rule:nonzero;stroke:none"
       d="m 210.33899,139.05415 c 0,2.39597 -1.91758,4.33839 -4.28293,4.33839 -2.36534,0 -4.28292,-1.94242 -4.28292,-4.33839 0,-2.39597 1.91758,-4.33838 4.28292,-4.33838 2.36535,0 4.28293,1.94241 4.28293,4.33838" />
    <path
       inkscape:connector-curvature="0"
       id="path728"
       style="fill:#f1c40f;fill-opacity:1;fill-rule:nonzero;stroke:none"
       d="m 277.6095,186.11616 c 0,2.39597 -1.91758,4.33839 -4.28292,4.33839 -2.36535,0 -4.28293,-1.94242 -4.28293,-4.33839 0,-2.39597 1.91758,-4.33838 4.28293,-4.33838 2.36534,0 4.28292,1.94241 4.28292,4.33838" />
    <path
       inkscape:connector-curvature="0"
       id="path732"
       style="fill:#f1c40f;fill-opacity:1;fill-rule:nonzero;stroke:none"
       d="m 345.8059,186.46481 c 0,2.39597 -1.91758,4.33839 -4.28292,4.33839 -2.36535,0 -4.28293,-1.94242 -4.28293,-4.33839 0,-2.39597 1.91758,-4.33838 4.28293,-4.33838 2.36534,0 4.28292,1.94241 4.28292,4.33838" />
    <path
       inkscape:connector-curvature="0"
       id="path736"
       style="fill:#f1c40f;fill-opacity:1;fill-rule:nonzero;stroke:none"
       d="m 420.33109,233.444 c 0,2.39597 -1.91758,4.33838 -4.28293,4.33838 -2.36534,0 -4.28292,-1.94241 -4.28292,-4.33838 0,-2.39597 1.91758,-4.33839 4.28292,-4.33839 2.36535,0 4.28293,1.94242 4.28293,4.33839" />
    <path
       inkscape:connector-curvature="0"
       id="path740"
       style="fill:#e2713b;fill-opacity:1;fill-rule:nonzero;stroke:none"
       d="m 342.22206,252.0604 -68.29899,-16.59038 -67.79867,15.80947 -39.50606,-16.0678 1.4523,-3.65805 38.36914,15.60636 67.50276,-15.74242 67.00243,16.27486 74.79345,-79.88742 74.97646,48.19749 -2.08695,3.33069 -72.27043,-46.45818 -74.13544,79.18538 z" />
    <path
       inkscape:connector-curvature="0"
       id="path744"
       style="fill:#e2713b;fill-opacity:1;fill-rule:nonzero;stroke:none"
       d="m 210.33899,249.21994 c 0,2.39597 -1.91758,4.33839 -4.28293,4.33839 -2.36534,0 -4.28292,-1.94242 -4.28292,-4.33839 0,-2.39597 1.91758,-4.33838 4.28292,-4.33838 2.36535,0 4.28293,1.94241 4.28293,4.33838" />
    <path
       inkscape:connector-curvature="0"
       id="path748"
       style="fill:#e2713b;fill-opacity:1;fill-rule:nonzero;stroke:none"
       d="m 277.6095,233.444 c 0,2.39597 -1.91758,4.33838 -4.28292,4.33838 -2.36535,0 -4.28293,-1.94241 -4.28293,-4.33838 0,-2.39597 1.91758,-4.33839 4.28293,-4.33839 2.36534,0 4.28292,1.94242 4.28292,4.33839" />
    <path
       inkscape:connector-curvature="0"
       id="path752"
       style="fill:#e2713b;fill-opacity:1;fill-rule:nonzero;stroke:none"
       d="m 345.8059,249.61474 c 0,2.39597 -1.91758,4.33838 -4.28292,4.33838 -2.36535,0 -4.28293,-1.94241 -4.28293,-4.33838 0,-2.39598 1.91758,-4.33839 4.28293,-4.33839 2.36534,0 4.28292,1.94241 4.28292,4.33839" />
    <path
       inkscape:connector-curvature="0"
       id="path756"
       style="fill:#e2713b;fill-opacity:1;fill-rule:nonzero;stroke:none"
       d="m 420.33109,170.34022 c 0,2.39597 -1.91758,4.33838 -4.28293,4.33838 -2.36534,0 -4.28292,-1.94241 -4.28292,-4.33838 0,-2.39597 1.91758,-4.33839 4.28292,-4.33839 2.36535,0 4.28293,1.94242 4.28293,4.33839" />
    <path
       inkscape:connector-curvature="0"
       id="path760"
       style="fill:#2980b9;fill-opacity:1;fill-rule:nonzero;stroke:none"
       d="m 489.26881,235.37358 -73.96218,-15.8489 -0.29397,-0.18734 -74.18606,-47.15036 -66.68315,-15.55114 -66.86811,31.18707 -38.77602,28.96661 -2.31083,-3.17294 39.28024,-29.29198 68.25226,-31.83191 0.64828,0.14987 67.96998,15.85088 0.27839,0.17748 74.17244,47.14049 73.2847,15.70298 -0.80597,3.85919 z" />
    <path
       inkscape:connector-curvature="0"
       id="path764"
       style="fill:#2980b9;fill-opacity:1;fill-rule:nonzero;stroke:none"
       d="m 278.21593,154.56427 c 0,2.39597 -1.91758,4.33839 -4.28292,4.33839 -2.36535,0 -4.28293,-1.94242 -4.28293,-4.33839 0,-2.39597 1.91758,-4.33838 4.28293,-4.33838 2.36534,0 4.28292,1.94241 4.28292,4.33838" />
    <path
       inkscape:connector-curvature="0"
       id="path768"
       style="fill:#2980b9;fill-opacity:1;fill-rule:nonzero;stroke:none"
       d="m 210.56522,187.10216 c 0,2.39597 -1.91758,4.33838 -4.28292,4.33838 -2.36534,0 -4.28293,-1.94241 -4.28293,-4.33838 0,-2.39597 1.91759,-4.33839 4.28293,-4.33839 2.36534,0 4.28292,1.94242 4.28292,4.33839" />
    <path
       inkscape:connector-curvature="0"
       id="path772"
       style="fill:#2980b9;fill-opacity:1;fill-rule:nonzero;stroke:none"
       d="m 346.44155,169.17551 c 0,2.39597 -1.91759,4.33839 -4.28293,4.33839 -2.36534,0 -4.28292,-1.94242 -4.28292,-4.33839 0,-2.39597 1.91758,-4.33838 4.28292,-4.33838 2.36534,0 4.28293,1.94241 4.28293,4.33838" />
    <path
       inkscape:connector-curvature="0"
       id="path776"
       style="fill:#2980b9;fill-opacity:1;fill-rule:nonzero;stroke:none"
       d="m 420.33109,217.66805 c 0,2.39597 -1.91758,4.33839 -4.28293,4.33839 -2.36534,0 -4.28292,-1.94242 -4.28292,-4.33839 0,-2.39597 1.91758,-4.33838 4.28292,-4.33838 2.36535,0 4.28293,1.94241 4.28293,4.33838" />
    <text
       id="text778"
       x="142.94145"
       y="123.79065"
       style="font-size:23.51217079px;fill:#2c3e50;fill-opacity:1"
       transform="scale(0.9935874,1.006454)">
      <tspan
         style="font-size:11.7560854px;font-variant:normal;font-weight:normal;font-stretch:normal;writing-mode:lr-tb;fill:#2c3e50;fill-opacity:1;fill-rule:nonzero;stroke:none;font-family:Aleo;-inkscape-font-specification:Aleo-Regular"
         x="142.94145 149.86578"
         y="123.79065"
         sodipodi:role="line"
         id="tspan780">08</tspan>
      <tspan
         style="font-size:11.7560854px;font-variant:normal;font-weight:normal;font-stretch:normal;writing-mode:lr-tb;fill:#2c3e50;fill-opacity:1;fill-rule:nonzero;stroke:none;font-family:Aleo;-inkscape-font-specification:Aleo-Regular"
         x="142.90617 149.83051"
         y="139.46152"
         sodipodi:role="line"
         id="tspan782">07</tspan>
      <tspan
         style="font-size:11.7560854px;font-variant:normal;font-weight:normal;font-stretch:normal;writing-mode:lr-tb;fill:#2c3e50;fill-opacity:1;fill-rule:nonzero;stroke:none;font-family:Aleo;-inkscape-font-specification:Aleo-Regular"
         x="142.94145 149.86578"
         y="155.13239"
         sodipodi:role="line"
         id="tspan784">06</tspan>
      <tspan
         style="font-size:11.7560854px;font-variant:normal;font-weight:normal;font-stretch:normal;writing-mode:lr-tb;fill:#2c3e50;fill-opacity:1;fill-rule:nonzero;stroke:none;font-family:Aleo;-inkscape-font-specification:Aleo-Regular"
         x="143.11774 150.04205"
         y="170.80321"
         sodipodi:role="line"
         id="tspan786">05</tspan>
      <tspan
         style="font-size:11.7560854px;font-variant:normal;font-weight:normal;font-stretch:normal;writing-mode:lr-tb;fill:#2c3e50;fill-opacity:1;fill-rule:nonzero;stroke:none;font-family:Aleo;-inkscape-font-specification:Aleo-Regular"
         x="142.67107 149.5954"
         y="186.47408"
         sodipodi:role="line"
         id="tspan788">04</tspan>
      <tspan
         style="font-size:11.7560854px;font-variant:normal;font-weight:normal;font-stretch:normal;writing-mode:lr-tb;fill:#2c3e50;fill-opacity:1;fill-rule:nonzero;stroke:none;font-family:Aleo;-inkscape-font-specification:Aleo-Regular"
         x="142.98846 149.91278"
         y="202.14493"
         sodipodi:role="line"
         id="tspan790">03</tspan>
      <tspan
         style="font-size:11.7560854px;font-variant:normal;font-weight:normal;font-stretch:normal;writing-mode:lr-tb;fill:#2c3e50;fill-opacity:1;fill-rule:nonzero;stroke:none;font-family:Aleo;-inkscape-font-specification:Aleo-Regular"
         x="142.97673 149.90106"
         y="217.81581"
         sodipodi:role="line"
         id="tspan792">02</tspan>
      <tspan
         style="font-size:11.7560854px;font-variant:normal;font-weight:normal;font-stretch:normal;writing-mode:lr-tb;fill:#2c3e50;fill-opacity:1;fill-rule:nonzero;stroke:none;font-family:Aleo;-inkscape-font-specification:Aleo-Regular"
         x="143.36469 150.28902"
         y="233.48666"
         sodipodi:role="line"
         id="tspan794">01</tspan>
      <tspan
         style="font-size:11.7560854px;font-variant:normal;font-weight:normal;font-stretch:normal;writing-mode:lr-tb;fill:#2c3e50;fill-opacity:1;fill-rule:nonzero;stroke:none;font-family:Aleo;-inkscape-font-specification:Aleo-Regular"
         x="142.63579 149.56012"
         y="249.15753"
         sodipodi:role="line"
         id="tspan796">00</tspan>
    </text>
    <path
       d="m 489.67198,259.07991 -323.30031,0 0,-143.9555 1.94678,0 0,141.98351 321.35353,0 0,1.97199 z"
       style="fill:#2c3e50;fill-opacity:1;fill-rule:nonzero;stroke:none"
       id="path808"
       inkscape:connector-curvature="0" />
    <path
       d="m 160.53054,123.01238 6.81374,0"
       style="fill:#2c3e50;fill-opacity:1;stroke:#2c3e50;stroke-width:0.97967374;stroke-linecap:butt;stroke-linejoin:miter;stroke-miterlimit:10;stroke-opacity:1;stroke-dasharray:none"
       id="path812"
       inkscape:connector-curvature="0" />
    <path
       d="m 160.53054,138.78833 6.81374,0"
       style="fill:#2c3e50;fill-opacity:1;stroke:#2c3e50;stroke-width:0.97967374;stroke-linecap:butt;stroke-linejoin:miter;stroke-miterlimit:10;stroke-opacity:1;stroke-dasharray:none"
       id="path816"
       inkscape:connector-curvature="0" />
    <path
       d="m 160.53054,154.56427 6.81374,0"
       style="fill:#2c3e50;fill-opacity:1;stroke:#2c3e50;stroke-width:0.97967374;stroke-linecap:butt;stroke-linejoin:miter;stroke-miterlimit:10;stroke-opacity:1;stroke-dasharray:none"
       id="path820"
       inkscape:connector-curvature="0" />
    <path
       d="m 160.53054,170.34022 6.81374,0"
       style="fill:#2c3e50;fill-opacity:1;stroke:#2c3e50;stroke-width:0.97967374;stroke-linecap:butt;stroke-linejoin:miter;stroke-miterlimit:10;stroke-opacity:1;stroke-dasharray:none"
       id="path824"
       inkscape:connector-curvature="0" />
    <path
       d="m 160.53054,186.11616 6.81374,0"
       style="fill:#2c3e50;fill-opacity:1;stroke:#2c3e50;stroke-width:0.97967374;stroke-linecap:butt;stroke-linejoin:miter;stroke-miterlimit:10;stroke-opacity:1;stroke-dasharray:none"
       id="path828"
       inkscape:connector-curvature="0" />
    <path
       d="m 160.53054,201.89211 6.81374,0"
       style="fill:#2c3e50;fill-opacity:1;stroke:#2c3e50;stroke-width:0.97967374;stroke-linecap:butt;stroke-linejoin:miter;stroke-miterlimit:10;stroke-opacity:1;stroke-dasharray:none"
       id="path832"
       inkscape:connector-curvature="0" />
    <path
       d="m 160.53054,217.66805 6.81374,0"
       style="fill:#2c3e50;fill-opacity:1;stroke:#2c3e50;stroke-width:0.97967374;stroke-linecap:butt;stroke-linejoin:miter;stroke-miterlimit:10;stroke-opacity:1;stroke-dasharray:none"
       id="path836"
       inkscape:connector-curvature="0" />
    <path
       d="m 167.34428,233.444 -6.81374,0"
       style="fill:#2c3e50;fill-opacity:1;stroke:#2c3e50;stroke-width:0.97967374;stroke-linecap:butt;stroke-linejoin:miter;stroke-miterlimit:10;stroke-opacity:1;stroke-dasharray:none"
       id="path840"
       inkscape:connector-curvature="0" />
    <path
       d="m 160.53054,249.21994 6.81374,0"
       style="fill:#2c3e50;fill-opacity:1;stroke:#2c3e50;stroke-width:0.97967374;stroke-linecap:butt;stroke-linejoin:miter;stroke-miterlimit:10;stroke-opacity:1;stroke-dasharray:none"
       id="path844"
       inkscape:connector-curvature="0" />
    <path
       d="m 206.28189,265.98188 0,-6.90197"
       style="fill:#2c3e50;fill-opacity:1;stroke:#2c3e50;stroke-width:0.97967374;stroke-linecap:butt;stroke-linejoin:miter;stroke-miterlimit:10;stroke-opacity:1;stroke-dasharray:none"
       id="path848"
       inkscape:connector-curvature="0" />
    <path
       d="m 489.67198,265.98188 0,-6.90197"
       style="fill:#2c3e50;fill-opacity:1;stroke:#2c3e50;stroke-width:0.97967374;stroke-linecap:butt;stroke-linejoin:miter;stroke-miterlimit:10;stroke-opacity:1;stroke-dasharray:none"
       id="path852"
       inkscape:connector-curvature="0" />
    <path
       d="m 341.58331,265.98188 0,-6.90197"
       style="fill:#2c3e50;fill-opacity:1;stroke:#2c3e50;stroke-width:0.97967374;stroke-linecap:butt;stroke-linejoin:miter;stroke-miterlimit:10;stroke-opacity:1;stroke-dasharray:none"
       id="path856"
       inkscape:connector-curvature="0" />
    <path
       d="m 273.9326,265.98188 0,-6.90197"
       style="fill:#2c3e50;fill-opacity:1;stroke:#2c3e50;stroke-width:0.97967374;stroke-linecap:butt;stroke-linejoin:miter;stroke-miterlimit:10;stroke-opacity:1;stroke-dasharray:none"
       id="path860"
       inkscape:connector-curvature="0" />
    <path
       d="m 416.04776,265.98188 0,-6.90197"
       style="fill:#2c3e50;fill-opacity:1;stroke:#2c3e50;stroke-width:0.97967374;stroke-linecap:butt;stroke-linejoin:miter;stroke-miterlimit:10;stroke-opacity:1;stroke-dasharray:none"
       id="path864"
       inkscape:connector-curvature="0" />
    <text
       id="text1054"
       x="222.18633"
       y="293.94733"
       style="font-size:23.51217079px"
       transform="scale(0.9935874,1.006454)">
      <tspan
         style="font-size:13.71543217px;font-variant:normal;font-weight:normal;font-stretch:normal;writing-mode:lr-tb;fill:#917d61;fill-opacity:1;fill-rule:nonzero;stroke:none;font-family:Aleo;-inkscape-font-specification:Aleo-Regular"
         x="222.18633 229.75728 236.99899 242.67038 249.41832 261.62512 264.57385 268.53763 276.16345 281.78677 290.09833 302.30502"
         y="293.94733"
         sodipodi:role="line"
         id="tspan1056">Lorem ipsum</tspan>
      <tspan
         style="font-size:13.71543217px;font-variant:normal;font-weight:normal;font-stretch:normal;writing-mode:lr-tb;fill:#917d61;fill-opacity:1;fill-rule:nonzero;stroke:none;font-family:Aleo;-inkscape-font-specification:Aleo-Regular"
         x="222.18633 229.75728 236.99899 242.67038 249.41832 261.62512 264.57385 268.53763 276.16345 281.78677 290.09833 302.30502"
         y="310.59784"
         sodipodi:role="line"
         id="tspan1058">Lorem ipsum</tspan>
    </text>
    <g
       id="g1060"
       transform="matrix(1.946783,0,0,-1.9719931,-953.64286,448.61039)">
      <g
         id="g1062"
         clip-path="url(#clipPath1064)">
        <path
           d="m 670.254,77.13 -11.5,0 0,5.5 11.5,0 0,-5.5 z"
           style="fill:#e3c62f;fill-opacity:1;fill-rule:nonzero;stroke:none"
           id="path1068"
           inkscape:connector-curvature="0" />
        <path
           d="m 670.254,68.63 -11.5,0 0,5.5 11.5,0 0,-5.5 z"
           style="fill:#56997d;fill-opacity:1;fill-rule:nonzero;stroke:none"
           id="path1070"
           inkscape:connector-curvature="0" />
      </g>
    </g>
    <text
       id="text1072"
       x="359.73489"
       y="293.94733"
       style="font-size:23.51217079px"
       transform="scale(0.9935874,1.006454)">
      <tspan
         style="font-size:13.71543217px;font-variant:normal;font-weight:normal;font-stretch:normal;writing-mode:lr-tb;fill:#917d61;fill-opacity:1;fill-rule:nonzero;stroke:none;font-family:Aleo;-inkscape-font-specification:Aleo-Regular"
         x="359.73489 367.30576 374.54758 380.21881 386.96689 399.17361 402.12244 406.08618 413.71191 419.33521 427.64679 439.85361"
         y="293.94733"
         sodipodi:role="line"
         id="tspan1074">Lorem ipsum</tspan>
      <tspan
         style="font-size:13.71543217px;font-variant:normal;font-weight:normal;font-stretch:normal;writing-mode:lr-tb;fill:#917d61;fill-opacity:1;fill-rule:nonzero;stroke:none;font-family:Aleo;-inkscape-font-specification:Aleo-Regular"
         x="359.73489 367.30576 374.54758 380.21881 386.96689 399.17361 402.12244 406.08618 413.71191 419.33521 427.64679 439.85361"
         y="310.59784"
         sodipodi:role="line"
         id="tspan1076">Lorem ipsum</tspan>
    </text>
    <path
       d="m 217.49614,296.17193 -22.388,0 0,-10.84596 22.388,0 0,10.84596 z"
       style="fill:#e2713b;fill-opacity:1;fill-rule:nonzero;stroke:none"
       id="path1068-1"
       inkscape:connector-curvature="0" />
    <path
       d="m 217.49614,312.93387 -22.388,0 0,-10.84596 22.388,0 0,10.84596 z"
       style="fill:#2980b9;fill-opacity:1;fill-rule:nonzero;stroke:none"
       id="path1070-6"
       inkscape:connector-curvature="0" />
  </g>
</svg>
