<?xml version="1.0" encoding="UTF-8" standalone="no"?>
<!-- Created with Inkscape (http://www.inkscape.org/) -->

<svg
   xmlns:dc="http://purl.org/dc/elements/1.1/"
   xmlns:cc="http://creativecommons.org/ns#"
   xmlns:rdf="http://www.w3.org/1999/02/22-rdf-syntax-ns#"
   xmlns:svg="http://www.w3.org/2000/svg"
   xmlns="http://www.w3.org/2000/svg"
   xmlns:xlink="http://www.w3.org/1999/xlink"
   xmlns:sodipodi="http://sodipodi.sourceforge.net/DTD/sodipodi-0.dtd"
   xmlns:inkscape="http://www.inkscape.org/namespaces/inkscape"
   width="210mm"
   height="297mm"
   id="svg4933"
   version="1.1"
   inkscape:version="0.48.3.1 r9886"
   sodipodi:docname="coffee.svg">
  <defs
     id="defs4935">
    <linearGradient
       id="linearGradient3828-9">
      <stop
         style="stop-color:#7daecf;stop-opacity:1;"
         offset="0"
         id="stop3830-9" />
      <stop
         style="stop-color:#ffffff;stop-opacity:0;"
         offset="1"
         id="stop3832-5" />
    </linearGradient>
    <linearGradient
       id="linearGradient3828">
      <stop
         style="stop-color:#7daecf;stop-opacity:1;"
         offset="0"
         id="stop3830" />
      <stop
         style="stop-color:#ffffff;stop-opacity:0;"
         offset="1"
         id="stop3832" />
    </linearGradient>
    <linearGradient
       id="linearGradient4104">
      <stop
         style="stop-color:#c0b46a;stop-opacity:1;"
         offset="0"
         id="stop4106" />
      <stop
         style="stop-color:#d6ce9e;stop-opacity:0;"
         offset="1"
         id="stop4108" />
    </linearGradient>
    <linearGradient
       id="linearGradient4128">
      <stop
         style="stop-color:#ececec;stop-opacity:1;"
         offset="0"
         id="stop4130" />
      <stop
         style="stop-color:#f5f5f5;stop-opacity:0;"
         offset="1"
         id="stop4132" />
    </linearGradient>
    <linearGradient
       id="linearGradient4120">
      <stop
         style="stop-color:#c0b46a;stop-opacity:1;"
         offset="0"
         id="stop4122" />
      <stop
         style="stop-color:#d6ce9e;stop-opacity:0;"
         offset="1"
         id="stop4124" />
    </linearGradient>
    <linearGradient
       id="linearGradient4096">
      <stop
         style="stop-color:#c0b46a;stop-opacity:1;"
         offset="0"
         id="stop4098" />
      <stop
         style="stop-color:#d5cd9c;stop-opacity:0;"
         offset="1"
         id="stop4100" />
    </linearGradient>
    <linearGradient
       id="linearGradient4112">
      <stop
         style="stop-color:#ededed;stop-opacity:1;"
         offset="0"
         id="stop4114" />
      <stop
         style="stop-color:#f4f4f4;stop-opacity:0;"
         offset="1"
         id="stop4116" />
    </linearGradient>
    <linearGradient
       inkscape:collect="always"
       xlink:href="#linearGradient3828-9"
       id="linearGradient3905"
       gradientUnits="userSpaceOnUse"
       gradientTransform="matrix(0.67394557,-0.08376768,0.08376768,0.67394557,-1495.5475,285.52125)"
       x1="2632.8418"
       y1="719.73669"
       x2="2633.6726"
       y2="709.72729" />
    <linearGradient
       inkscape:collect="always"
       xlink:href="#linearGradient3828"
       id="linearGradient3911"
       gradientUnits="userSpaceOnUse"
       gradientTransform="matrix(0.67394557,-0.08376768,0.08376768,0.67394557,-1538.1933,285.59073)"
       x1="2632.8418"
       y1="719.73669"
       x2="2633.6726"
       y2="709.72729" />
    <linearGradient
       inkscape:collect="always"
       xlink:href="#linearGradient4104"
       id="linearGradient3936"
       gradientUnits="userSpaceOnUse"
       gradientTransform="matrix(0.67913155,0,0,0.67913155,-1492.0531,60.646163)"
       x1="3028.3218"
       y1="406.18127"
       x2="2872.0955"
       y2="385.94424" />
    <linearGradient
       inkscape:collect="always"
       xlink:href="#linearGradient4128"
       id="linearGradient3939"
       gradientUnits="userSpaceOnUse"
       gradientTransform="matrix(0.67913155,0,0,0.67913155,-1492.0531,60.646163)"
       x1="2946.4314"
       y1="1176.9437"
       x2="2780.7546"
       y2="1116.2327" />
    <linearGradient
       inkscape:collect="always"
       xlink:href="#linearGradient4120"
       id="linearGradient3942"
       gradientUnits="userSpaceOnUse"
       gradientTransform="matrix(0.67913155,0,0,0.67913155,-1492.0531,60.646163)"
       x1="2974.8179"
       y1="1016.5338"
       x2="2799.7422"
       y2="958.71368" />
    <linearGradient
       inkscape:collect="always"
       xlink:href="#linearGradient4096"
       id="linearGradient3945"
       gradientUnits="userSpaceOnUse"
       gradientTransform="matrix(0.67913155,0,0,0.67913155,-1492.0531,60.646163)"
       x1="3005.5105"
       y1="620.17126"
       x2="2848.2102"
       y2="562.3512" />
    <linearGradient
       inkscape:collect="always"
       xlink:href="#linearGradient4112"
       id="linearGradient3948"
       gradientUnits="userSpaceOnUse"
       gradientTransform="matrix(0.67913155,0,0,0.67913155,-1492.0531,60.646163)"
       x1="2992.7004"
       y1="809.66394"
       x2="2820.0381"
       y2="711.36981" />
  </defs>
  <sodipodi:namedview
     id="base"
     pagecolor="#ffffff"
     bordercolor="#666666"
     borderopacity="1.0"
     inkscape:pageopacity="0.0"
     inkscape:pageshadow="2"
     inkscape:zoom="0.35"
     inkscape:cx="-92.857143"
     inkscape:cy="520"
     inkscape:document-units="px"
     inkscape:current-layer="layer1"
     showgrid="false"
     inkscape:window-width="1440"
     inkscape:window-height="850"
     inkscape:window-x="0"
     inkscape:window-y="22"
     inkscape:window-maximized="1" />
  <metadata
     id="metadata4938">
    <rdf:RDF>
      <cc:Work
         rdf:about="">
        <dc:format>image/svg+xml</dc:format>
        <dc:type
           rdf:resource="http://purl.org/dc/dcmitype/StillImage" />
        <dc:title />
      </cc:Work>
    </rdf:RDF>
  </metadata>
  <g
     inkscape:label="Capa 1"
     inkscape:groupmode="layer"
     id="layer1">
    <path
       sodipodi:type="star"
       style="fill:#fff6d5;fill-opacity:1;fill-rule:evenodd;stroke:none"
       id="path5410"
       sodipodi:sides="7"
       sodipodi:cx="-228.57143"
       sodipodi:cy="203.79076"
       sodipodi:r1="442.4053"
       sodipodi:r2="415.72501"
       sodipodi:arg1="0.95054684"
       sodipodi:arg2="1.3993458"
       inkscape:flatsided="true"
       inkscape:rounded="0"
       inkscape:randomized="0"
       d="M 28.571434,563.79076 -349.70481,629.28947 -636.76515,374.37897 -616.44729,-8.9879337 -304.05099,-232.12814 65.182956,-127.01253 213.21386,227.2047 z"
       inkscape:transform-center-x="14.751666"
       inkscape:transform-center-y="-4.9617278"
       transform="matrix(0.62766359,0.06641588,-0.10034307,0.41544307,539.81417,702.8704)" />
    <g
       id="smoke_1">
      <path
         sodipodi:nodetypes="cscssc"
         inkscape:connector-curvature="0"
         id="path4834-3-8"
         d="m 202.97102,108.35118 c 22.16047,-0.3872 48.51566,53.75611 29.22051,73.05123 -16.80639,16.80642 -49.79765,84.50126 -7.30514,92.22718 -15.92903,7.96639 -28.10728,3.85258 -38.80843,-6.84855 -37.32561,-37.32562 10.7243,-83.53199 19.63254,-119.16482 3.67906,-14.71634 -0.0231,-29.80418 -1.82632,-39.7216"
         style="fill:#ffffff;fill-opacity:1;stroke:none;display:inline" >
            <animate
         repeatCount="indefinite"
         dur="5s"
         to="#e1f7f7"
         from="#ffffff"
         attributeName="fill" />
    </path>
      <path
         sodipodi:nodetypes="cscssc"
         inkscape:connector-curvature="0"
         id="path4834"
         d="m 232.86904,111.11765 c 22.16046,-0.38721 48.51565,53.7561 29.22051,73.05123 -16.8064,16.80641 -49.79765,84.50126 -7.30515,92.22717 -15.92902,7.96639 -28.10728,3.85259 -38.80842,-6.84855 -37.32561,-37.32562 10.7243,-83.53198 19.63254,-119.16482 3.67906,-14.71634 -0.0231,-29.80418 -1.82632,-39.7216"
         style="fill:#ffffff;fill-opacity:1;stroke:none;display:inline" >
           <animate
         repeatCount="indefinite"
         dur="7s"
         to="#f9f9f9"
         from="#ffffff"
         attributeName="fill" />
    </path>
      <path
         sodipodi:nodetypes="cscssc"
         inkscape:connector-curvature="0"
         id="path4834-3"
         d="m 243.14919,118.39573 c 22.16046,-0.38722 48.51565,53.7561 29.22051,73.05122 -16.8064,16.80642 -49.79766,84.50126 -7.30515,92.22718 -15.92902,7.96639 -28.10728,3.85258 -38.80842,-6.84855 -37.32561,-37.32562 10.7243,-83.53199 19.63254,-119.16482 3.67906,-14.71634 -0.0231,-29.80418 -1.82632,-39.7216"
         style="fill:#ffffff;fill-opacity:1;stroke:none;display:inline" >
         <animate
         repeatCount="indefinite"
         dur="10s"
         to="#f9f9f9"
         from="#ffffff"
         attributeName="fill" />
    </path>
    </g>
    <g
       id="smoke_2">
      <path
         sodipodi:nodetypes="cscssc"
         inkscape:connector-curvature="0"
         id="path4834-2"
         d="m 352.32046,42.484732 c 28.54308,-0.498734 62.48914,69.238988 37.63659,94.091508 -21.64698,21.64702 -64.14045,108.83939 -9.40917,118.79054 -20.5169,10.26087 -36.2028,4.96221 -49.98605,-8.82108 -48.0762,-48.07619 13.81313,-107.59094 25.28713,-153.486787 4.7387,-18.954951 -0.0299,-38.388404 -2.35238,-51.162253"
         style="fill:#ffffff;fill-opacity:1;stroke:none;display:inline" >
            <animate
         repeatCount="indefinite"
         dur="5s"
         to="#f9f9f9"
         from="#ffffff"
         attributeName="fill" />
    </path>
      <path
         sodipodi:nodetypes="cscssc"
         inkscape:connector-curvature="0"
         id="path4834-2-9"
         d="m 380.31223,52.968794 c 28.54308,-0.498735 62.48913,69.238986 37.63658,94.091506 -21.64698,21.64701 -64.14044,108.83939 -9.40916,118.79054 -20.5169,10.26087 -36.20281,4.96221 -49.98605,-8.82108 -48.0762,-48.07619 13.81313,-107.59094 25.28712,-153.48679 4.73871,-18.954946 -0.0299,-38.388399 -2.35237,-51.162249"
         style="fill:#ffffff;fill-opacity:1;stroke:none;display:inline"  >
            <animate
         repeatCount="indefinite"
         dur="4s"
         to="#c6dada"
         from="#ffffff"
         attributeName="fill" />
    </path>
    </g>
    <g
       id="smoke_3">
      <path
         sodipodi:nodetypes="cscssc"
         inkscape:connector-curvature="0"
         id="path4834-26"
         d="m 502.01002,110.63403 c -22.16047,-0.38721 -48.51567,53.75611 -29.22052,73.05124 16.8064,16.80641 49.79766,84.50126 7.30515,92.22717 15.92903,7.96639 28.10728,3.85259 38.80843,-6.84855 37.32561,-37.32562 -10.72431,-83.53198 -19.63254,-119.16482 -3.67906,-14.71634 0.0231,-29.80419 1.82632,-39.72161"
         style="fill:#ffffff;fill-opacity:1;stroke:none;display:inline" >
            <animate
         repeatCount="indefinite"
         dur="8s"
         to="#f9f9f9"
         from="#ffffff"
         attributeName="fill" />
    </path>
      <path
         sodipodi:nodetypes="cscssc"
         inkscape:connector-curvature="0"
         id="path4834-26-2"
         d="m 521.18591,103.78548 c -22.16047,-0.38721 -48.51566,53.75611 -29.22052,73.05123 16.8064,16.80641 49.79766,84.50126 7.30515,92.22717 15.92903,7.96639 28.10728,3.85259 38.80843,-6.84855 37.32561,-37.32562 -10.72431,-83.53198 -19.63254,-119.16481 -3.67906,-14.71634 0.0231,-29.80419 1.82632,-39.72161"
         style="fill:#ffffff;fill-opacity:1;stroke:none;display:inline" >
            <animate
         repeatCount="indefinite"
         dur="5s"
         to="#e5f3f3"
         from="#ffffff"
         attributeName="fill" />
    </path>

    </g>
    <path
       style="opacity:0.86433967;fill:none;stroke:#000000;stroke-width:8.28540516;stroke-linecap:round;stroke-linejoin:round;stroke-miterlimit:4;stroke-opacity:1;stroke-dasharray:none;display:inline"
       d="m 177.01658,351.62123 26.16436,487.31171 c 0,0 2.18035,26.16436 28.34477,23.98401 l 274.72603,-2.18036 c 0,0 18.68005,-2.18042 19.62323,-39.2466 l 39.24661,-478.59022 z"
       id="path3776"
       inkscape:connector-curvature="0"
       sodipodi:nodetypes="ccccccc" />
    <path
       style="opacity:0.86433967;fill:none;stroke:#000000;stroke-width:2.78443933;stroke-linecap:round;stroke-linejoin:round;stroke-miterlimit:4;stroke-opacity:1;stroke-dasharray:none;display:inline"
       d="m 194.45946,655.78218 346.20645,0"
       id="path3782"
       inkscape:connector-curvature="0"
       sodipodi:nodetypes="cc" />
    <path
       style="opacity:0.86433967;fill:none;stroke:#000000;stroke-width:4.61809444;stroke-linecap:round;stroke-linejoin:round;stroke-miterlimit:4;stroke-opacity:1;stroke-dasharray:none;display:inline"
       d="m 205.36129,823.67034 c 0,0 150.44522,32.70548 318.33333,-4.3607"
       id="path3778"
       inkscape:connector-curvature="0" />
    <path
       style="opacity:0.86433967;fill:none;stroke:#000000;stroke-width:3.05609155;stroke-linecap:butt;stroke-linejoin:miter;stroke-miterlimit:4;stroke-opacity:1;stroke-dasharray:none;display:inline"
       d="m 187.17028,509.58957 364.86912,0.10814"
       id="path3780"
       inkscape:connector-curvature="0"
       sodipodi:nodetypes="cc" />
    <path
       style="opacity:0.86433967;fill:none;stroke:#000000;stroke-width:6.38383627;stroke-linecap:butt;stroke-linejoin:miter;stroke-miterlimit:4;stroke-opacity:1;stroke-dasharray:none;display:inline"
       d="m 179.01445,351.26315 c 0,0 -40.52554,-11.99507 -11.80955,-32.3474 l 413.17921,-6.54109 c 0,0 20.31248,28.23183 -16.7537,30.4122"
       id="path3787"
       inkscape:connector-curvature="0"
       sodipodi:nodetypes="cccc" />
    <path
       style="opacity:1;fill:#dfd0a9;fill-opacity:1;stroke:none;display:inline"
       d="m 557.80916,345.29588 c -125.92104,2.71878 -251.84058,5.55162 -377.75346,8.61411 -1.26808,2.40154 0.0773,5.75095 -0.17597,8.50936 2.53017,49.16985 4.77178,96.94149 7.83738,146.08074 1.34584,-0.0263 3.11212,0.018 6.39858,-0.15641 118.26273,-0.0903 236.52548,-0.18036 354.78823,-0.27025 1.46733,-3.32063 0.79417,-7.69716 1.446,-11.42009 4.11208,-50.28081 8.31604,-100.55453 12.32291,-150.84369 -0.7994,-1.2777 -3.5454,-0.20609 -4.86367,-0.51377 z"
       id="path3894"
       inkscape:connector-curvature="0"
       sodipodi:nodetypes="ccccccccc" />
    <path
       style="opacity:1;fill:#dfd0a9;fill-opacity:1;stroke:none;display:inline"
       d="m 571.85347,314.38023 c -133.14069,1.99857 -266.27709,4.3376 -399.41974,6.16849 -2.87401,-0.3828 -5.52602,0.0272 -7.18874,2.64195 -3.1619,3.11425 -6.96646,7.80447 -4.60519,12.45203 3.43185,6.64032 10.5736,10.2873 17.18264,13.06104 6.60822,1.24923 13.43193,0.0697 20.11886,0.26567 122.75146,-2.6464 245.50184,-5.36953 368.24482,-8.38334 5.62416,-0.74031 12.11523,-1.75804 15.72074,-6.66999 3.75879,-5.1396 1.44818,-12.09282 -1.1696,-17.21048 -0.51431,-3.03643 -3.39702,-2.4215 -5.68101,-2.37449 -1.06759,0.0164 -2.13519,0.0327 -3.20278,0.0491 z"
       id="path3898"
       inkscape:connector-curvature="0" />
    <path
       style="opacity:1;fill:#f9f9f9;stroke:none;display:inline"
       d="m 522.67273,821.73427 c -15.81738,3.07531 -31.64182,6.20428 -47.59313,8.49329 -46.86843,7.10725 -94.36771,9.51748 -141.73571,8.29423 -42.8627,-0.79166 -85.72616,-4.93491 -127.83985,-12.80516 -1.85307,-0.0591 -0.40652,2.71157 -0.6684,3.78745 0.20075,8.27834 0.87649,17.26251 6.58622,23.7967 4.38624,5.48582 11.46027,7.89328 18.33831,7.41639 70.67899,-0.42514 141.35872,-1.1262 212.03832,-1.61212 21.61363,-0.20299 43.24445,-0.26215 64.84728,-0.55478 9.45487,-3.71336 13.78583,-14.01762 15.59531,-23.32328 0.62208,-4.34285 1.62176,-8.79992 1.30889,-13.18636 -0.24857,-0.27247 -0.49991,-0.36816 -0.87724,-0.30636 z"
       id="path3900"
       inkscape:connector-curvature="0" />
    <path
       style="opacity:1;fill:#e6cfa0;fill-opacity:1;stroke:none;display:inline"
       d="m 195.66465,657.20377 c 1.26841,28.4419 3.02601,56.95909 4.47201,85.4304 1.47141,26.22793 2.73283,52.47862 4.52316,78.68196 1.39935,0.97863 3.76782,0.58663 5.50701,1.24838 42.12788,7.63446 84.96206,11.30048 127.76283,12.21642 27.16343,-0.0462 54.37141,0.10167 81.45477,-2.29668 34.62539,-2.62227 69.07304,-7.551 102.97318,-15.02518 2.83484,-0.26112 1.80242,-3.66677 2.22056,-5.56297 4.1734,-51.43846 8.2617,-102.88674 12.69243,-154.30245 -1.85627,-1.39816 -5.24466,-0.19923 -7.67236,-0.59875 -111.16731,0 -222.33463,0 -333.50193,0 l -0.4011,0.19408 -0.0306,0.0148 z"
       id="path3913"
       inkscape:connector-curvature="0" />
    <path
       style="opacity:0.86433967;fill:#ffffff;fill-opacity:1;stroke:none;display:inline"
       d="m 188.11828,510.96112 c 0.13603,15.7869 1.52716,31.61659 2.17064,47.41714 1.72282,31.751 3.34615,63.52431 5.12438,95.26179 2.77256,1.30755 6.35382,0.37698 9.38866,0.79228 89.27828,0.55489 178.56018,0.17197 267.83997,0.28725 21.41627,0 42.83255,0 64.24883,0 1.43066,-3.16556 0.7613,-7.36393 1.38889,-10.92445 3.67505,-43.92596 6.93876,-87.8965 10.93619,-131.7893 -0.59933,-2.72469 -5.8423,-0.56989 -8.285,-1.25734 -117.45695,0 -234.91398,0 -352.37092,0 l -0.44164,0.21263 z"
       id="path3922"
       inkscape:connector-curvature="0" />
    <path
       style="opacity:0.86433967;fill:none;stroke:#000000;stroke-width:3.05609202;stroke-linecap:butt;stroke-linejoin:miter;stroke-miterlimit:4;stroke-opacity:1;stroke-dasharray:none;display:inline"
       d="m 198.03462,774.52836 c 15.70681,-28.66811 35.05079,2.40521 33.15655,3.61708 8.74599,0 29.0091,-12.74413 33.75949,1.50712 3.90059,11.70192 -10.3412,24.22972 -7.23418,30.44377 4.78184,9.56374 22.75016,7.09564 13.26263,22.9082"
       id="path3810"
       inkscape:connector-curvature="0"
       sodipodi:nodetypes="ccssc" />
    <path
       style="opacity:0.86433967;fill:#53291d;fill-opacity:1;stroke:none;display:inline"
       d="m 212.75812,762.58719 c -4.79562,0.10724 -8.82117,3.45284 -11.51821,7.14229 0.16075,6.14152 0.65951,12.32932 0.9603,18.48788 0.61753,10.95752 1.28287,21.91748 1.99963,32.86576 0.78935,1.50027 2.86403,1.25551 4.28525,1.56554 20.77524,3.85733 41.74771,6.62492 62.76893,8.76704 1.13143,-0.38683 1.26801,-1.90028 1.74544,-2.85052 0.98841,-2.43047 0.83567,-5.4702 -1.1315,-7.37768 -3.61251,-3.73169 -9.18811,-4.81871 -12.59185,-8.79156 -1.21313,-1.36247 -2.33282,-3.07191 -1.90612,-4.99066 0.36762,-3.80131 2.68182,-7.06895 4.16213,-10.53184 2.3849,-4.81946 4.81952,-10.18752 3.70527,-15.69622 -0.67709,-3.8708 -3.63736,-7.58558 -7.73558,-7.97507 -6.9054,-0.74392 -13.43023,2.04093 -19.96388,3.77428 -2.0956,0.56347 -4.44736,1.2086 -6.50907,1.19868 0.34133,-1.48365 -0.86419,-2.7835 -1.46332,-4.05518 -2.92407,-4.58237 -6.97577,-8.73499 -12.09853,-10.78372 -1.4987,-0.58317 -3.1058,-0.80308 -4.70889,-0.74902 z"
       id="path4156"
       inkscape:connector-curvature="0" />
    <path
       style="opacity:0.86433967;fill:#683325;fill-opacity:1;stroke:none;display:inline"
       d="m 211.41738,775.25096 c -4.18766,0.0827 -7.70285,2.66117 -10.05787,5.50485 0.14037,4.73355 0.57583,9.50268 0.83852,14.24934 0.53923,8.44541 1.12023,16.89265 1.74612,25.33093 0.68925,1.15635 2.5009,0.96769 3.74194,1.20661 18.14137,2.97303 36.45483,5.10619 54.81101,6.75715 0.988,-0.29813 1.10725,-1.46461 1.5241,-2.19699 0.86311,-1.87324 0.72973,-4.21611 -0.98807,-5.6863 -3.15449,-2.87612 -8.02319,-3.71396 -10.9954,-6.77596 -1.05931,-1.05014 -2.03706,-2.36766 -1.66442,-3.84654 0.32096,-2.92984 2.34178,-5.44833 3.63444,-8.11732 2.08249,-3.71451 4.20851,-7.85191 3.23552,-12.09771 -0.59132,-2.98342 -3.17623,-5.8465 -6.75491,-6.14668 -6.02988,-0.57339 -11.72752,1.573 -17.43284,2.90899 -1.82985,0.43431 -3.88347,0.9315 -5.68378,0.92389 0.298,-1.14352 -0.75465,-2.14544 -1.27779,-3.1255 -2.55333,-3.53182 -6.0914,-6.73245 -10.56463,-8.31143 -1.30869,-0.44952 -2.71212,-0.61903 -4.11194,-0.57733 z"
       id="path4156-3"
       inkscape:connector-curvature="0" />
    <path
       style="opacity:0.86433967;fill:#8a4430;fill-opacity:1;stroke:none;display:inline"
       d="m 209.55065,784.90246 c -3.35871,0.068 -6.17813,2.2014 -8.06706,4.55364 0.1126,3.91567 0.46187,7.86081 0.67261,11.78735 0.43247,6.98616 0.89842,13.97388 1.4005,20.95419 0.55282,0.95649 2.00582,0.80043 3.00122,0.99819 14.55039,2.45927 29.23892,4.22379 43.96147,5.58953 0.79248,-0.2466 0.8881,-1.21164 1.22244,-1.81736 0.69231,-1.54964 0.58527,-3.48768 -0.79241,-4.7038 -2.53011,-2.3792 -6.43504,-3.07232 -8.819,-5.60528 -0.84966,-0.86868 -1.63379,-1.95848 -1.33497,-3.18187 0.25753,-2.42362 1.87828,-4.50692 2.91504,-6.71478 1.67032,-3.07273 3.37542,-6.49521 2.59509,-10.00741 -0.4743,-2.46796 -2.54755,-4.8363 -5.41783,-5.08465 -4.8363,-0.47431 -9.40611,1.30121 -13.98203,2.40636 -1.46767,0.35926 -3.11484,0.77054 -4.55881,0.76423 0.23912,-0.9459 -0.60524,-1.77464 -1.02487,-2.58546 -2.04792,-2.92148 -4.88561,-5.56908 -8.47346,-6.87532 -1.0496,-0.37182 -2.17519,-0.51206 -3.29793,-0.47756 z"
       id="path4156-2"
       inkscape:connector-curvature="0" />
    <path
       style="fill:url(#linearGradient3948);fill-opacity:1;stroke:none;display:inline"
       d="m 459.36986,511.17129 c -5.57594,0.56996 -11.89655,-0.82465 -17.1298,0.6953 -6.86806,47.37855 -12.49643,94.95944 -19.65808,142.28435 10.33408,1.54756 22.03877,0.22205 32.90046,0.6637 26.72349,-0.41378 53.55476,0.89968 80.21271,-0.88493 3.7721,-1.63652 1.45164,-7.61044 2.71802,-10.7456 3.39355,-43.72373 7.56715,-87.39409 10.36633,-131.1595 -5.76264,-1.70869 -12.95899,-0.20077 -19.18404,-0.7977 -23.40838,-0.10031 -46.81709,-0.11098 -70.2256,-0.0556 z"
       id="path4085"
       inkscape:connector-curvature="0" />
    <path
       style="fill:url(#linearGradient3945);fill-opacity:1;stroke:none;display:inline"
       d="m 552.41408,345.65748 c -29.23411,0.44121 -58.50984,0.74125 -87.70305,2.08591 -4.75358,28.1166 -7.91392,56.8826 -12.03367,85.24623 -3.12564,24.72113 -7.1501,49.57 -9.61555,74.23108 35.04706,1.74722 70.32896,0.60273 105.46485,0.94814 2.94763,-9.84756 2.19801,-21.14882 3.63974,-31.5349 3.45949,-43.44342 7.1994,-86.87778 9.85549,-130.37597 -2.27136,-1.69123 -6.84416,-0.0219 -9.60781,-0.60049 z"
       id="path4083"
       inkscape:connector-curvature="0" />
    <path
       style="fill:url(#linearGradient3942);fill-opacity:1;stroke:none;display:inline"
       d="m 422.64514,657.18499 c -8.58938,58.6483 -15.94974,117.49346 -23.98794,176.22783 10.99738,0.69183 23.06426,-1.45137 34.46348,-2.11155 29.95283,-3.08971 60.07883,-6.85645 89.23734,-14.38612 4.10868,-2.34884 1.58489,-8.59916 2.88441,-12.44094 3.97645,-49.04527 8.54965,-98.06634 11.71692,-147.1628 -15.91552,-1.25378 -32.7956,-0.179 -49.08206,-0.53728 -21.69465,0.2731 -43.77064,-0.54676 -65.23215,0.41086 z"
       id="path4087"
       inkscape:connector-curvature="0" />
    <path
       style="fill:url(#linearGradient3939);fill-opacity:1;stroke:none;display:inline"
       d="m 520.84098,821.97197 c -40.18197,8.6283 -81.22875,12.33737 -122.05733,16.33956 -3.03069,5.9295 -1.827,13.66026 -3.6978,20.16383 11.39386,1.47432 24.05362,0.21114 35.93455,0.63206 25.04528,-0.2163 50.15617,0.49333 75.15595,-1.01129 13.04782,-5.00262 16.16042,-20.84099 17.56146,-33.2257 0.77523,-2.86294 0.30684,-4.34365 -2.89683,-2.89846 z"
       id="path4089"
       inkscape:connector-curvature="0" />
    <path
       style="fill:url(#linearGradient3936);fill-opacity:1;stroke:none;display:inline"
       d="m 575.25164,313.9742 c -33.32784,0.34564 -66.65106,1.08078 -99.97856,1.42652 -1.13734,0.74239 -0.6756,2.626 -1.16647,3.83022 -1.6018,8.00544 -3.91798,15.92649 -7.69938,23.22749 0.18194,1.49291 2.46178,0.51912 3.58927,0.77065 30.96202,-0.6918 61.92763,-1.29159 92.8832,-2.23372 6.29548,-0.2049 13.26364,-0.9223 18.03447,-5.4694 2.11855,-1.99221 3.51722,-4.83392 3.16496,-7.79282 0.27932,-4.44839 -1.61939,-8.56092 -3.55858,-12.43213 -1.09463,-1.78329 -3.53407,-1.19932 -5.26891,-1.32681 z"
       id="path4093"
       inkscape:connector-curvature="0" />
    <path
       sodipodi:type="arc"
       style="fill:#53291d;fill-opacity:1;fill-rule:evenodd;stroke:none;display:inline"
       id="path4188"
       sodipodi:cx="2697.031"
       sodipodi:cy="754.13049"
       sodipodi:rx="190.42633"
       sodipodi:ry="193.12741"
       d="m 2887.4573,754.13049 a 190.42633,193.12741 0 1 1 -380.8526,0 190.42633,193.12741 0 1 1 380.8526,0 z"
       transform="matrix(0.67913155,0,0,0.67913155,-1495.5522,53.829982)" />
    <path
       sodipodi:type="arc"
       style="fill:none;stroke:#6aa63d;stroke-width:6.9000001;stroke-miterlimit:4;stroke-opacity:1;stroke-dasharray:0.69, 0.69;stroke-dashoffset:0;display:inline"
       id="path4190"
       sodipodi:cx="2399.9121"
       sodipodi:cy="671.0722"
       sodipodi:rx="120.19818"
       sodipodi:ry="122.22399"
       d="m 2520.1103,671.0722 a 120.19818,122.22399 0 1 1 -240.3964,0 120.19818,122.22399 0 1 1 240.3964,0 z"
       transform="matrix(0.9783582,0,0,0.9783582,-2012.9234,-90.593464)" />
    <flowRoot
       xml:space="preserve"
       id="flowRoot4781"
       style="font-size:40px;font-style:normal;font-weight:normal;line-height:125%;letter-spacing:0px;word-spacing:0px;opacity:1;fill:#000000;fill-opacity:1;stroke:none;display:inline;font-family:Sans"
       transform="matrix(0.67913155,0,0,0.67913155,-716.30085,646.53181)"><flowRegion
         id="flowRegion4783"><rect
           id="rect4785"
           width="483.3429"
           height="174.46104"
           x="1573.0094"
           y="203.786" /></flowRegion><flowPara
         id="flowPara4787"
         style="font-style:italic;font-variant:normal;font-weight:normal;font-stretch:normal;font-family:Serif;-inkscape-font-specification:Serif Italic">Coffee</flowPara></flowRoot>    <path
       sodipodi:type="star"
       style="fill:#ffffff;fill-opacity:1;fill-rule:evenodd;stroke:#9fcf7d;stroke-width:9.39999962;stroke-linecap:round;stroke-linejoin:round;stroke-miterlimit:4;stroke-opacity:1;stroke-dasharray:none;stroke-dashoffset:0;display:inline"
       id="path3924"
       sodipodi:sides="9"
       sodipodi:cx="2141.0635"
       sodipodi:cy="527.3584"
       sodipodi:r1="139.04234"
       sodipodi:r2="114.2928"
       sodipodi:arg1="0.27970415"
       sodipodi:arg2="0.62877"
       inkscape:flatsided="false"
       inkscape:rounded="0"
       inkscape:randomized="0"
       d="m 2274.7022,565.744 -41.2042,28.83576 -14.7351,48.08506 -50.0996,-4.39613 -42.1961,27.36379 -35.5528,-35.57102 -49.9132,-6.1613 -4.3704,-50.10183 -34.2753,-36.80345 28.8569,-41.18944 -2.5996,-50.22486 48.5817,-13.00405 30.2925,-40.1455 45.5746,21.26608 49.0104,-11.28161 21.2427,45.58557 44.7958,22.86106 -13.029,48.57508 z"
       transform="matrix(0.7738105,0,0,0.7738105,-1327.1916,154.6122)" />
    <path
       sodipodi:type="arc"
       style="fill:#ff8080;fill-opacity:1;fill-rule:evenodd;stroke:none;display:inline"
       id="path4642"
       sodipodi:cx="2596.073"
       sodipodi:cy="739.57019"
       sodipodi:rx="11.280735"
       sodipodi:ry="12.032784"
       d="m 2607.3537,739.57019 a 11.280735,12.032784 0 1 1 -22.5614,0 11.280735,12.032784 0 1 1 22.5614,0 z"
       transform="matrix(0.67913155,0,0,0.67913155,-1487.9671,61.667643)" />
    <path
       sodipodi:type="arc"
       style="fill:#ff8080;fill-opacity:1;fill-rule:evenodd;stroke:none;display:inline"
       id="path4644"
       sodipodi:cx="2737.4583"
       sodipodi:cy="743.33044"
       sodipodi:rx="10.528686"
       sodipodi:ry="13.536881"
       d="m 2747.9869,743.33044 a 10.528686,13.536881 0 1 1 -21.0573,0 10.528686,13.536881 0 1 1 21.0573,0 z"
       transform="matrix(0.77615031,0,0,0.67913155,-1744.3587,62.178382)" />
    <path
       transform="matrix(0.67913155,0,0,0.67913155,-1492.0531,60.646163)"
       sodipodi:type="arc"
       style="fill:#ff8080;fill-opacity:1;fill-rule:evenodd;stroke:none;display:inline"
       id="path4646"
       sodipodi:cx="2608.8579"
       sodipodi:cy="774.9165"
       sodipodi:rx="8.2725391"
       sodipodi:ry="8.2725391"
       d="m 2617.1304,774.9165 a 8.2725391,8.2725391 0 1 1 -16.545,0 8.2725391,8.2725391 0 1 1 16.545,0 z" />
    <path
       transform="matrix(0.67913155,0,0,0.67913155,-1492.0531,60.646163)"
       sodipodi:type="arc"
       style="fill:#ff8080;fill-opacity:1;fill-rule:evenodd;stroke:none;display:inline"
       id="path4648"
       sodipodi:cx="2588.5525"
       sodipodi:cy="762.13165"
       sodipodi:rx="9.0245876"
       sodipodi:ry="9.0245876"
       d="m 2597.5771,762.13165 a 9.0245876,9.0245876 0 1 1 -18.0492,0 9.0245876,9.0245876 0 1 1 18.0492,0 z" />
    <path
       sodipodi:type="arc"
       style="fill:#ff8080;fill-opacity:1;fill-rule:evenodd;stroke:none;display:inline"
       id="path4650"
       sodipodi:cx="2732.946"
       sodipodi:cy="718.51282"
       sodipodi:rx="9.0245876"
       sodipodi:ry="9.0245876"
       d="m 2741.9706,718.51282 a 9.0245876,9.0245876 0 1 1 -18.0491,0 9.0245876,9.0245876 0 1 1 18.0491,0 z"
       transform="matrix(0.67913155,0,0,0.67913155,-1491.0316,70.860966)" />
    <path
       sodipodi:type="arc"
       style="fill:#ff8080;fill-opacity:1;fill-rule:evenodd;stroke:none;display:inline"
       id="path4652"
       sodipodi:cx="2747.9871"
       sodipodi:cy="781.68494"
       sodipodi:rx="9.0245876"
       sodipodi:ry="9.0245876"
       d="m 2757.0116,781.68494 a 9.0245876,9.0245876 0 1 1 -18.0491,0 9.0245876,9.0245876 0 1 1 18.0491,0 z"
       transform="matrix(0.67913155,0,0,0.67913155,-1497.1605,50.431359)" />
    <path
       sodipodi:type="arc"
       style="fill:#ffffff;fill-opacity:1;fill-rule:evenodd;stroke:none;display:inline"
       id="path4654"
       sodipodi:cx="2585.5444"
       sodipodi:cy="738.0661"
       sodipodi:rx="6.0163918"
       sodipodi:ry="6.0163918"
       d="m 2591.5608,738.0661 a 6.0163918,6.0163918 0 1 1 -12.0328,0 6.0163918,6.0163918 0 1 1 12.0328,0 z"
       transform="matrix(0.67913155,0,0,0.67913155,-1480.8168,61.667643)" />
    <path
       sodipodi:type="arc"
       style="fill:#ffffff;fill-opacity:1;fill-rule:evenodd;stroke:none;display:inline"
       id="path4654-9"
       sodipodi:cx="2585.5444"
       sodipodi:cy="738.0661"
       sodipodi:rx="6.0163918"
       sodipodi:ry="6.0163918"
       d="m 2591.5608,738.0661 a 6.0163918,6.0163918 0 1 1 -12.0328,0 6.0163918,6.0163918 0 1 1 12.0328,0 z"
       transform="matrix(0.42445722,0,0,0.42445722,-831.02756,264.44558)" />
    <path
       sodipodi:type="arc"
       style="fill:#ffffff;fill-opacity:1;fill-rule:evenodd;stroke:none;display:inline"
       id="path4654-6"
       sodipodi:cx="2585.5444"
       sodipodi:cy="738.0661"
       sodipodi:rx="6.0163918"
       sodipodi:ry="6.0163918"
       d="m 2591.5608,738.0661 a 6.0163918,6.0163918 0 1 1 -12.0328,0 6.0163918,6.0163918 0 1 1 12.0328,0 z"
       transform="matrix(0.33956578,0,0,0.42445722,-597.74696,272.10669)" />
    <path
       sodipodi:type="arc"
       style="fill:#ffffff;fill-opacity:1;fill-rule:evenodd;stroke:none;display:inline"
       id="path4654-1"
       sodipodi:cx="2585.5444"
       sodipodi:cy="738.0661"
       sodipodi:rx="6.0163918"
       sodipodi:ry="6.0163918"
       d="m 2591.5608,738.0661 a 6.0163918,6.0163918 0 1 1 -12.0328,0 6.0163918,6.0163918 0 1 1 12.0328,0 z"
       transform="matrix(0.67913155,0,0,0.67913155,-1374.0721,66.264288)" />
    <path
       sodipodi:type="arc"
       style="fill:#ffffff;fill-opacity:1;fill-rule:evenodd;stroke:none;display:inline"
       id="path4654-94"
       sodipodi:cx="2585.5444"
       sodipodi:cy="738.0661"
       sodipodi:rx="6.0163918"
       sodipodi:ry="6.0163918"
       d="m 2591.5608,738.0661 a 6.0163918,6.0163918 0 1 1 -12.0328,0 6.0163918,6.0163918 0 1 1 12.0328,0 z"
       transform="matrix(0.59424011,0,0,0.59424011,-1171.9467,119.72646)" />
    <path
       sodipodi:type="arc"
       style="fill:#ffffff;fill-opacity:1;fill-rule:evenodd;stroke:none;display:inline"
       id="path4654-69"
       sodipodi:cx="2585.5444"
       sodipodi:cy="738.0661"
       sodipodi:rx="6.0163918"
       sodipodi:ry="6.0163918"
       d="m 2591.5608,738.0661 a 6.0163918,6.0163918 0 1 1 -12.0328,0 6.0163918,6.0163918 0 1 1 12.0328,0 z"
       transform="matrix(0.59424011,0,0,0.55179438,-1166.8393,173.2714)" />
    <path
       style="fill:#000000;fill-opacity:1;stroke:#000000;stroke-width:0.67913157px;stroke-linecap:butt;stroke-linejoin:miter;stroke-opacity:1;display:inline"
       d="m 287.56425,527.93129 0.23287,21.45675 c 0,0 6.39858,8.34419 14.61498,0.36076 l 0.14174,-20.8356 c 0,0 -5.99212,-9.93829 -14.95754,-0.98205"
       id="path3790"
       inkscape:connector-curvature="0"
       sodipodi:nodetypes="ccccc" />
    <path
       sodipodi:type="arc"
       style="fill:#ffffff;fill-opacity:1;fill-rule:evenodd;stroke:none;display:inline"
       id="path3818"
       sodipodi:cx="2626.6931"
       sodipodi:cy="695.57971"
       sodipodi:rx="6.6628313"
       sodipodi:ry="9.35359"
       d="m 2633.3559,695.57971 a 6.6628313,9.35359 0 1 1 -13.3256,0 6.6628313,9.35359 0 1 1 13.3256,0 z"
       transform="matrix(0.52240889,0,0,0.43259749,-1077.9542,235.39344)" />
    <path
       sodipodi:type="arc"
       style="fill:#ffffff;fill-opacity:1;fill-rule:evenodd;stroke:none;display:inline"
       id="path3820"
       sodipodi:cx="2634.7654"
       sodipodi:cy="705.8302"
       sodipodi:rx="3.3314157"
       sodipodi:ry="3.5876784"
       d="m 2638.0968,705.8302 a 3.3314157,3.5876784 0 1 1 -6.6628,0 3.3314157,3.5876784 0 1 1 6.6628,0 z"
       transform="matrix(0.67913155,0,0,0.67913155,-1491.1816,61.584427)" />
    <path
       style="fill:url(#linearGradient3911);fill-opacity:1;stroke:none;display:inline"
       d="m 289.45726,543.03697 c 2.62579,-0.67679 6.63396,-2.04661 9.33344,-0.92389 4.53049,1.60251 -5.91028,13.0583 -8.44697,1.40422"
       id="path3826"
       inkscape:connector-curvature="0"
       sodipodi:nodetypes="ccc" />
    <path
       style="fill:#000000;fill-opacity:1;stroke:#000000;stroke-width:0.67913157px;stroke-linecap:butt;stroke-linejoin:miter;stroke-opacity:1;display:inline"
       d="m 330.21004,527.86181 0.23288,21.45676 c 0,0 6.39857,8.34419 14.61498,0.36076 l 0.14173,-20.8356 c 0,0 -5.99211,-9.93829 -14.95753,-0.98205"
       id="path3790-5"
       inkscape:connector-curvature="0"
       sodipodi:nodetypes="ccccc" />
    <path
       sodipodi:type="arc"
       style="fill:#ffffff;fill-opacity:1;fill-rule:evenodd;stroke:none;display:inline"
       id="path3818-0"
       sodipodi:cx="2626.6931"
       sodipodi:cy="695.57971"
       sodipodi:rx="6.6628313"
       sodipodi:ry="9.35359"
       d="m 2633.3559,695.57971 a 6.6628313,9.35359 0 1 1 -13.3256,0 6.6628313,9.35359 0 1 1 13.3256,0 z"
       transform="matrix(0.52240889,0,0,0.43259749,-1035.3084,235.32396)" />
    <path
       sodipodi:type="arc"
       style="fill:#ffffff;fill-opacity:1;fill-rule:evenodd;stroke:none;display:inline"
       id="path3820-6"
       sodipodi:cx="2634.7654"
       sodipodi:cy="705.8302"
       sodipodi:rx="3.3314157"
       sodipodi:ry="3.5876784"
       d="m 2638.0968,705.8302 a 3.3314157,3.5876784 0 1 1 -6.6628,0 3.3314157,3.5876784 0 1 1 6.6628,0 z"
       transform="matrix(0.67913155,0,0,0.67913155,-1448.5358,61.514952)" />
    <path
       style="fill:url(#linearGradient3905);fill-opacity:1;stroke:none;display:inline"
       d="m 332.10305,542.96749 c 2.6258,-0.67678 6.63396,-2.04661 9.33344,-0.92389 4.53049,1.60251 -5.91027,13.0583 -8.44697,1.40423"
       id="path3826-0"
       inkscape:connector-curvature="0"
       sodipodi:nodetypes="ccc" />
    <path
       style="fill:none;stroke:#000000;stroke-width:2.17322111;stroke-linecap:butt;stroke-linejoin:miter;stroke-miterlimit:4;stroke-opacity:1;stroke-dasharray:none;display:inline"
       d="m 291.12887,585.23133 c 0,0 35.56123,16.7849 62.30326,-3.41387"
       id="path3792"
       inkscape:connector-curvature="0" />
    <path
       style="fill:none;stroke:#000000;stroke-width:2.17322111;stroke-linecap:butt;stroke-linejoin:miter;stroke-miterlimit:4;stroke-opacity:1;stroke-dasharray:none;display:inline"
       d="m 322.86102,591.63431 c 0,0 16.50039,-43.24245 19.62976,-3.41387"
       id="path3794"
       inkscape:connector-curvature="0" />
    <path
       style="fill:none;stroke:#000000;stroke-width:2.17322111;stroke-linecap:butt;stroke-linejoin:miter;stroke-miterlimit:4;stroke-opacity:1;stroke-dasharray:none;display:inline"
       d="m 331.69564,599.7576 c 9.79675,4.12561 15.81691,-2.33928 15.15116,-4.15841"
       id="path3808"
       inkscape:connector-curvature="0"
       sodipodi:nodetypes="cc" />
    <path
       style="fill:#ff8080;stroke:none;display:inline"
       d="m 336.37452,571.9674 c -1.17408,0.0655 -2.09295,0.92754 -2.90981,1.68503 -2.20813,2.25635 -3.79594,5.02175 -5.29722,7.77499 -1.55189,2.92595 -2.94384,5.95137 -4.19446,9.00827 -0.13738,0.46059 0.34514,0.8124 0.76606,0.70412 2.73894,-0.16296 5.48467,-0.42579 8.18252,-0.95667 2.92448,-0.56115 5.81303,-1.34945 8.58599,-2.4324 0.48415,-0.34643 0.20272,-0.9953 0.21868,-1.48533 -0.3486,-3.5516 -0.80294,-7.12764 -1.97587,-10.5135 -0.50608,-1.32612 -1.09693,-2.77303 -2.3451,-3.5658 -0.30799,-0.1856 -0.67744,-0.23061 -1.03079,-0.21871 z"
       id="path4636"
       inkscape:connector-curvature="0" />
    <path
       style="fill:none;stroke:#000000;stroke-width:0.67913157px;stroke-linecap:butt;stroke-linejoin:miter;stroke-opacity:1;display:inline"
       d="m 336.01376,578.87223 c -0.70052,2.92201 -1.0464,5.93582 -2.04296,8.42722"
       id="path4638"
       inkscape:connector-curvature="0" />
    <path
       style="fill:#ffb9b9;fill-opacity:1;stroke:none;display:inline"
       d="m 337.25393,575.18141 c 0.17671,3.69097 -1.08458,7.72755 0.53013,11.07291 -0.0908,0 4.09353,-11.50315 -0.53013,-11.07291 z"
       id="path4754"
       inkscape:connector-curvature="0"
       sodipodi:nodetypes="ccc" />
    <path
       style="fill:none;stroke:#000000;stroke-width:0.67913157px;stroke-linecap:butt;stroke-linejoin:miter;stroke-opacity:1;display:inline"
       d="m 226.56146,384.9989 c -10.1416,-0.29616 -14.61864,4.00776 -15.4482,11.58617"
       id="path3927"
       inkscape:connector-curvature="0"
       sodipodi:nodetypes="cc" />
    <path
       style="fill:none;stroke:#000000;stroke-width:0.67913157px;stroke-linecap:butt;stroke-linejoin:miter;stroke-opacity:1;display:inline"
       d="m 227.89548,390.93199 c -7.03111,1.25514 -10.45964,4.22302 -11.58618,11.58617"
       id="path3929"
       inkscape:connector-curvature="0"
       sodipodi:nodetypes="cc" />
    <path
       style="fill:none;stroke:#000000;stroke-width:0.67913157px;stroke-linecap:butt;stroke-linejoin:miter;stroke-opacity:1;display:inline"
       d="m 424.95772,420.20978 c 8.57349,6.16792 11.13654,-0.88221 12.55164,-3.86206"
       id="path3931"
       inkscape:connector-curvature="0"
       sodipodi:nodetypes="cc" />
    <path
       style="fill:none;stroke:#000000;stroke-width:0.67913157px;stroke-linecap:butt;stroke-linejoin:miter;stroke-opacity:1;display:inline"
       d="m 424.99141,426.07037 c 6.57324,4.74768 12.17574,-0.16417 15.91415,-3.90257"
       id="path3933"
       inkscape:connector-curvature="0"
       sodipodi:nodetypes="cc" />
    <path
       style="fill:none;stroke:#000000;stroke-width:0.4584657;stroke-linecap:butt;stroke-linejoin:miter;stroke-miterlimit:4;stroke-opacity:1;stroke-dasharray:none;display:inline"
       d="m 563.45567,352.8623 -24.98552,24.9855"
       id="path3939"
       inkscape:connector-curvature="0" />
    <path
       style="fill:none;stroke:#000000;stroke-width:0.557567;stroke-linecap:butt;stroke-linejoin:miter;stroke-miterlimit:4;stroke-opacity:1;stroke-dasharray:none;display:inline"
       d="m 561.6415,369.15919 -56.25511,56.25503"
       id="path3941"
       inkscape:connector-curvature="0" />
    <path
       style="fill:none;stroke:#000000;stroke-width:0.53550869px;stroke-linecap:butt;stroke-linejoin:miter;stroke-opacity:1;display:inline"
       d="m 560.66654,385.22019 -32.73699,32.73706"
       id="path3943"
       inkscape:connector-curvature="0" />
    <path
       style="fill:none;stroke:#000000;stroke-width:0.62344277;stroke-linecap:butt;stroke-linejoin:miter;stroke-miterlimit:4;stroke-opacity:1;stroke-dasharray:none;display:inline"
       d="m 558.62521,404.94256 -45.18649,45.18653"
       id="path3945"
       inkscape:connector-curvature="0" />
    <path
       style="fill:none;stroke:#000000;stroke-width:0.60781109px;stroke-linecap:butt;stroke-linejoin:miter;stroke-opacity:1;display:inline"
       d="m 558.15199,421.73898 -29.81204,29.81208"
       id="path3939-8"
       inkscape:connector-curvature="0" />
    <path
       style="fill:none;stroke:#000000;stroke-width:0.68999767;stroke-linecap:butt;stroke-linejoin:miter;stroke-miterlimit:4;stroke-opacity:1;stroke-dasharray:none;display:inline"
       d="m 556.4143,437.95941 -52.08783,52.0878"
       id="path3941-9"
       inkscape:connector-curvature="0" />
    <path
       style="fill:none;stroke:#000000;stroke-width:0.53191811px;stroke-linecap:butt;stroke-linejoin:miter;stroke-opacity:1;display:inline"
       d="m 555.40545,454.05437 -32.51757,32.51755"
       id="path3943-9"
       inkscape:connector-curvature="0" />
    <path
       style="fill:none;stroke:#000000;stroke-width:0.67913157px;stroke-linecap:butt;stroke-linejoin:miter;stroke-opacity:1;display:inline"
       d="m 553.50429,473.63652 -31.86194,31.86195"
       id="path3945-0"
       inkscape:connector-curvature="0" />
    <path
       style="fill:none;stroke:#000000;stroke-width:0.85231012;stroke-linecap:butt;stroke-linejoin:miter;stroke-miterlimit:4;stroke-opacity:1;stroke-dasharray:none;display:inline"
       d="m 548.48061,527.69046 -68.45775,68.45771"
       id="path3939-6"
       inkscape:connector-curvature="0" />
    <path
       style="fill:none;stroke:#000000;stroke-width:0.67913157px;stroke-linecap:butt;stroke-linejoin:miter;stroke-opacity:1;display:inline"
       d="m 549.10372,548.98855 -39.58611,39.58606"
       id="path3941-3"
       inkscape:connector-curvature="0" />
    <path
       style="fill:none;stroke:#000000;stroke-width:0.87581325px;stroke-linecap:butt;stroke-linejoin:miter;stroke-opacity:1;display:inline"
       d="m 546.22175,570.14457 -53.54076,53.54077"
       id="path3943-6"
       inkscape:connector-curvature="0" />
    <path
       style="fill:none;stroke:#000000;stroke-width:0.74819118;stroke-linecap:butt;stroke-linejoin:miter;stroke-miterlimit:4;stroke-opacity:1;stroke-dasharray:none;display:inline"
       d="m 542.79615,605.06549 -43.8774,43.87742"
       id="path3945-6"
       inkscape:connector-curvature="0" />
    <path
       style="fill:none;stroke:#000000;stroke-width:0.46962509px;stroke-linecap:butt;stroke-linejoin:miter;stroke-opacity:1;display:inline"
       d="m 537.50564,665.60004 -23.0343,23.0343"
       id="path3939-9"
       inkscape:connector-curvature="0" />
    <path
       style="fill:none;stroke:#000000;stroke-width:0.67913157px;stroke-linecap:butt;stroke-linejoin:miter;stroke-opacity:1;display:inline"
       d="m 535.80612,681.78233 -39.58611,39.58606"
       id="path3941-8"
       inkscape:connector-curvature="0" />
    <path
       style="fill:none;stroke:#000000;stroke-width:0.80894613px;stroke-linecap:butt;stroke-linejoin:miter;stroke-opacity:1;display:inline"
       d="m 534.55149,698.12303 -49.45293,49.45304"
       id="path3943-5"
       inkscape:connector-curvature="0" />
    <path
       style="fill:none;stroke:#000000;stroke-width:0.67913157px;stroke-linecap:butt;stroke-linejoin:miter;stroke-opacity:1;display:inline"
       d="m 532.78887,717.5667 -31.86193,31.86198"
       id="path3945-02"
       inkscape:connector-curvature="0" />
    <path
       style="fill:none;stroke:#000000;stroke-width:0.79865873;stroke-linecap:butt;stroke-linejoin:miter;stroke-miterlimit:4;stroke-opacity:1;stroke-dasharray:none;display:inline"
       d="m 532.6686,735.79803 -55.8382,55.83822"
       id="path3939-68"
       inkscape:connector-curvature="0" />
    <path
       style="fill:none;stroke:#000000;stroke-width:0.88015449;stroke-linecap:butt;stroke-linejoin:miter;stroke-miterlimit:4;stroke-opacity:1;stroke-dasharray:none;display:inline"
       d="m 535.14084,751.84829 -63.17689,63.17684"
       id="path3941-80"
       inkscape:connector-curvature="0" />
    <path
       style="fill:none;stroke:#000000;stroke-width:0.80245543px;stroke-linecap:butt;stroke-linejoin:miter;stroke-opacity:1;display:inline"
       d="m 529.99995,777.676 -49.05618,49.05621"
       id="path3943-8"
       inkscape:connector-curvature="0" />
    <path
       style="fill:none;stroke:#000000;stroke-width:0.67913157px;stroke-linecap:butt;stroke-linejoin:miter;stroke-opacity:1;display:inline"
       d="m 263.36985,747.84718 c 7.32932,-3.43565 14.54598,-8.82585 18.2304,-15.5807"
       id="path4013"
       inkscape:connector-curvature="0" />
    <path
       style="fill:none;stroke:#000000;stroke-width:0.67913157px;stroke-linecap:butt;stroke-linejoin:miter;stroke-opacity:1;display:inline"
       d="m 269.851,753.16248 c 6.60612,-2.67157 12.71579,-7.94958 15.31727,-12.93094"
       id="path4015"
       inkscape:connector-curvature="0"
       sodipodi:nodetypes="cc" />
    <path
       style="fill:#28170b;stroke:none;display:inline"
       d="m 452.11178,788.09981 c -5.57934,0.0604 -10.984,3.3344 -13.45862,8.37967 -2.24087,4.20124 -3.38683,8.97017 -3.62589,13.69013 0.96118,0.91812 2.59578,1.08879 3.88009,1.53891 6.473,1.71006 14.20213,1.39195 19.35626,-3.35871 4.51745,-4.18576 6.51797,-10.30419 7.42264,-16.23491 -0.42351,-1.25232 -2.14558,-1.34156 -3.17073,-1.90653 -3.34241,-1.19581 -6.81047,-2.24351 -10.40375,-2.10856 z"
       id="path4708"
       inkscape:connector-curvature="0" />
    <path
       style="fill:#804825;fill-opacity:1;stroke:none;display:inline"
       d="m 436.09419,807.33023 c 0.7899,0.85876 4.77796,2.57921 5.8334,3.0002 5.31971,1.59956 13.03736,1.10692 17.2731,-3.33671 3.71254,-3.91526 5.35665,-9.63823 6.10009,-15.18572 -17.12858,-2.44881 -22.90004,12.76183 -29.20659,15.52223 z"
       id="path4708-8"
       inkscape:connector-curvature="0"
       sodipodi:nodetypes="ccccc" />
    <path
       style="fill:#552200;fill-opacity:1;stroke:none;display:inline"
       d="m 441.22618,806.56662 15.86492,-12.96007 c 0,0 -7.59731,9.60835 -15.86492,12.96007 z"
       id="path4721"
       inkscape:connector-curvature="0" />
  </g>
</svg>
