<?xml version="1.0" encoding="UTF-8" standalone="no"?>
<!-- Created with Inkscape (http://www.inkscape.org/) -->

<svg
   xmlns:dc="http://purl.org/dc/elements/1.1/"
   xmlns:cc="http://creativecommons.org/ns#"
   xmlns:rdf="http://www.w3.org/1999/02/22-rdf-syntax-ns#"
   xmlns:svg="http://www.w3.org/2000/svg"
   xmlns="http://www.w3.org/2000/svg"
   xmlns:sodipodi="http://sodipodi.sourceforge.net/DTD/sodipodi-0.dtd"
   xmlns:inkscape="http://www.inkscape.org/namespaces/inkscape"
   width="212.49625"
   height="212.4975"
   id="svg2"
   version="1.1"
   inkscape:version="0.48.3.1 r9886"
   sodipodi:docname="eli.svg">
  <defs
     id="defs4">
    <clipPath
       clipPathUnits="userSpaceOnUse"
       id="clipPath684">
      <path
         inkscape:connector-curvature="0"
         d="m 416.51,653.483 c 0,-46.945 38.055,-85.002 85,-85.002 l 0,0 c 46.944,0 85,38.057 85,85.002 l 0,0 c 0,46.944 -38.056,85 -85,85 l 0,0 c -46.945,0 -85,-38.056 -85,-85"
         id="path686" />
    </clipPath>
    <clipPath
       clipPathUnits="userSpaceOnUse"
       id="clipPath668">
      <path
         inkscape:connector-curvature="0"
         d="M 0,800 800,800 800,0 0,0 0,800 z"
         id="path670" />
    </clipPath>
    <clipPath
       clipPathUnits="userSpaceOnUse"
       id="clipPath684-2">
      <path
         inkscape:connector-curvature="0"
         d="m 416.51,653.483 c 0,-46.945 38.055,-85.002 85,-85.002 l 0,0 c 46.944,0 85,38.057 85,85.002 l 0,0 c 0,46.944 -38.056,85 -85,85 l 0,0 c -46.945,0 -85,-38.056 -85,-85"
         id="path686-5" />
    </clipPath>
    <clipPath
       clipPathUnits="userSpaceOnUse"
       id="clipPath504">
      <path
         inkscape:connector-curvature="0"
         d="M 0,800 800,800 800,0 0,0 0,800 z"
         id="path506" />
    </clipPath>
    <clipPath
       clipPathUnits="userSpaceOnUse"
       id="clipPath38">
      <path
         inkscape:connector-curvature="0"
         d="m 619.532,143.773 c 0,-46.945 38.056,-85.001 85.001,-85.001 l 0,0 c 46.944,0 84.999,38.056 84.999,85.001 l 0,0 c 0,46.944 -38.055,85.001 -84.999,85.001 l 0,0 c -46.945,0 -85.001,-38.057 -85.001,-85.001"
         id="path40" />
    </clipPath>
    <clipPath
       clipPathUnits="userSpaceOnUse"
       id="clipPath102">
      <path
         inkscape:connector-curvature="0"
         d="M 0,800 800,800 800,0 0,0 0,800 z"
         id="path104" />
    </clipPath>
  </defs>
  <sodipodi:namedview
     id="base"
     pagecolor="#ffffff"
     bordercolor="#666666"
     borderopacity="1.0"
     inkscape:pageopacity="0.0"
     inkscape:pageshadow="2"
     inkscape:zoom="0.35"
     inkscape:cx="96.783835"
     inkscape:cy="49.642438"
     inkscape:document-units="px"
     inkscape:current-layer="layer1"
     showgrid="false"
     fit-margin-top="0"
     fit-margin-left="0"
     fit-margin-right="0"
     fit-margin-bottom="0"
     inkscape:window-width="981"
     inkscape:window-height="657"
     inkscape:window-x="457"
     inkscape:window-y="107"
     inkscape:window-maximized="0" />
  <metadata
     id="metadata7">
    <rdf:RDF>
      <cc:Work
         rdf:about="">
        <dc:format>image/svg+xml</dc:format>
        <dc:type
           rdf:resource="http://purl.org/dc/dcmitype/StillImage" />
        <dc:title></dc:title>
      </cc:Work>
    </rdf:RDF>
  </metadata>
  <g
     inkscape:label="Capa 1"
     inkscape:groupmode="layer"
     id="layer1"
     transform="translate(-253.21616,-369.50712)">
    <g
       id="g98"
       transform="matrix(1.25,0,0,-1.25,240.12891,967.161)">
      <g
         id="g100"
         clip-path="url(#clipPath102)">
        <g
           id="g106"
           transform="translate(180.4668,393.1221)">
          <path
             d="m 0,0 c 0,46.945 -38.055,85.001 -84.997,85.001 -46.944,0 -85,-38.056 -85,-85.001 0,-46.942 38.056,-84.997 85,-84.997 C -38.055,-84.997 0,-46.942 0,0"
             style="fill:#f6a100;fill-opacity:1;fill-rule:nonzero;stroke:none"
             id="path108"
             inkscape:connector-curvature="0" />
        </g>
        <g
           id="g110"
           transform="translate(180.4668,393.1221)">
          <path
             d="m 0,0 c 0,46.945 -38.055,85.001 -84.997,85.001 l 0,-169.998 C -38.055,-84.997 0,-46.942 0,0"
             style="fill:#ed9a00;fill-opacity:1;fill-rule:nonzero;stroke:none"
             id="path112"
             inkscape:connector-curvature="0" />
        </g>
      </g>
    </g>
    <g
       transform="matrix(1.25,0,0,-1.25,-520.99228,655.15734)"
       id="g34">
      <g
         id="g36"
         clip-path="url(#clipPath38)">
        <g
           id="g42"
           transform="translate(716.9785,95.041)">
          <path
             inkscape:connector-curvature="0"
             d="M 0,0 -12.15,-29.492 -24.893,0 l 0,27.295 L 0,27.295 0,0 z"
             style="fill:#d9a78c;fill-opacity:1;fill-rule:nonzero;stroke:none"
             id="path44" />
        </g>
        <g
           id="g46"
           transform="translate(692.0859,106.0703)">
          <path
             inkscape:connector-curvature="0"
             d="m 0,0 c 0,0 -26.688,-3.459 -30.184,-7.1 -3.044,-3.171 -9.371,-33.535 -10.835,-40.199 l 53.463,0 0,16.01 L 0,0 z"
             style="fill:#f1f2f2;fill-opacity:1;fill-rule:nonzero;stroke:none"
             id="path48" />
        </g>
        <g
           id="g50"
           transform="translate(716.9785,106.0703)">
          <path
             inkscape:connector-curvature="0"
             d="m 0,0 c 0,0 26.687,-3.459 30.182,-7.1 3.043,-3.171 9.371,-33.535 10.834,-40.199 l -53.464,0 0,16.01 L 0,0 z"
             style="fill:#e6e7e8;fill-opacity:1;fill-rule:nonzero;stroke:none"
             id="path52" />
        </g>
        <g
           id="g54"
           transform="translate(704.5313,200.4395)">
          <path
             inkscape:connector-curvature="0"
             d="m 0,0 c 12.086,0 31.199,-6.871 31.199,-39.067 0,-18.589 -6.06,-30.767 -8.701,-34.136 C 20.068,-76.303 6.409,-82.908 0,-82.908 L 0,0 z"
             style="fill:#eac0a7;fill-opacity:1;fill-rule:nonzero;stroke:none"
             id="path56" />
        </g>
        <g
           id="g58"
           transform="translate(741.7432,153.6953)">
          <path
             inkscape:connector-curvature="0"
             d="M 0,0 C 0.532,5.145 -1.918,9.709 -5.474,10.197 -9.03,10.686 -12.345,6.91 -12.878,1.766 -13.412,-3.377 -10.96,-7.941 -7.403,-8.43 -3.848,-8.916 -0.534,-5.143 0,0"
             style="fill:#eac0a7;fill-opacity:1;fill-rule:nonzero;stroke:none"
             id="path60" />
        </g>
        <g
           id="g62"
           transform="translate(704.5313,200.4395)">
          <path
             inkscape:connector-curvature="0"
             d="m 0,0 c -12.086,0 -31.199,-6.871 -31.199,-39.067 0,-18.589 6.06,-30.767 8.701,-34.136 2.43,-3.1 16.089,-9.705 22.498,-9.705 L 0,0 z"
             style="fill:#f2d7bc;fill-opacity:1;fill-rule:nonzero;stroke:none"
             id="path64" />
        </g>
        <g
           id="g66"
           transform="translate(667.3203,153.6953)">
          <path
             inkscape:connector-curvature="0"
             d="M 0,0 C -0.533,5.145 1.918,9.709 5.473,10.197 9.03,10.686 12.344,6.91 12.878,1.766 13.411,-3.377 10.959,-7.941 7.403,-8.43 3.848,-8.916 0.532,-5.143 0,0"
             style="fill:#f2d7bc;fill-opacity:1;fill-rule:nonzero;stroke:none"
             id="path68" />
        </g>
        <g
           id="g70"
           transform="translate(677.4863,153.1309)">
          <path
             inkscape:connector-curvature="0"
             d="m 0,0 2.154,0 c 0,0 -1.31,8.385 2.534,11.092 l 0,5.416 c 0,0 -1.486,0.174 -1.486,6.549 0,6.377 7.599,10.918 23.843,10.918 l 0,23.322 c 0,0 -32.111,-0.684 -32.111,-23.989 l 0,-22.566 c 0,0 2.343,0.416 4.017,-0.99 C 0.757,8.238 0,0 0,0"
             style="fill:#2f343a;fill-opacity:1;fill-rule:nonzero;stroke:none"
             id="path72" />
        </g>
        <g
           id="g74"
           transform="translate(731.5771,153.1309)">
          <path
             inkscape:connector-curvature="0"
             d="m 0,0 -2.154,0 c 0,0 1.309,8.385 -2.533,11.092 l 0,5.416 c 0,0 1.485,0.174 1.485,6.549 0,6.377 -7.599,10.918 -23.844,10.918 l 0,23.322 c 0,0 32.111,0.732 32.111,-22.572 l 0,-23.983 c 0,0 -2.342,0.416 -4.017,-0.99 C -0.757,8.238 0,0 0,0"
             style="fill:#2f343a;fill-opacity:1;fill-rule:nonzero;stroke:none"
             id="path76" />
        </g>
        <g
           id="g78"
           transform="translate(704.5313,74.7813)">
          <path
             inkscape:connector-curvature="0"
             d="M 0,0 -8.459,28.906 -11.582,15.879 0,0 z"
             style="fill:#a0b2be;fill-opacity:1;fill-rule:nonzero;stroke:none"
             id="path80" />
        </g>
        <g
           id="g82"
           transform="translate(691.7344,109.0625)">
          <path
             inkscape:connector-curvature="0"
             d="M 0,0 4.44,-5.771 1.215,-18.402 -5.606,-9.201 0,0 z"
             style="fill:#ffffff;fill-opacity:1;fill-rule:nonzero;stroke:none"
             id="path84" />
        </g>
        <g
           id="g86"
           transform="translate(704.5322,74.7813)">
          <path
             inkscape:connector-curvature="0"
             d="M 0,0 7.66,29.246 11.583,15.879 0,0 z"
             style="fill:#a0b2be;fill-opacity:1;fill-rule:nonzero;stroke:none"
             id="path88" />
        </g>
        <g
           id="g90"
           transform="translate(717.3281,109.0625)">
          <path
             inkscape:connector-curvature="0"
             d="M 0,0 -5.238,-5.43 -1.213,-18.402 6.199,-9.201 0,0 z"
             style="fill:#ffffff;fill-opacity:1;fill-rule:nonzero;stroke:none"
             id="path92" />
        </g>
        <g
           id="g94"
           transform="translate(704.5303,131.3984)">
          <path
             inkscape:connector-curvature="0"
             d="m 0,0 c 5.634,0 10.2,1.859 10.2,4.156 l -20.4,0 C -10.2,1.859 -5.634,0 0,0"
             style="fill:#ffffff;fill-opacity:1;fill-rule:nonzero;stroke:none"
             id="path96" />
        </g>
      </g>
    </g>
  </g>
</svg>
