<?xml version="1.0" encoding="UTF-8" standalone="no"?>
<svg
   xmlns:dc="http://purl.org/dc/elements/1.1/"
   xmlns:cc="http://creativecommons.org/ns#"
   xmlns:rdf="http://www.w3.org/1999/02/22-rdf-syntax-ns#"
   xmlns:svg="http://www.w3.org/2000/svg"
   xmlns="http://www.w3.org/2000/svg"
   xmlns:sodipodi="http://sodipodi.sourceforge.net/DTD/sodipodi-0.dtd"
   xmlns:inkscape="http://www.inkscape.org/namespaces/inkscape"
   width="331.008"
   height="277.22"
   id="svg2"
   version="1.1"
   inkscape:version="0.48.3.1 r9886"
   sodipodi:docname="lotus.svg">
                                                        <!--SVG CONFIG-->
   <!--#################################### Hi If you wanna change the properties of the lotus  ###############################-->
   <!--################################## you have to search for the tags of  flower , core and splash ###############################-->
   <!--####################################      and change the values of animation there       ###############################-->
  <metadata
     id="metadata14">
    <rdf:RDF>
      <cc:Work
         rdf:about="">
        <dc:format>image/svg+xml</dc:format>
        <dc:type
           rdf:resource="http://purl.org/dc/dcmitype/StillImage" />
      </cc:Work>
    </rdf:RDF>
  </metadata>
  <defs
     id="defs12" />
  <sodipodi:namedview
     pagecolor="#ffffff"
     bordercolor="#666666"
     borderopacity="1"
     objecttolerance="10"
     gridtolerance="10"
     guidetolerance="10"
     inkscape:pageopacity="0"
     inkscape:pageshadow="2"
     inkscape:window-width="1440"
     inkscape:window-height="850"
     id="namedview10"
     showgrid="false"
     inkscape:zoom="0.85130943"
     inkscape:cx="165.504"
     inkscape:cy="138.61"
     inkscape:window-x="0"
     inkscape:window-y="22"
     inkscape:window-maximized="1"
     inkscape:current-layer="svg2" />
  <path
     d="m 112.84,239.825 c 0.057,0.04 0.08,0.085 0.062,0.118 v 0.21 c 0.087,0.042 0.128,0.075 0.128,0.118 v 0.188 l 0.14,1.16 0.124,-0.064 v -0.735 l -0.063,-0.752 c -0.083,-0.23 -0.13,-0.43 -0.144,-0.61 l -0.245,-0.062 v 0.43 z m 97.185,-168.55 c -0.24,0.1 -0.5,0.17 -0.78,0.203 l -0.68,0.187 -0.294,1.073 c -0.968,0.812 -0.744,1.236 0.682,1.268 0.664,-0.405 1.312,-0.573 1.953,-0.49 0.207,-1.716 -0.084,-2.465 -0.88,-2.24 m -86.216,-21.373 0.12,-0.258 c 0.12,-0.462 0.255,-0.854 0.394,-1.174 v -1.024 c 0.16,-1.35 0.205,-2.433 0.133,-3.246 1.348,-3.135 1.69,-6.164 1.032,-9.09 -0.548,0.14 -0.98,0.355 -1.3,0.65 -1.764,4.213 -2.238,8.368 -1.424,12.454 v 2.205 h 0.393 l 0.65,-0.517 z m 19.97,2.465 c -0.243,-2.27 0.19,-3.865 1.3,-4.804 v -0.65 c -0.213,-0.793 -0.513,-1.443 -0.908,-1.946 -0.955,-0.043 -1.73,0.005 -2.338,0.133 l -0.12,0.396 c 0.097,0.855 0.056,1.63 -0.134,2.325 0.54,0.495 0.926,1.016 1.16,1.568 -0.273,1.282 0.036,2.273 0.92,2.98 h 0.12 -0.12 0.12 z m -43.068,2.2 c 0.074,-0.332 0.245,-0.5 0.515,-0.512 -0.343,-0.856 -0.778,-1.545 -1.296,-2.072 0.49,-0.02 0.922,0.067 1.297,0.257 l -0.136,-0.256 -1.81,-1.174 c 0.057,0.32 -0.07,0.584 -0.396,0.785 1.932,1.42 2.327,2.24 1.18,2.46 0.422,0.29 0.763,0.594 1.027,0.908 l -0.378,-0.395 z m 12.575,7.53 c -0.213,-0.833 -0.512,-1.528 -0.905,-2.08 l -0.255,-1.165 -0.257,-0.393 -0.26,-0.375 -0.133,-0.78 -0.256,-0.4 -0.393,-0.39 v -0.377 c -0.566,-0.705 -0.952,-1.484 -1.165,-2.34 -0.38,-0.293 -0.643,-0.593 -0.782,-0.907 -0.053,-0.39 -0.18,-0.692 -0.39,-0.906 -0.105,-0.933 -0.276,-1.714 -0.516,-2.34 0.03,-0.65 -0.057,-1.215 -0.26,-1.688 L 107.46,45.75 c -0.1,-0.13 -0.145,-0.26 -0.136,-0.39 v -0.392 c -0.1,-0.13 -0.144,-0.26 -0.132,-0.38 L 106.674,42.9 c -0.088,-1.467 -0.35,-2.684 -0.782,-3.636 v 0.51 c 0.222,0.504 0.308,0.984 0.273,1.437 v 1.949 l 0.12,2.85 0.13,0.39 0.516,2.073 0.262,0.394 0.267,1.296 c 0.09,0.13 0.132,0.264 0.12,0.393 l 0.26,0.392 v 0.39 c 0.097,0.084 0.145,0.17 0.134,0.26 l 0.906,2.07 0.26,0.526 0.25,0.65 0.395,0.648 0.255,0.516 0.14,0.51 0.256,0.532 0.253,0.39 c 0.26,0.434 0.437,0.82 0.53,1.164 0.14,0.11 0.226,0.24 0.257,0.393 l 0.26,0.257 0.133,0.253 0.392,0.907 0.255,0.258 0.77,1.43 z m -12.317,6.886 c 0.13,-0.098 0.257,-0.145 0.392,-0.134 0.308,-1.106 0.872,-1.885 1.675,-2.34 v -0.514 l -1.026,-0.392 c -0.544,-0.19 -1.02,-0.325 -1.43,-0.393 -0.495,-0.102 -0.93,-0.225 -1.3,-0.374 L 98.885,64.44 98.632,64.186 c -0.515,-0.706 -0.988,-1.23 -1.42,-1.57 -0.445,-0.413 -0.705,-0.326 -0.783,0.273 -0.263,3.168 1.252,5.2 4.543,6.094 M 97.725,80.53 c 0.32,-0.655 0.67,-1.167 1.04,-1.55 0.18,0.29 0.22,0.593 0.12,0.9 l 0.255,-0.25 h 3.642 c 0.102,-0.365 0.228,-0.67 0.387,-0.922 -0.866,-0.303 -1.555,-0.738 -2.08,-1.298 l 0.53,-0.12 c 0.29,-0.43 0.677,-0.65 1.16,-0.65 0.27,-0.837 0.92,-1.27 1.946,-1.297 2.026,-1.098 2.073,-1.272 0.14,-0.533 -1.147,0.785 -1.41,0.615 -0.79,-0.51 l -0.51,0.51 -0.27,0.135 c -0.805,0.214 -1.497,0.515 -2.07,0.908 -0.98,1.785 -2.012,2.778 -3.11,2.99 l -0.272,0.907 -0.12,0.78 z m -0.26,0.26 c -0.31,0.28 -0.395,0.54 -0.254,0.77 l 0.256,-0.77 z m -44.924,53.685 c -1.266,0.533 -1.81,1.453 -1.628,2.75 0.382,0.81 0.927,1.35 1.63,1.63 1.492,0.07 2.237,-0.575 2.237,-1.94 -0.096,-1.537 -0.843,-2.35 -2.24,-2.44 m 8.33,10.27 c -0.724,0.34 -1.124,0.845 -1.214,1.524 0.89,1.026 1.94,1.506 3.156,1.425 0.91,-0.2 0.877,-1.05 -0.112,-2.547 -0.67,-0.243 -1.28,-0.38 -1.83,-0.403 m 7.114,2.64 c -0.1,0.078 -0.202,0.114 -0.298,0.105 h -0.31 l -0.306,0.1 h -1.12 c -0.633,0.133 -1.174,0.17 -1.616,0.105 l -0.204,0.2 0.095,0.503 c 0.82,0.19 1.53,0.255 2.142,0.2 1.724,0.707 3.31,0.676 4.773,-0.097 v -0.4 c -0.254,-0.13 -0.46,-0.262 -0.608,-0.405 h -0.403 c -0.814,-0.24 -1.524,-0.342 -2.146,-0.31 m 9.782,2.035 c -0.034,0.29 -0.006,0.64 0.078,1.048 0.24,-0.373 0.212,-0.723 -0.078,-1.048 m 164.304,7.365 c -0.145,0.13 -0.29,0.254 -0.44,0.38 0.284,0.143 0.56,0.29 0.834,0.438 -0.03,-0.25 -0.16,-0.522 -0.394,-0.818 m 3.547,-3.866 c -0.477,0.645 -0.992,1.276 -1.537,1.884 0.74,0.215 1.285,0.036 1.65,-0.543 l 0.554,0.02 c -0.138,-0.56 -0.362,-1.014 -0.667,-1.36 m 4.91,-10.21 -0.246,0.774 c 0.755,0.27 0.836,0.01 0.247,-0.775 m 0.998,-3.574 c -0.146,0.59 -0.304,1.172 -0.46,1.754 0.072,0.208 0.117,0.435 0.126,0.688 0.21,0.125 0.312,0.063 0.324,-0.198 0.57,0.06 0.62,-0.27 0.16,-1 0.01,-0.32 0.112,-0.57 0.316,-0.74 -0.156,-0.16 -0.314,-0.33 -0.465,-0.504 m 2.83,-6.268 c 0.445,0.708 0.61,1.275 0.49,1.706 l 0.65,1.257 c 0.744,0.72 1.32,1.534 1.716,2.446 -0.523,-1.808 -0.55,-2.637 -0.095,-2.492 -0.52,-0.488 -0.894,-1.056 -1.143,-1.695 l -0.727,-1.02 c -0.226,0.23 -0.52,0.168 -0.89,-0.202 m -0.058,2.98 c 1.17,2.398 1.222,2.367 0.163,-0.1 l -0.163,0.1 0.163,-0.1 -0.163,0.1 z m -2.232,4.1 0.087,0.49 c 0.21,0.223 0.398,0.472 0.572,0.755 -0.02,-0.475 -0.24,-0.9 -0.66,-1.244 m 2.028,1.16 c 0.152,-0.284 0.074,-0.545 -0.26,-0.782 l 0.26,0.78 z m 3.957,1.08 0.155,0.443 c -0.448,0.078 -0.394,0.347 0.162,0.812 -0.172,0.278 -0.15,0.686 0.095,1.244 0.814,-0.746 0.68,-1.57 -0.413,-2.5 m 1.3,2.144 0.164,0.45 c 0.162,-0.21 0.106,-0.364 -0.163,-0.45 m -0.24,0.694 -0.41,0.053 c 0.32,1.33 0.455,1.313 0.41,-0.052 m 0.717,-0.082 -0.395,-0.112 c 0.202,0.59 0.33,0.634 0.395,0.112 m -16.105,10.537 c 0.867,0.472 1.73,0.623 2.573,0.438 -0.89,-0.556 -1.75,-0.707 -2.573,-0.437 m 13.783,-8.22 -0.064,0.432 c 0.79,0.56 0.812,0.418 0.065,-0.432 m -13.055,10.322 0.497,0.636 c 0.41,-0.206 0.238,-0.42 -0.497,-0.635 m 7.97,9.853 -0.125,-0.115 0.077,0.165 0.047,-0.05 z m 1.216,2.36 c 0.346,-0.25 0.284,-0.398 -0.165,-0.453 l 0.166,0.454 z m 16.995,-9.974 c 0.245,0.397 0.49,0.565 0.74,0.487 -0.226,-0.217 -0.473,-0.38 -0.74,-0.486 m -10.655,7.955 0.49,0.613 c -0.598,0.036 -0.728,0.422 -0.39,1.165 0.2,-0.527 0.592,-0.765 1.202,-0.73 -0.472,-0.907 -0.906,-1.248 -1.302,-1.05 m 11.717,-6.21 -0.73,-0.11 c 0.608,1.265 0.845,1.3 0.73,0.11 m -17.08,9.832 c -0.017,0.194 -0.09,0.304 -0.238,0.34 0.727,0.288 0.8,0.174 0.237,-0.34 m -0.063,2.783 c 0.06,-0.42 -0.112,-0.804 -0.487,-1.158 l 0.487,1.158 z m 15.958,-9.508 c 0.297,-0.124 0.234,-0.334 -0.17,-0.632 l 0.17,0.632 z m -10.35,6.098 c 0.074,0.546 0.34,0.992 0.817,1.34 -0.2,-0.434 -0.47,-0.892 -0.817,-1.34 m 7.386,-4.292 c 0.14,0.705 0.436,1.565 0.91,2.58 0.07,-0.814 -0.234,-1.68 -0.91,-2.58 m 1.85,0.515 c 0.407,0.635 0.544,0.62 0.41,-0.05 l -0.41,0.05 z m -13.37,10.165 c 0.1,0.49 0.234,0.89 0.41,1.213 0.67,0.23 0.826,-0.055 0.475,-0.843 -0.308,-0.334 -0.6,-0.45 -0.885,-0.37 m 11.255,-0.997 c 0.415,0.647 0.55,0.633 0.41,-0.05 l -0.41,0.05 z m 5.062,-1.975 c 1.38,1.882 1.515,1.866 0.407,-0.057 -0.15,0.073 -0.283,0.09 -0.407,0.058 m -3.916,4.227 c 0.27,0.544 0.54,0.99 0.814,1.336 -0.148,-0.585 -0.423,-1.036 -0.813,-1.335 m -0.96,1.678 c 0.342,1.266 0.964,1.997 1.88,2.173 0.13,-0.53 -0.064,-1.095 -0.574,-1.677 l -1.305,-0.497 z m 4.367,1.762 c 0.687,1.81 1.575,2.67 2.67,2.58 0.18,-0.61 -0.067,-1.26 -0.736,-1.945 -0.784,-0.436 -1.423,-0.655 -1.933,-0.635 m 4.262,-0.95 c 0.306,-0.34 0.135,-0.672 -0.493,-0.984 l 0.492,0.985 z m -4.96,4.124 0.245,0.59 0.41,0.85 2.59,4.268 c 0.304,0.763 0.662,1.476 1.07,2.12 l 0.077,-0.423 -0.493,-0.614 -0.158,-0.444 -0.243,-0.408 -0.25,-0.404 -0.158,-0.444 -0.242,-0.405 c -0.528,-0.832 -0.93,-1.564 -1.23,-2.185 -0.51,-1.25 -1.11,-2.297 -1.793,-3.142 l 0.173,0.64 z m 5.367,-2.906 c 0.64,-0.07 0.558,-0.375 -0.246,-0.96 l 0.247,0.96 z m 1.053,1.55 c 0.746,1.197 0.912,1.226 0.494,0.082 l -0.494,-0.08 z m 0.194,5.02 c 0.128,0.23 0.207,0.42 0.25,0.587 l 0.248,0.404 c 0.378,0.92 0.73,1.684 1.062,2.29 1.017,-0.89 0.493,-1.988 -1.56,-3.28 M 64.05,82.36 c 0.56,-1.182 0.356,-1.83 -0.615,-1.955 v 1.723 l 0.615,0.232 z m -22.278,6.62 c -1.088,-0.464 -1.946,-1.04 -2.578,-1.724 l -0.73,-0.363 c -1.563,-0.11 -2.868,-0.603 -3.92,-1.472 -0.373,0.096 -0.657,0.265 -0.84,0.498 -0.357,1.18 0.05,1.873 1.22,2.083 1.392,0.88 2.857,1.008 4.405,0.363 0.726,0.706 1.464,1.117 2.194,1.227 l 0.248,-0.61 z m 48.47,2.313 c 0.278,-0.32 0.482,-0.642 0.615,-0.974 l -0.248,-0.86 c -0.82,-1.204 -1.225,-2.43 -1.225,-3.68 -0.223,-0.417 -0.51,-0.697 -0.86,-0.84 -0.463,1.763 -0.26,3.316 0.61,4.65 0.035,0.646 0.2,1.22 0.496,1.703 h 0.61 z m -50.802,0.13 c -0.163,-0.58 -0.45,-0.954 -0.858,-1.104 -0.133,0.68 0.154,1.054 0.858,1.104 m 12.862,0.25 c 0.452,-0.305 0.774,-0.64 0.973,-0.99 l -0.116,-0.615 c -2.89,-1.984 -5.868,-2.47 -8.936,-1.457 l -0.375,0.846 c 1.25,0.253 2.234,0.704 2.94,1.354 h 1.34 l 0.994,0.25 c 1.1,0.44 2.162,0.644 3.178,0.61 m -3.31,2.43 c 0.42,-0.6 0.012,-1.13 -1.223,-1.584 -0.445,0.21 -0.53,0.53 -0.25,0.978 0.475,0.383 0.96,0.587 1.47,0.607 m -7.714,2.833 c -1.852,-1.007 -1.806,-1.413 0.135,-1.228 0.057,0.36 0.014,0.763 -0.134,1.228 m 18.12,0.61 c -1.706,0.112 -1.706,0.6 0,1.456 v -1.456 z m 18.85,1.84 c 0.254,-0.507 0.293,-1 0.115,-1.473 -0.47,-0.255 -0.916,-0.38 -1.334,-0.367 -1.076,1.05 -0.666,1.66 1.22,1.84 m -29.982,1.818 c 0.15,-0.473 0.15,-0.92 0,-1.336 -0.452,-0.36 -0.78,-0.716 -0.98,-1.1 l -0.377,-0.247 -0.235,-0.495 -0.38,-0.362 -0.23,-0.367 c -0.143,-0.085 -0.227,-0.17 -0.25,-0.25 -0.382,-0.27 -0.672,-0.514 -0.856,-0.724 l -0.25,-0.133 -0.12,-0.25 c -0.536,-0.418 -0.947,-0.865 -1.22,-1.34 l -0.864,-0.367 c -0.302,-0.778 -0.67,-1.393 -1.09,-1.833 -0.51,-0.167 -0.96,-0.21 -1.356,-0.133 0.498,1.194 1.27,2.006 2.334,2.446 l 0.112,0.25 1.347,2.45 0.49,0.25 0.367,0.362 c 0.275,0.388 0.48,0.71 0.61,0.976 l 0.367,0.135 c 0.282,0.315 0.49,0.643 0.607,0.97 0.545,0.334 0.95,0.7 1.23,1.096 h 0.744 z m 12.112,0 c 0.45,-0.62 0.33,-1.028 -0.364,-1.223 -0.518,0.55 -0.396,0.96 0.364,1.223 m -2.085,1.357 c 0.366,-0.323 0.615,-0.69 0.746,-1.108 -0.882,-0.716 -1.456,-0.6 -1.72,0.36 0.25,0.41 0.578,0.658 0.975,0.748 m 8.934,14.808 c 0.917,-0.437 1.78,-0.687 2.583,-0.742 l 0.117,-0.48 -0.25,-0.132 c -1.754,-0.322 -3.183,-0.44 -4.284,-0.367 -0.75,-0.152 -1.4,-0.152 -1.955,0 -0.023,0.4 0.017,0.72 0.12,0.978 0.59,0.01 1.084,-0.108 1.474,-0.362 0.626,0.74 1.36,1.105 2.194,1.105 m -14.81,0.123 c 0.883,-0.555 1.172,-1.29 0.86,-2.205 -2.214,-0.87 -3.4,-0.423 -3.554,1.34 0.882,0.62 1.78,0.903 2.695,0.865 m 12.725,1.585 c 0.3,-0.452 0.22,-0.695 -0.23,-0.73 -0.3,0.386 -0.22,0.628 0.23,0.73 m 3.674,3.672 c 0.958,-0.74 0.683,-1.145 -0.844,-1.226 -0.43,0.16 -0.63,0.445 -0.608,0.865 0.428,0.218 0.913,0.338 1.452,0.36 m 22.477,-17.765 0.13,-0.042 c -0.063,-0.017 -0.13,-0.04 -0.2,-0.064 l 0.07,0.105 z M 31.02,116.96 c 0.914,-1.04 1.26,-2.174 1.03,-3.41 l -0.37,0.186 -0.196,0.462 -0.91,2.033 c -0.165,0.52 -0.018,0.764 0.446,0.73 m 112.472,98.565 c -4.123,-3.51 -7.437,-7.426 -8.595,-12.61 -2.95,3.48 -5.663,5.918 -10.322,7.268 h 1.267 l 0.587,0.945 c 0.937,0.386 2.074,1.016 3.39,1.905 l 0.39,0.17 0.354,0.187 1.335,0.774 1.13,0.94 c 0.535,0.387 1.167,0.77 1.904,1.135 l 0.556,0.386 0.574,0.355 0.756,0.59 0.772,0.386 c -0.358,-0.776 -0.358,-1.66 0,-2.66 2.867,0.655 4.832,0.733 5.9,0.23 m -21.432,0.912 c 2.18,0.272 2.3,-0.104 0.386,-1.143 l -0.386,1.143 z m 83.28,6.817 c -0.178,0.133 -0.37,0.19 -0.548,0.17 -0.792,0.64 -1.545,1.086 -2.273,1.32 -2.035,1.46 -4.186,2.23 -6.434,2.304 l -0.772,1.128 c 0.106,0.643 0.3,1.207 0.577,1.68 0.98,0.152 1.857,0.152 2.65,0 l 0.755,-0.36 c 0.16,-0.198 0.36,-0.328 0.572,-0.384 l 0.36,-0.575 0.582,-0.202 c 0.13,-0.217 0.256,-0.34 0.39,-0.355 l 0.545,-0.388 c 0.617,-0.642 1.18,-1.086 1.716,-1.322 l 0.192,-0.395 c 0.922,-0.55 1.68,-1.115 2.272,-1.682 -0.04,-0.458 -0.234,-0.77 -0.583,-0.94 m -78.358,2.622 c 0.33,0.83 0.773,0.96 1.323,0.395 l -1.323,-0.395 z m 54.704,5.112 c 0.65,-0.162 0.714,-0.406 0.196,-0.75 l -0.196,0.75 z m -58.107,-0.546 c 0.11,0.81 0.29,0.81 0.554,0 h -0.555 z m 61.51,5.112 c -0.83,1.308 -0.51,2.12 0.964,2.46 0.553,-0.443 0.867,-1.018 0.94,-1.717 -0.63,-0.54 -1.263,-0.784 -1.905,-0.744 m -5.668,1.128 c 0.348,1.31 0.79,1.49 1.33,0.56 l -1.33,-0.56 z m 2.075,2.65 c 0.827,-0.036 0.827,-0.223 0,-0.573 v 0.575 z m 2.46,0.746 c 0.312,1.793 1.068,1.793 2.264,0 h -2.263 z m -57.528,0.39 c -0.56,0.44 -0.56,0.753 0,0.94 0.62,-0.254 1.117,-0.51 1.487,-0.745 l -1.488,-0.195 z m -2.296,0.554 c -1.472,0.83 -2.99,1.22 -4.535,1.162 -0.72,0.79 -0.653,1.415 0.195,1.874 1.7,-1.582 3.52,-2.462 5.474,-2.65 -0.373,-0.33 -0.748,-0.46 -1.136,-0.386 m 8.346,0.387 c 0.02,0.35 0.2,0.55 0.55,0.578 -0.02,-0.352 -0.2,-0.538 -0.55,-0.577 m -22.524,2.463 c 0.7,2.96 1.458,2.96 2.266,0 -0.52,-0.387 -0.952,-0.577 -1.32,-0.558 l -0.946,0.558 z m 74.775,-0.36 c -0.498,0.456 -0.753,0.953 -0.773,1.492 l 1.132,0.576 c 1.565,-0.974 1.442,-1.66 -0.36,-2.066 m -55.684,0.16 c -0.694,0.83 -0.63,1.53 0.2,2.104 1.16,0.347 2.048,0.15 2.653,-0.587 h -1.878 c 0.112,-0.807 -0.22,-1.306 -0.976,-1.516 m 3.24,1.716 c 0.61,0.444 0.92,0.31 0.94,-0.385 h -0.387 0.385 -0.386 l -0.555,0.385 z m -5.857,0.746 c -0.78,0.5 -0.91,0.944 -0.39,1.328 0.866,-0.11 1.432,-0.555 1.715,-1.328 h -1.326 z m -10.226,3.037 c -2.36,0.367 -3.745,1.5 -4.172,3.406 1.652,1.194 3.227,1.008 4.728,-0.56 0.62,0.173 1.13,0.173 1.516,0 -0.17,-0.44 -0.415,-0.696 -0.745,-0.77 0.047,-1.085 -0.386,-1.784 -1.326,-2.077 m 59.823,2.076 c 1.32,0.943 2.018,0.496 2.073,-1.332 h -1.714 l -0.36,1.33 z m -12.327,5.11 h -0.746 c 0.076,1.78 0.32,1.78 0.746,0 m 10.997,3.036 c 0.904,-0.018 0.96,-0.33 0.17,-0.932 l -0.17,0.932 z m 0.554,0.39 c -0.28,0.98 -0.018,1.48 0.777,1.515 0.444,-0.895 0.18,-1.405 -0.776,-1.514 m -53.58,0.355 c -0.656,1.055 -0.47,1.755 0.586,2.106 0.57,-0.426 0.82,-0.988 0.748,-1.717 l -1.333,-0.39 z m 63.81,0.974 c 2.09,2.187 4.486,3.52 7.172,3.977 v -0.77 l -0.358,-0.197 -0.384,-0.19 -0.19,-0.36 -1.52,-0.583 -0.358,-0.187 -0.386,-0.2 c -1.347,-0.812 -2.677,-1.31 -3.977,-1.49 m -73.448,4.34 c -0.387,0.506 -0.582,1.017 -0.582,1.518 1.16,0.52 1.8,0.196 1.902,-0.942 -0.363,-0.348 -0.81,-0.54 -1.32,-0.575 m 16.857,0.387 c -1.314,1.34 -1.57,2.8 -0.776,4.364 0.218,0.104 0.35,0.227 0.39,0.36 1.1,0.754 1.985,1.51 2.646,2.265 4.62,-1.397 4.246,-3.727 -1.128,-6.99 h -1.133 z m 17.01,3.78 c -0.25,0.63 -0.374,1.198 -0.358,1.718 1.665,1.196 2.35,0.755 2.077,-1.33 -0.623,-0.275 -1.198,-0.404 -1.72,-0.387 m -1.13,6.63 c 0.095,1.293 0.35,1.293 0.772,0 h -0.773 z m -80.888,-109.211 -0.076,0.242 c 0.58,0.418 0.28,0.8 -0.9,1.14 -0.908,0.175 -1.56,0.64 -1.955,1.383 0,1.492 0.677,2.442 2.034,2.845 1.29,0.803 2.566,0.99 3.82,0.568 l 0.17,-0.4 c 2.192,-1.06 2.602,-2.36 1.216,-3.91 0.095,-0.404 0.254,-0.756 0.49,-1.052 -0.325,-0.452 -0.68,-0.802 -1.06,-1.057 l -0.244,-0.082 H 66.8 l -0.16,-0.085 -1.46,-0.08 -1.305,0.49 z m 197.597,-59.033 c -0.28,0.388 -0.48,0.75 -0.608,1.08 0.025,0.834 0.092,1.534 0.2,2.098 l 0.062,1.282 0.273,0.145 c 0.025,-0.102 0.072,-0.17 0.14,-0.2 v -0.752 l -0.068,-0.272 v -0.265 l 0.07,-0.345 0.062,-0.53 v -0.41 l 0.072,-0.143 c 0.093,-0.61 0.138,-1.107 0.13,-1.485 -0.105,-0.162 -0.217,-0.297 -0.334,-0.406 v 0.2 z M 76.522,63.898 c -0.616,1.355 -0.196,2.076 1.274,2.15 0.51,-0.63 0.68,-1.29 0.524,-1.98 -0.69,-0.157 -1.29,-0.215 -1.8,-0.17 m 11.352,-9.56 c -1.597,0.898 -2.796,2.038 -3.6,3.425 0.032,3.238 1.36,5.098 3.975,5.586 1.412,-0.385 2.533,-1 3.36,-1.84 l -0.25,0.698 -0.196,0.51 0.635,-1.01 -0.26,0.377 0.437,-0.51 0.454,-0.76 V 60.44 c 0.453,-0.76 0.73,-1.655 0.853,-2.677 -0.16,-0.333 -0.32,-0.642 -0.5,-0.924 l 0.142,-0.567 -0.182,-1.073 -0.633,-0.812 -0.632,-1.192 -0.57,-0.06 -0.566,-0.516 -0.253,0.32 0.377,0.256 0.893,0.813 0.615,0.694 0.315,1.13 0.257,0.58 -0.018,0.044 c -1.136,-1.6 -2.687,-2.308 -4.654,-2.12 m -10.45,-6.5 c -0.43,3.135 0.84,4.7 3.8,4.7 1.11,-1.157 1.342,-2.422 0.697,-3.8 -1.093,-1.05 -2.295,-1.53 -3.6,-1.427 l -0.9,0.53 z m 53.874,-10.254 c -2.034,0.686 -3.054,2.01 -3.054,3.95 l 0.528,1.274 c 3.117,1.537 4.985,0.697 5.6,-2.528 -0.556,-1.55 -1.576,-2.45 -3.074,-2.696 m -21.98,-2.53 c -1.54,1.014 -2.2,2.334 -1.982,3.952 1.392,1.393 2.776,1.847 4.157,1.362 0.05,0.437 0.136,0.846 0.246,1.236 l -0.26,0.51 c -0.324,0.172 -0.152,0.565 0.51,1.18 -1.215,0.692 -1.3,1.295 -0.25,1.807 h 0.646 c 0.672,-0.74 1.457,-1.004 2.342,-0.782 -0.232,-0.517 -0.495,-0.944 -0.79,-1.298 l -0.768,-0.26 0.515,-0.252 c -0.08,-0.653 -0.035,-1.303 0.136,-1.947 h -0.39 c -0.434,0.564 -0.955,0.995 -1.556,1.298 l -0.134,-0.395 v -1.04 l 0.013,-0.155 c 0.512,-0.225 1.025,-0.578 1.537,-1.06 l 0.174,-1.624 c -0.558,-2.138 -1.934,-2.98 -4.145,-2.53 m 13.156,-16.036 c -1.04,0.607 -1.7,1.38 -1.978,2.332 2.854,5.64 5.854,5.706 9.005,0.194 l -0.353,-1.445 c -2.272,-0.982 -4.493,-1.344 -6.673,-1.082 m -20.715,-4.872 c -1.8,1.687 -1.745,3.185 0.174,4.504 0.95,1.96 2.337,2.748 4.152,2.348 0.953,-1.625 1.074,-3.24 0.353,-4.85 -1.476,-1.232 -3.036,-1.895 -4.68,-2.002 m -1.27,-9.006 c -1.428,2.034 -0.94,2.993 1.444,2.88 1.98,-1.597 1.5,-2.555 -1.446,-2.88 m 35.612,59.17 c -1.11,1.17 -2.7,1.556 -4.772,1.175 -0.813,0.53 -1.463,1.35 -1.947,2.458 -1.277,1.293 -1.513,2.71 -0.7,4.243 1.887,0.36 3.894,0.955 6.017,1.874 -0.243,-0.45 -0.5,-1.02 -0.77,-1.705 l -0.135,-0.26 -0.124,-0.39 c -0.34,0.078 -0.73,-0.006 -1.177,-0.26 V 70.93 c -0.04,-0.95 0.176,-1.95 0.65,-2.987 0.37,0.19 0.895,0.408 1.572,0.65 -0.273,0.442 -0.705,0.79 -1.3,1.038 l -0.138,0.38 c -0.11,1.56 0.325,1.91 1.298,1.045 -0.17,0.91 -0.102,1.924 0.2,3.04 3.504,1.528 7.328,3.938 11.485,7.618 -0.05,-0.68 0.204,-1.47 0.76,-2.362 h -2.355 c -0.338,-0.53 -0.853,-0.886 -1.552,-1.07 v -1.26 c 1.062,-0.307 1.587,-1.48 1.552,-3.504 l 0.11,-0.215 c -0.927,-1.34 -2.002,-2.64 -3.087,-3.942 -1.386,-0.122 -2.67,-0.847 -3.856,-2.178 -1.608,-0.98 -2.183,-1.935 -1.734,-2.87 m 0.808,-0.94 -0.127,0.03 -0.106,0.173 c 0.074,-0.068 0.15,-0.135 0.234,-0.202 M 112.012,1.19 c -0.92,0.51 -1.64,1.113 -2.15,1.8 -0.077,1.786 0.71,2.806 2.348,3.053 1.947,-0.465 2.845,-1.673 2.705,-3.6 -0.855,-0.922 -1.816,-1.342 -2.903,-1.253 m 34.295,51.385 c -2.272,0.925 -2.51,2.06 -0.726,3.426 l 0.355,0.354 c 1.714,0.555 3.096,1.22 4.15,1.995 0.97,0.058 1.87,-0.06 2.7,-0.37 1.644,-1.44 1.702,-2.937 0.18,-4.505 -2.406,-0.787 -4.628,-1.087 -6.658,-0.9 M 71.8,1.933 c -0.12,0.277 -0.055,0.277 0.192,0 H 71.8 z M 73.73,0 C 73.52,0.255 73.3,0.426 73.047,0.533 73.24,1.176 73.62,1.063 74.189,0.201 L 74.06,0 h -0.33 z m 168.35,83.32 c -2.146,1.986 -1.77,3.83 1.14,5.536 v 1.005 c -1.488,2.276 -1.065,3.884 1.262,4.834 1.757,-0.625 2.567,-1.813 2.423,-3.57 -0.1,-0.134 -0.145,-0.276 -0.134,-0.41 -0.173,-0.096 -0.27,-0.198 -0.295,-0.298 l -0.278,-0.41 -0.135,-0.438 -0.158,-0.415 -0.273,-0.432 c -0.243,-0.6 -0.39,-1.122 -0.44,-1.56 -0.156,-0.094 -0.25,-0.19 -0.273,-0.295 -0.245,-1.14 -0.52,-2.085 -0.846,-2.836 -0.703,-0.395 -1.37,-0.63 -1.99,-0.71 M 226.608,69.974 c -1.79,0.728 -1.98,1.625 -0.574,2.7 l 0.28,0.278 c 1.35,0.438 2.44,0.965 3.274,1.573 0.76,0.047 1.47,-0.048 2.125,-0.29 1.292,-1.134 1.34,-2.315 0.14,-3.55 -1.894,-0.62 -3.645,-0.858 -5.245,-0.71 M 180.76,225.33 c -0.485,1.07 -0.156,1.638 1,1.696 0.405,-0.496 0.54,-1.017 0.416,-1.56 -0.542,-0.126 -1.016,-0.17 -1.417,-0.137 m 123.216,33.73 c -12.71,4.824 -15.762,8.85 -9.177,12.07 1.32,0.178 2.464,0.178 3.427,0 l 0.963,-0.764 c 0.965,-0.59 1.86,-0.975 2.68,-1.148 l 0.967,-0.773 0.953,-0.186 c 0.656,-0.622 1.234,-1.076 1.726,-1.356 2.723,-0.62 4.9,-1.576 6.52,-2.87 0.824,-3.643 -1.864,-5.3 -8.06,-4.973 m -32.96,-5.747 c -2.16,0.73 -3.244,2.133 -3.244,4.202 l 0.56,1.355 c 3.313,1.633 5.3,0.74 5.953,-2.69 -0.59,-1.65 -1.676,-2.607 -3.27,-2.867 m -23.376,-2.69 c -1.636,1.078 -2.336,2.482 -2.106,4.202 2.122,2.12 4.226,2.194 6.33,0.216 l 0.185,-1.727 c -0.593,-2.275 -2.058,-3.165 -4.41,-2.69 m 38.14,-16.485 c -0.978,0.556 -1.743,1.193 -2.285,1.91 -0.095,1.915 0.73,3.007 2.47,3.27 2.074,-0.493 3.03,-1.77 2.88,-3.827 -0.894,-0.98 -1.914,-1.432 -3.065,-1.352 m 15.91,-8.618 c -2.898,2.676 -2.388,5.165 1.535,7.466 v 1.36 c -2.005,3.067 -1.434,5.238 1.707,6.518 2.372,-0.844 3.464,-2.445 3.268,-4.815 -0.135,-0.186 -0.198,-0.374 -0.18,-0.56 -0.236,-0.124 -0.37,-0.262 -0.403,-0.396 l -0.37,-0.558 -0.186,-0.59 -0.216,-0.558 -0.364,-0.583 c -0.325,-0.815 -0.526,-1.515 -0.594,-2.106 -0.214,-0.127 -0.34,-0.256 -0.37,-0.4 -0.33,-1.536 -0.7,-2.815 -1.144,-3.826 -0.946,-0.534 -1.848,-0.85 -2.682,-0.954 m -20.885,-18.012 c -2.414,0.98 -2.67,2.193 -0.773,3.645 l 0.375,0.372 c 1.827,0.59 3.295,1.3 4.418,2.124 1.03,0.06 1.986,-0.066 2.87,-0.395 1.746,-1.53 1.81,-3.125 0.192,-4.792 -2.557,-0.838 -4.92,-1.154 -7.082,-0.955 m -240.32,4.277 c -1.403,0.818 -2.294,1.858 -2.668,3.14 3.847,7.596 7.885,7.688 12.13,0.264 l -0.473,-1.95 c -3.06,-1.322 -6.052,-1.807 -8.99,-1.455 m 21.388,18.995 c -2.073,1.365 -2.96,3.143 -2.668,5.325 2.688,2.686 5.35,2.78 8.017,0.27 l 0.237,-2.19 c -0.75,-2.88 -2.608,-4.01 -5.585,-3.405 M 6.907,186.356 c -2.15,1.213 -3.765,2.75 -4.846,4.617 0.04,4.363 1.827,6.868 5.354,7.527 4.062,-1.112 6.325,-3.616 6.776,-7.527 -1.574,-3.393 -3.998,-4.928 -7.283,-4.617 M 15.9,231.04 c -16.103,6.108 -19.968,11.21 -11.626,15.29 1.678,0.224 3.12,0.224 4.345,0 l 1.22,-0.97 c 1.22,-0.75 2.356,-1.232 3.392,-1.456 l 1.227,-0.978 1.21,-0.232 c 0.825,-0.79 1.554,-1.365 2.18,-1.718 3.455,-0.787 6.21,-2 8.262,-3.636 1.042,-4.616 -2.362,-6.716 -10.21,-6.3 M 227.454,254 c -0.246,0.26 -0.4,0.543 -0.476,0.843 0.746,0 0.91,-0.282 0.475,-0.842 m 0.65,-4.157 c 0.605,0.162 0.664,-0.06 0.176,-0.652 l -0.176,0.653 z m 11.944,-2.964 c -0.23,0.458 -0.14,0.77 0.265,0.93 0.067,-0.422 -0.015,-0.73 -0.266,-0.93 m -4.175,-2.97 c -0.15,0.495 -0.17,0.924 -0.088,1.3 1.224,0.408 1.382,-0.03 0.457,-1.3 h -0.37 z m 13.054,-3.98 c -0.09,0.36 -0.12,0.67 -0.09,0.928 0.665,0.983 0.91,0.768 0.737,-0.65 -0.233,-0.198 -0.447,-0.297 -0.648,-0.28 m -22.32,-0.08 c 0.347,0.56 0.63,0.56 0.845,0 h -0.844 z m 21.41,-1.02 c 0,0.573 0.08,0.573 0.26,0 h -0.26 z m 2.4,-0.09 c -0.176,0.207 -0.265,0.385 -0.28,0.54 1.02,0.043 1.116,-0.134 0.28,-0.54 m -10.283,-0.39 c 0.102,0.678 0.2,0.678 0.282,0 h -0.283 z m -28.05,-3.702 c -0.17,0.54 -0.023,0.85 0.46,0.93 0.153,-0.213 0.22,-0.456 0.19,-0.73 l -0.65,-0.2 z m -1.66,-1.922 c -0.32,0.365 -0.483,0.726 -0.483,1.1 0.865,0.38 1.155,0.037 0.85,-1.02 l -0.368,-0.08 z m 10.363,-3.9 c -0.473,0.54 -0.298,0.88 0.54,1.02 0.545,-0.635 0.367,-0.976 -0.54,-1.02 m -15.558,-1.013 c 0.923,-0.33 0.923,-0.64 0,-0.93 v 0.93 z m 57.957,-17.145 c -1.26,1.13 -0.24,1.56 3.046,1.303 1.286,-0.407 2.1,-0.032 2.433,1.12 0.396,-0.312 0.7,-0.655 0.905,-1.034 0.91,-0.27 1.376,-0.574 1.406,-0.908 h -0.28 c -0.796,-0.117 -1.44,-0.153 -1.95,-0.112 -0.705,0.247 -1.324,0.247 -1.86,0 -0.898,0.247 -1.664,0.162 -2.315,-0.258 h -0.258 c -0.465,-0.088 -0.843,-0.126 -1.128,-0.11 m 3.326,-6.553 c 0.24,0.37 0.356,0.708 0.374,1.01 0.447,0.105 0.79,0.32 1.016,0.653 -0.2,0.36 -0.5,0.54 -0.905,0.54 0.405,1.083 0.124,1.578 -0.845,1.497 v -0.93 c 1.124,-1.227 0.907,-2.003 -0.65,-2.32 l -0.37,0.28 c -0.028,0.622 -0.123,1.147 -0.28,1.56 0.52,0.208 0.895,0.52 1.124,0.93 -0.096,0.547 -0.29,1.012 -0.56,1.39 0.374,0.272 0.645,0.552 0.816,0.84 h 0.113 -0.114 0.2 c 0.79,0.158 1.5,0.098 2.12,-0.19 0.55,0.303 0.983,0.583 1.3,0.843 2.638,0.575 3.745,0.237 3.334,-1.022 l -0.178,-0.086 c -0.82,-0.637 -1.568,-1.034 -2.223,-1.214 -0.755,-1.44 -1.775,-2.46 -3.055,-3.05 -0.348,-0.41 -0.723,-0.723 -1.13,-0.93 l -0.09,0.2 z m -1.66,-3.25 c -0.162,1.403 0.305,2.076 1.38,2.04 l 0.113,-0.37 c -0.56,-0.723 -1.066,-1.28 -1.494,-1.67 m -2.32,-3.893 c -0.05,0.636 0.104,0.754 0.48,0.37 l -0.48,-0.37 z m -9.264,-1.214 c -1.32,1.34 -1.167,1.53 0.48,0.564 -0.015,-0.334 -0.172,-0.52 -0.48,-0.564 m 6.863,-2.486 0.367,0.56 c 0.61,0.546 1.045,1.13 1.303,1.75 l 0.56,0.176 c -0.27,-1.6 -1.084,-2.71 -2.423,-3.33 l 0.193,0.844 z m -40.763,18.12 c -0.512,0.014 -1.036,0.023 -1.57,0.023 -13.258,0.042 -13.82,-4.903 -20.236,-7.19 -1.09,4.22 -3.31,7.79 -6.115,10.887 1.32,0.43 2.166,1.373 2.535,2.846 -0.335,0.457 -0.71,0.764 -1.114,0.92 0.42,0.42 0.786,0.957 1.094,1.62 -0.267,2.29 -1.59,3.752 -3.967,4.404 -2.06,-0.386 -3.106,-1.85 -3.13,-4.404 0.55,-0.946 1.332,-1.747 2.348,-2.406 -0.21,-0.03 -0.416,-0.08 -0.63,-0.136 -3.596,3.232 -7.74,5.924 -11.63,8.347 0.885,0.236 1.894,0.42 3.025,0.546 -0.718,0.21 -1.484,0.587 -2.275,1.137 l -0.548,0.195 c -0.056,0.122 -0.188,0.246 -0.385,0.36 0.7,1.32 1.073,2.903 1.132,4.752 0.462,0.314 0.837,0.18 1.13,-0.387 l 0.776,-0.198 v 0.748 c -0.7,0.386 -1.143,1.027 -1.323,1.905 l -0.387,0.198 0.546,0.384 c -0.402,1.33 -0.526,2.96 -0.355,4.915 l -0.19,0.743 c 1.18,0.227 2.622,0.293 4.327,0.2 h 0.59 l 0.583,0.19 0.547,-0.19 0.774,0.19 c 0.642,-0.104 1.34,-0.104 2.075,0 h 2.652 c 0.678,0.092 1.5,0.027 2.462,-0.19 l 0.542,0.745 c -0.837,0.186 -1.847,0.246 -3.005,0.198 h -7.766 c -0.905,-0.134 -1.98,-0.067 -3.236,0.19 h -0.94 c -0.012,0.13 0.044,0.254 0.198,0.385 -0.22,0.52 -0.282,1.076 -0.2,1.69 1.405,0.16 2.858,0.048 4.368,-0.36 h 0.558 l 0.574,0.19 c -0.757,0.52 -1.698,0.763 -2.84,0.746 -0.734,0.405 -1.554,0.47 -2.46,0.198 l -0.747,2.462 -2.46,1.878 c 0.347,0.68 0.602,1.497 0.744,2.46 l -1.13,0.192 c -2.574,-1.972 -3.215,-1.024 -1.906,2.845 -2.205,-1.737 -4.038,-1.36 -5.47,1.13 -0.29,0.624 -0.425,1.32 -0.385,2.078 -1.435,1.298 -1.125,2.63 0.942,3.98 2.132,0.177 3.583,0.997 4.355,2.45 v 0.97 l -0.187,0.36 c -0.755,0.99 -1.773,1.812 -3.04,2.463 -0.808,-0.385 -1.818,-0.707 -3.016,-0.943 -0.405,-0.427 -1.037,-0.868 -1.904,-1.33 l -0.36,-0.36 -0.573,-0.385 c 0.29,-1.84 -0.02,-3.67 -0.945,-5.5 l -0.772,-0.19 c -0.133,0.907 -0.634,1.473 -1.52,1.71 -0.595,-0.99 -1.03,-2.253 -1.3,-3.783 -0.794,-0.2 -1.746,-0.2 -2.85,0 0.35,0.35 0.98,0.725 1.887,1.13 v 1.333 c -0.67,0.386 -1.358,0.386 -2.075,0 -2.987,3.772 -4.94,2.826 -5.856,-2.85 -0.615,0.98 -0.932,2.18 -0.972,3.592 -0.585,1.416 -0.84,0.86 -0.745,-1.684 l 0.385,-1.52 c -1.934,-0.463 -2.32,0.99 -1.16,4.338 -0.093,1.007 -0.47,2.03 -1.133,3.037 -0.792,-0.462 -1.235,-1.47 -1.33,-3.036 1.482,-2.323 1.67,-4.894 0.587,-7.734 h -0.588 c -0.62,0.404 -1.255,1.03 -1.876,1.876 -0.64,0.463 -1.462,0.905 -2.46,1.33 l -0.19,0.388 -0.586,0.19 -0.355,0.555 c -0.22,0.055 -0.416,0.18 -0.578,0.386 -1.073,0.175 -2.273,0.622 -3.593,1.32 -0.133,0.038 -0.264,0.17 -0.387,0.385 h -1.518 c -0.17,-0.827 -0.228,-1.904 -0.17,-3.225 0.444,-1.52 0.444,-3.15 0,-4.922 l 0.36,-0.744 v -0.776 c -0.278,-0.11 -0.52,-0.294 -0.745,-0.556 0.885,0.058 1.894,-0.132 3.036,-0.575 l 0.17,0.746 c -1.125,1.026 -1.566,2.49 -1.33,4.365 -0.425,0.885 -0.538,1.83 -0.36,2.85 0.54,0.42 1.095,0.478 1.69,0.188 l 0.19,-1.718 c 0.885,-0.045 1.584,-0.49 2.1,-1.32 l 1.69,0.388 c 0.425,-0.54 0.677,-1.172 0.772,-1.907 -0.557,0.087 -1.055,0.284 -1.518,0.575 0.37,-0.95 0.546,-2.09 0.546,-3.42 l 0.2,-0.36 0.964,-2.264 c 0.07,-0.426 0.262,-0.936 0.555,-1.527 l 0.185,-1.322 -0.186,-0.773 c -2.565,2.76 -4.265,3.46 -5.114,2.094 -1.235,-0.955 -1.68,-2.35 -1.33,-4.17 -0.527,0.405 -0.847,0.34 -0.932,-0.19 0.77,-0.632 1.337,-1.517 1.707,-2.66 -1.668,-0.31 -3.51,-0.112 -5.5,0.585 l -0.575,-0.195 c 1.087,-0.51 2.54,-1.024 4.37,-1.52 l 0.384,-0.386 c 0.18,0.02 0.365,-0.04 0.546,-0.163 l 0.584,-0.197 0.36,-0.387 c -0.368,-0.697 -1,-1.327 -1.876,-1.876 l -0.2,-0.97 c -3.074,1.113 -3.763,0.858 -2.074,-0.747 0.762,0.038 1.642,-0.03 2.66,-0.188 -0.15,-0.367 -0.22,-0.745 -0.2,-1.132 l -0.186,-0.942 c -2.05,0.29 -4.198,0.105 -6.444,-0.584 0.06,-0.51 0.302,-1.083 0.747,-1.708 h 1.904 c 1.425,0.482 3,0.426 4.726,-0.17 l -0.387,-0.774 c -0.64,0.17 -1.206,-0.02 -1.68,-0.546 2.387,0.856 3.396,0.047 3.01,-2.463 -2.065,-1.1 -3.576,-2.685 -4.538,-4.75 1.31,0.386 2.764,1.08 4.37,2.1 h 0.742 c 0.795,-0.924 1.425,-2.13 1.887,-3.622 -1.12,-1.25 -2.638,-2.32 -4.535,-3.204 -0.273,-0.276 -0.65,-0.53 -1.13,-0.75 -0.37,-0.42 -0.813,-0.74 -1.333,-0.967 -0.66,-0.587 -1.545,-1.15 -2.647,-1.68 l -1.52,-0.974 -0.356,-0.16 -0.588,-0.387 c -0.53,0.123 -1.172,0.123 -1.908,0 l -0.128,-0.933 c -1.28,0.325 -2.7,0.57 -4.304,0.74 -0.083,0.226 -0.183,0.46 -0.293,0.69 -0.076,0.274 -0.12,0.62 -0.12,1.035 -0.193,0.043 -0.314,0.166 -0.37,0.39 h -0.385 c -0.065,0.39 -0.065,0.863 0,1.404 v 0.69 l -0.183,0.793 -0.06,0.117 -0.183,0.756 v 0.18 l -0.064,0.125 -0.062,0.246 -0.06,0.367 -0.36,0.75 -0.063,0.127 -0.064,0.118 c -0.056,0.497 -0.242,0.998 -0.57,1.483 l -0.116,0.795 c -0.195,0.165 -0.314,0.385 -0.37,0.67 -0.123,-0.04 -0.22,-0.02 -0.305,0.064 -0.08,0.34 -0.243,0.645 -0.485,0.93 0,0.42 -0.083,0.875 -0.25,1.37 l -0.116,0.726 -0.064,0.123 c 0.012,0.285 -0.035,0.64 -0.145,1.055 l -0.245,0.433 c 0,0.385 0.135,0.783 0.39,1.178 0.04,0.188 0.04,0.39 0,0.61 -0.175,0.334 -0.35,0.794 -0.508,1.362 l -0.06,0.18 v 0.187 l -0.127,0.118 v 0.178 l -0.078,0.136 c 0.78,0.804 1.32,1.847 1.63,3.133 -0.605,1.338 -1.558,2.6 -2.85,3.78 l -0.935,1.134 -0.855,1.054 v 0.08 c -0.27,0.272 -0.492,0.63 -0.675,1.065 l -0.178,0.79 -0.065,0.182 -0.18,0.695 -0.06,0.118 -0.066,0.305 c -0.062,0.166 -0.165,0.326 -0.305,0.49 l -0.055,0.12 -0.064,0.125 c 0,0.186 -0.048,0.396 -0.145,0.632 l -0.118,0.18 c -0.168,0.013 -0.305,-0.067 -0.428,-0.24 0.164,-0.4 0.22,-0.83 0.186,-1.307 0.415,-0.577 0.56,-1.232 0.443,-1.972 -0.343,0.41 -0.623,0.9 -0.843,1.475 -1.296,-0.126 -1.043,-0.9 0.764,-2.32 0.05,-0.154 0.112,-0.322 0.182,-0.5 v -0.584 h -2.262 c -0.18,-0.19 -0.348,-0.377 -0.503,-0.565 l -0.006,0.036 c -0.214,0.203 -0.435,0.49 -0.665,0.856 l -0.06,0.12 -0.39,0.242 c -0.03,-0.104 -0.09,-0.208 -0.18,-0.298 -0.854,0.743 -1.45,1.75 -1.79,3.025 l -0.306,0.126 -0.43,1.425 v 0.244 l -0.058,0.116 v 0.188 l -0.126,0.24 v 0.182 c -0.214,0.242 -0.337,0.578 -0.367,0.998 -0.188,0.12 -0.3,0.31 -0.325,0.55 0.262,0.27 0.45,0.624 0.57,1.055 -0.16,0.18 -0.41,0.383 -0.753,0.61 l -0.062,0.126 c 0.625,0.485 1.43,0.8 2.422,0.935 0.215,0.146 0.5,0.295 0.857,0.425 0.267,0.27 0.47,0.64 0.61,1.098 -0.516,-0.217 -1.01,-0.563 -1.468,-1.034 l -0.388,-0.307 -0.178,-0.06 c -0.314,-0.192 -0.704,-0.323 -1.16,-0.39 -0.557,-0.175 -0.807,0 -0.757,0.512 l -0.183,0.18 c -0.282,0.014 -0.526,0.16 -0.728,0.43 l -0.368,0.056 -0.083,0.495 -0.245,0.118 c -0.11,0.243 -0.166,0.533 -0.18,0.873 l -0.126,0.127 -0.064,0.117 -0.055,0.25 -0.06,0.42 -0.126,0.696 v 0.18 c -0.104,0.285 -0.168,0.614 -0.183,0.98 l -0.06,0.14 v 0.185 l -0.06,0.12 c 0.026,1.18 -0.383,1.843 -1.245,1.974 -0.23,0.236 -0.535,0.375 -0.91,0.43 -0.18,-0.03 -0.345,-0.11 -0.514,-0.24 -0.21,-0.83 -0.08,-1.55 0.392,-2.163 0.013,-0.24 0.075,-0.534 0.18,-0.875 v -0.18 l 0.063,-0.37 0.062,-0.18 0.06,-0.304 0.245,-0.324 c 0.11,-0.2 0.21,-0.465 0.305,-0.792 l 0.305,-0.188 0.118,-0.61 c 0.126,0.013 0.26,-0.006 0.39,-0.056 v -1.547 l -0.695,-1.055 -0.056,-0.127 -0.854,-0.484 -0.452,-0.243 -0.12,-0.124 -0.185,-0.085 -0.18,-0.064 -0.18,-0.116 -0.188,-0.124 c -0.13,-0.2 -0.34,-0.38 -0.61,-0.55 -0.315,-0.525 -0.808,-0.84 -1.49,-0.935 0,-0.145 -0.018,-0.326 -0.052,-0.55 -1.72,0.884 -2.364,2.223 -1.92,4.008 v 0.873 l -0.178,0.555 c -0.813,0.8 -1.72,1.006 -2.728,0.626 -0.118,-0.372 -0.16,-0.813 -0.118,-1.297 0.216,-0.344 0.416,-0.794 0.61,-1.362 l 0.446,-0.55 0.124,-0.184 c 0.104,-0.135 0.206,-0.33 0.305,-0.57 l 0.182,-0.12 c 0.124,-0.18 0.243,-0.38 0.367,-0.61 0.13,-0.14 0.277,-0.343 0.422,-0.61 0.155,-0.113 0.298,-0.26 0.452,-0.453 l 0.056,-0.36 c -0.014,-0.355 -0.138,-0.722 -0.384,-1.104 -0.352,-0.16 -0.76,-0.27 -1.22,-0.326 -0.17,-0.104 -0.41,-0.19 -0.692,-0.242 l -0.244,-0.055 -1.035,-0.063 -0.186,-0.064 -0.875,-0.978 c -0.01,-0.042 -0.05,-0.083 -0.12,-0.14 l 0.12,-0.428 c 1.06,-0.886 1.08,-1.905 0.06,-3.07 -0.028,-0.174 -0.048,-0.386 -0.06,-0.63 l 0.935,0.123 c 0.286,0.08 0.632,0.12 1.042,0.12 l 0.18,0.062 h 0.182 c 0.248,0.055 0.54,0.075 0.876,0.06 h 0.246 c 0.16,-0.012 0.32,0.006 0.488,0.063 h 0.178 l 0.245,0.118 h 0.263 l 0.25,0.145 0.36,0.058 0.916,0.736 0.085,0.126 0.37,0.056 c 0.514,-0.627 0.82,-1.342 0.907,-2.153 -0.046,-0.258 -0.15,-0.55 -0.298,-0.874 -1.726,-1.064 -1.85,-2.354 -0.37,-3.89 0.165,0.14 0.37,0.183 0.61,0.126 0.176,-0.14 0.32,-0.318 0.43,-0.55 0.05,-1.06 -0.316,-1.553 -1.1,-1.483 l -0.18,-0.192 c -0.013,-0.182 0.006,-0.426 0.052,-0.726 0.153,-0.174 0.273,-0.386 0.368,-0.63 0.802,-0.673 1.177,-1.598 1.12,-2.76 l 0.24,-0.573 c 0.2,-0.122 0.4,-0.306 0.612,-0.546 1.077,0.034 1.875,-0.483 2.404,-1.55 -0.03,-0.486 -0.315,-0.83 -0.854,-1.033 l -0.245,-0.45 -0.122,-0.98 c 0.095,-0.32 0.075,-0.672 -0.063,-1.054 0.11,-0.417 0.09,-0.87 -0.056,-1.34 -0.056,-0.208 -0.077,-0.438 -0.064,-0.696 l 0.064,-0.367 c 0.133,-0.215 0.28,-0.478 0.424,-0.792 l 0.61,-0.935 0.062,-0.117 0.118,-0.065 0.126,-0.24 0.126,-0.183 0.137,-0.122 0.366,-0.695 0.118,-0.244 c 0.153,-0.655 0.478,-1.326 0.98,-2.035 0.225,-1.225 0.776,-2.37 1.658,-3.435 -3.03,-1.11 -6.137,-2.102 -10.873,-1.874 -0.043,0.118 -0.103,0.242 -0.178,0.37 -1.23,1.835 -2.05,1.788 -2.465,-0.13 -1.142,0.147 -2.373,0.354 -3.7,0.643 -0.625,-2.856 -1.078,-5.884 -1.376,-8.95 -0.658,0.01 -1.318,-0.107 -1.976,-0.345 l -0.16,0.084 c -0.328,0.243 -0.653,0.59 -0.978,1.055 0.04,0.7 0.31,1.465 0.81,2.278 l 0.168,0.727 c -0.197,0.31 -0.465,0.664 -0.818,1.063 l -0.16,0.158 -0.084,0.245 -0.16,0.084 c -0.286,1.08 -0.993,1.818 -2.117,2.2 v 0.074 -0.075 0.074 c -0.756,0.084 -1.494,0.356 -2.193,0.812 -0.257,0.014 -0.556,0.07 -0.897,0.168 -2.986,-0.41 -4.58,-2.034 -4.804,-4.88 0.356,-0.328 0.85,-0.626 1.466,-0.895 l 0.57,-0.33 c 0.013,-0.226 -0.09,-0.422 -0.317,-0.565 l -0.656,-0.164 c -1.397,0.148 -2.785,-0.26 -4.153,-1.22 -0.026,-0.23 -0.103,-0.506 -0.24,-0.81 l -0.486,-0.17 c -0.707,0.085 -1.39,0.356 -2.034,0.816 -0.15,0.014 -0.315,0.067 -0.493,0.164 -0.173,0 -0.36,0.03 -0.568,0.076 -0.516,0.018 -1.14,-0.06 -1.87,-0.24 -1.465,0.042 -2.846,-0.417 -4.153,-1.383 -2.3,-0.954 -2.76,-2.66 -1.38,-5.124 0.445,-0.204 0.854,-0.527 1.222,-0.98 l 0.567,-0.16 0.162,-0.242 c -0.516,-1.292 -0.404,-2.59 0.324,-3.908 0.423,0.328 0.77,0.244 1.055,-0.244 0.11,-0.325 0.084,-0.706 -0.075,-1.137 l -1.306,-0.17 h -0.244 l -0.16,-0.075 h -0.25 l -0.405,-0.08 h -0.539 l -1.057,0.484 -1.39,0.243 -0.245,0.08 c -0.16,0.042 -0.38,0.07 -0.65,0.085 l -0.158,0.083 -0.412,0.078 h -0.24 l -0.245,0.083 h -0.243 c -0.423,-0.097 -0.938,-0.256 -1.547,-0.486 h -0.244 l -0.33,-0.08 h -0.24 l -0.24,-0.085 -0.572,-0.16 h -0.245 c -0.256,-0.245 -0.61,-0.514 -1.063,-0.814 l -0.158,-0.083 c -0.3,-0.272 -0.68,-0.485 -1.14,-0.653 l -0.165,-0.16 -0.16,-0.08 -0.244,-0.16 c -0.013,-0.056 -0.07,-0.112 -0.164,-0.17 -0.286,-0.416 -0.585,-0.985 -0.896,-1.707 l -0.08,-0.16 -0.164,-0.165 -0.16,-0.244 c -0.14,-0.126 -0.27,-0.283 -0.41,-0.485 l -0.157,-0.17 -0.17,-0.242 -0.16,-0.157 -0.08,-0.327 -0.16,-0.41 c -0.015,-0.882 0.414,-1.557 1.296,-2.033 1.235,-2.98 3.57,-4.824 6.998,-5.535 1.263,-0.117 2.535,0.098 3.823,0.656 1.91,-0.37 3.457,0.228 4.64,1.79 1.665,1.548 2.045,3.284 1.137,5.205 l 0.083,0.41 c 0.502,0.016 1.043,-0.096 1.624,-0.326 l 0.9,-0.654 0.567,-0.483 0.243,-0.17 0.245,-0.16 0.65,-0.164 c 1.154,0.15 2.262,-0.12 3.34,-0.814 l 1.457,-0.158 h 0.894 c 0.34,-0.26 0.778,-0.508 1.304,-0.738 0.447,-0.084 0.99,-0.104 1.627,-0.084 h 0.495 l 0.32,-0.076 h 0.978 c 0.77,0.34 1.635,0.528 2.6,0.57 0.297,0.39 0.74,0.58 1.307,0.57 0.445,-0.195 0.873,-0.515 1.3,-0.98 l 0.565,-0.325 c 0.215,-0.042 0.488,-0.117 0.813,-0.244 0.18,-0.026 0.37,-0.082 0.57,-0.16 l 0.326,-0.082 0.654,-0.244 c 0.083,0.014 0.16,-0.014 0.243,-0.08 l 0.653,-0.085 h 0.485 c 0.25,-0.956 0.525,-1.844 0.834,-2.647 2.937,-7.71 4.786,-8.282 7.18,-12.422 -1.9,-0.662 -3.54,-1.714 -4.985,-3.074 -0.008,0.344 -0.048,0.714 -0.11,1.103 l -0.33,-0.415 c 0.042,-0.502 -0.03,-0.952 -0.218,-1.35 -0.557,-0.59 -1.087,-1.22 -1.586,-1.902 0.03,0.2 0.072,0.42 0.14,0.658 0.1,0.564 0.156,1.293 0.165,2.178 -0.01,0.072 0.02,0.142 0.08,0.2 v 1.978 c -0.053,0.206 -0.08,0.486 -0.08,0.836 l -0.253,0.31 -0.246,-0.622 v -0.31 l -0.1,-0.214 -0.166,-0.83 c 0.007,-0.103 -0.015,-0.206 -0.08,-0.31 0.007,-0.104 -0.02,-0.208 -0.086,-0.31 l -0.08,-0.413 c 0.007,-0.105 -0.02,-0.206 -0.085,-0.312 0.015,-0.425 -0.068,-0.847 -0.25,-1.247 v -0.83 c 0.07,-0.457 0.097,-1.004 0.08,-1.66 -0.04,-0.242 -0.108,-0.52 -0.2,-0.83 l -0.27,-0.444 0.137,0.86 0.087,0.308 v 0.31 c -0.31,0.825 -0.448,1.8 -0.42,2.917 l -0.082,0.203 c -0.063,-0.017 -0.117,-0.084 -0.165,-0.202 -0.106,-0.49 -0.187,-1.116 -0.252,-1.88 l -0.08,-1.547 c 0.01,-0.11 -0.02,-0.215 -0.085,-0.32 -0.386,-2.265 -0.753,-2.41 -1.093,-0.414 l 0.167,1.663 v 1.14 c 0.45,1.625 0.286,3.22 -0.5,4.783 -0.74,-1.478 -0.712,-3.07 0.082,-4.783 0.018,-0.465 -0.012,-1.023 -0.08,-1.664 -0.2,0.07 -0.452,0.243 -0.752,0.523 l -0.17,0.106 c -0.307,1.563 -0.334,3.468 -0.08,5.708 -0.008,0.073 0.018,0.142 0.08,0.205 v 0.83 c -0.115,0.915 -0.45,1.816 -0.995,2.702 l -0.43,-0.31 c -0.064,-0.53 -0.064,-1.152 0,-1.866 v -0.73 c 0.054,-0.21 0.08,-0.697 0.08,-1.462 l 0.087,-0.308 v -1.24 c -0.033,-0.3 -0.116,-0.65 -0.25,-1.046 -0.066,3.126 -1.068,5.826 -3.01,8.104 -0.106,-1.122 0.09,-2.298 0.58,-3.535 l 0.098,-0.62 c 0.465,-0.313 0.857,-0.798 1.166,-1.448 l 0.166,-1.664 0.08,-0.204 c 0.026,-0.848 -0.192,-1.646 -0.662,-2.39 -0.088,-0.452 -0.255,-0.906 -0.503,-1.357 -0.006,-0.59 -0.118,-1.28 -0.343,-2.07 -0.21,1.645 -0.908,2.893 -2.077,3.733 -1.814,1.697 -2.4,1.39 -1.763,-0.924 l 0.25,-0.525 c 0.142,-0.71 0.45,-1.334 0.927,-1.87 l 0.082,-0.312 0.17,-0.21 c 0.1,-0.517 0.353,-1.038 0.748,-1.562 l 0.083,-0.416 0.165,-0.09 0.083,-0.423 c -2.108,2.075 -2.945,2.143 -2.508,0.206 0.087,-0.35 0.255,-0.728 0.498,-1.142 0.605,-0.266 1.16,-0.718 1.68,-1.345 0.055,0.008 0.11,-0.03 0.164,-0.105 l 0.497,-0.417 c -0.482,-1.39 -0.26,-2.67 0.667,-3.843 -0.283,-0.507 -0.727,-0.96 -1.33,-1.345 l -0.835,-2.187 v -0.314 l -0.26,-0.31 -0.085,-0.307 c -0.45,-0.152 -0.73,-0.533 -0.833,-1.14 1.055,-0.544 1.973,0.255 2.762,2.39 0.555,1.758 1.582,3.04 3.093,3.842 l 0.677,0.725 0.415,-0.11 0.005,-0.04 c -2.508,-7.17 -4.415,-15.457 -7.36,-22.614 -0.423,0.075 -0.864,0.204 -1.32,0.394 l -0.84,-0.25 0.48,-0.727 c 0.462,-0.017 0.916,-0.087 1.35,-0.215 -0.22,-0.517 -0.45,-1.025 -0.683,-1.53 -0.142,0.085 -0.286,0.17 -0.426,0.27 -0.99,-0.063 -1.89,0.26 -2.694,0.98 -0.938,-0.06 -1.757,0.268 -2.45,0.973 -0.838,0.18 -1.573,0.63 -2.2,1.358 l -1.953,-0.25 -0.25,-0.128 2.2,-1.706 c 1.182,0.377 2.2,0.13 3.062,-0.745 0.894,-0.046 1.63,-0.452 2.198,-1.222 0.734,-0.043 1.357,-0.328 1.87,-0.858 l -0.33,-0.64 c 0.57,-0.19 1.13,-0.396 1.672,-0.624 -0.995,-1.598 -2.56,-2.565 -4.68,-2.892 -0.97,-0.844 -2.197,-1.25 -3.676,-1.228 l -0.232,-1.09 c 0.195,-0.2 0.44,-0.327 0.727,-0.383 1.174,0.52 2.515,0.683 4.042,0.496 0.344,0.693 0.915,1.14 1.723,1.338 0.604,-0.395 0.76,-0.962 0.477,-1.7 -0.573,-0.43 -1.308,-0.718 -2.2,-0.864 -0.373,-0.373 -0.867,-0.74 -1.477,-1.106 l -0.23,-0.233 -0.498,-0.25 -0.495,-0.245 -0.48,-0.115 -0.493,-0.384 c -0.23,-0.337 -0.56,-0.62 -0.98,-0.84 -0.74,0.023 -1.51,-0.147 -2.316,-0.497 -0.472,0.025 -1.008,-0.063 -1.607,-0.247 -0.927,-0.81 -2.106,-1.42 -3.54,-1.838 l -0.612,-0.48 -0.25,-0.137 -0.36,-0.227 c -0.576,0.056 -1.273,-0.023 -2.09,-0.25 -0.25,-0.43 -0.333,-0.955 -0.243,-1.59 0.43,-0.205 0.883,-0.29 1.357,-0.245 0.925,1.338 2.15,1.902 3.67,1.706 1.05,0.297 1.944,-0.07 2.682,-1.093 l 0.858,0.116 h 0.367 c 0.527,0.84 0.86,1.857 0.99,3.062 0.543,0.24 1.232,0.446 2.072,0.613 1.22,0.895 2.734,1.35 4.53,1.358 -0.096,-0.752 -0.47,-1.447 -1.108,-2.084 -0.09,-0.656 -0.366,-1.31 -0.84,-1.97 0.128,-1.678 1.152,-1.393 3.062,0.857 l 0.228,0.98 1.11,0.383 c 1.507,-0.192 1.224,-1.052 -0.858,-2.58 0,-0.348 0.077,-0.673 0.242,-0.978 h 0.863 c 0.717,1.59 1.857,2.08 3.422,1.468 l -0.36,-0.858 c -0.93,-0.31 -1.825,-0.837 -2.702,-1.587 -0.05,-0.785 -0.46,-1.395 -1.224,-1.835 -0.22,-0.5 -0.59,-0.905 -1.11,-1.227 -0.16,-0.617 -0.607,-1.028 -1.337,-1.225 -0.135,-0.44 -0.42,-0.847 -0.86,-1.225 l 0.25,-0.73 c 0.372,-0.096 0.862,-0.096 1.467,0 l 0.48,0.37 c 0.244,0.76 0.737,1.41 1.477,1.954 0.38,0.7 1,1.313 1.835,1.833 l 0.727,1.107 c 0.882,-0.2 1.823,-0.157 2.832,0.12 0.38,0.693 1.034,1.1 1.95,1.22 0.44,0.42 1.052,0.744 1.836,0.976 0.21,-0.428 0.21,-0.92 0,-1.476 0.364,-0.684 0.32,-1.415 -0.135,-2.196 V 97.17 l 0.5,-0.36 0.862,0.36 c 0,0.773 0.204,1.546 0.61,2.33 l 0.12,0.73 0.128,0.248 h 0.61 c 0.94,-0.983 1.016,-2.04 0.232,-3.18 v -0.857 l 0.384,-0.73 c 1.006,0.115 1.734,0.723 2.203,1.838 l 0.72,0.23 c 0.46,-1.564 1.19,-2.457 2.206,-2.675 0.32,0.336 0.57,0.783 0.744,1.338 v 1.338 c -0.554,1.26 -0.515,2.563 0.112,3.927 0.61,-0.96 1.427,-1.37 2.452,-1.227 0.95,-0.473 1.726,-0.145 2.317,0.977 0.332,1.135 -0.235,1.63 -1.706,1.474 -0.08,0.784 -0.258,1.344 -0.53,1.68 1.583,-0.43 3.288,-0.695 5.157,-0.73 -0.534,-0.36 -1.175,-0.64 -1.926,-0.836 l -0.25,-0.36 1.34,-0.25 c 0.5,0.405 1.112,0.655 1.837,0.74 1.002,-0.038 1.957,0.276 2.865,0.942 l 0.215,0.034 c 0.192,-1.165 0.51,-1.9 0.96,-2.2 0.576,0.91 0.635,1.71 0.177,2.39 1.145,0.208 2.344,0.49 3.605,0.864 -2.772,-7.456 -1.045,-15.26 0.267,-23.03 l -0.354,-0.343 c 0.16,-0.815 0.42,-1.602 0.784,-2.366 0.297,-1.993 0.527,-3.984 0.61,-5.96 0.71,0.405 1.552,0.517 2.526,0.45 -0.466,-0.334 -0.995,-0.653 -1.596,-0.95 l -0.25,-0.398 -0.383,-0.117 c -0.28,-0.254 -0.627,-0.517 -1.042,-0.785 l -0.258,-0.395 -0.39,-0.255 c -0.16,-0.634 -0.462,-1.325 -0.903,-2.07 l -0.273,-1.042 c 0.425,-0.063 0.685,-0.32 0.782,-0.782 -0.186,-0.366 -0.315,-0.797 -0.387,-1.3 -0.486,-0.44 -1.048,-1.09 -1.693,-1.945 -3.543,-1.424 -6.176,-4.056 -7.907,-7.91 -0.093,-0.8 -0.006,-1.707 0.257,-2.737 v -0.377 l 0.135,-0.256 c 0.504,0.01 0.972,0.27 1.417,0.772 1.126,2.175 2.817,4.077 5.073,5.704 l 0.65,0.79 0.252,0.118 0.257,0.135 c 0.718,1.108 1.753,2.106 3.115,2.988 0.388,0.424 0.904,0.816 1.548,1.166 l 0.276,0.133 c 0.39,0.42 0.953,0.813 1.673,1.164 0.252,0.392 0.64,0.78 1.18,1.165 0.714,1 1.702,1.828 2.97,2.473 1.13,0.41 1.69,0.237 1.69,-0.533 -0.25,-0.216 -0.504,-0.517 -0.766,-0.902 -0.15,-1.064 -0.582,-2.235 -1.298,-3.502 -0.134,-0.262 -0.35,-0.562 -0.65,-0.907 l -0.135,-0.394 c 0.406,0.402 0.792,0.922 1.16,1.558 l 0.277,0.132 c 0.37,1.17 1.143,2.12 2.322,2.857 0.41,-0.784 0.72,-1.827 0.92,-3.114 l 0.12,-0.39 0.53,-2.21 0.375,-1.29 c 0.202,-0.465 0.33,-0.944 0.392,-1.44 l 0.135,-0.375 0.123,-2.08 v -0.394 l 0.526,-1.692 c 0.357,-0.564 0.744,-1.338 1.167,-2.327 l 0.65,-0.78 0.254,-0.126 c 0.066,0.706 0.024,1.57 -0.118,2.584 v 0.92 l 0.12,0.258 v 0.908 l 0.134,0.392 0.26,0.908 c -0.01,0.086 0.034,0.174 0.133,0.252 v 1.297 c -3.54,4.975 -2.506,8.352 3.11,10.13 -0.19,-1.085 -0.105,-2.295 0.26,-3.637 l 0.132,-1.04 V 62.75 c -1.098,-1.72 -0.796,-3.407 0.91,-5.057 0.748,0.182 1.57,0.568 2.454,1.16 l 0.53,-0.253 c 0.04,-0.62 -0.05,-1.266 -0.272,-1.946 l -0.117,-0.908 v -1.43 l 0.258,-1.048 c 0.66,-0.732 1.524,-1.253 2.59,-1.55 l 0.65,-0.65 c 0.072,-0.4 0.24,-0.877 0.516,-1.423 l 0.26,-1.04 0.272,-0.26 c 0.12,-0.246 0.242,-0.596 0.375,-1.04 l 0.137,-0.39 0.646,-0.26 c 0.14,0.358 0.355,0.7 0.65,1.044 0.104,0.584 0.355,1.234 0.772,1.945 l 0.267,0.258 0.65,0.65 0.65,1.165 c -0.013,1.322 -0.4,2.622 -1.178,3.893 l 0.135,0.394 1.95,0.784 0.257,0.118 c 2.23,-0.11 4.05,0.845 5.446,2.854 v 0.65 c -0.62,0.413 -1.098,0.978 -1.433,1.69 0.782,1.69 1.002,3.51 0.65,5.453 l -0.122,-0.025 c -0.01,0.512 -0.15,0.995 -0.43,1.45 l -0.128,0.048 c 2.795,1.458 5.632,3.023 8.772,5.402 l 0.152,-0.04 0.288,-0.09 c -0.208,-0.947 -0.208,-2.017 0,-3.213 0.034,-0.274 0,-0.6 -0.093,-0.97 v -0.39 c -1.526,-0.374 -2.397,-1.245 -2.63,-2.63 -1.327,-0.906 -1.94,-1.976 -1.842,-3.202 l 0.582,-0.494 c 3.238,0.133 3.827,-0.29 1.752,-1.26 l -0.1,-0.49 c 0.52,-0.34 0.936,-0.822 1.26,-1.46 0.182,-0.044 0.44,-0.076 0.782,-0.094 0.255,0.31 0.487,0.698 0.68,1.163 1.427,0.473 2.4,0.116 2.92,-1.07 0.714,-0.21 1.07,-0.757 1.07,-1.654 0.227,-0.787 0.257,-1.733 0.092,-2.82 V 54.45 l -0.19,-0.58 c -0.442,-0.32 -0.957,-0.552 -1.56,-0.68 l -0.192,-0.1 c -0.207,-0.355 -0.53,-0.68 -0.972,-0.97 -0.23,-0.42 -0.58,-0.78 -1.07,-1.07 -0.18,-0.306 -0.473,-0.595 -0.878,-0.877 -0.276,-0.418 -0.698,-0.808 -1.265,-1.164 -0.138,-0.2 -0.338,-0.36 -0.578,-0.49 v -0.584 c 0.68,-0.403 0.836,-0.986 0.48,-1.75 l 0.2,-0.288 c 1.41,0.32 2.446,1.425 3.11,3.302 0.456,0.13 1.04,0.2 1.75,0.2 l 0.294,0.09 0.29,0.1 c 0.097,0.198 0.257,0.423 0.488,0.68 0.408,2.174 1.39,3.253 2.933,3.23 -2.41,-13.77 -8.783,-25.16 -20.09,-33.59 16.244,3.573 27.364,12.57 31.185,29.31 l 0.075,0.078 0.097,0.29 c 0.433,0.225 0.855,0.585 1.264,1.07 0.015,0.068 0.083,0.136 0.19,0.19 l 0.2,0.393 c 0.208,0.184 0.44,0.408 0.68,0.683 h 0.68 c 0.324,-0.515 0.645,-1.23 0.97,-2.135 0.05,-0.342 0.018,-0.728 -0.097,-1.17 v -3.892 c -0.483,-0.325 -0.774,-0.78 -0.873,-1.36 0.78,-0.513 1.1,-1.328 0.97,-2.432 h 1.263 c 0.15,0.646 0.537,1.2 1.17,1.652 -0.033,0.34 0,0.73 0.1,1.168 v 2.432 c -0.03,0.258 0,0.515 0.09,0.782 v 0.48 c -0.074,0.572 -0.04,1.253 0.1,2.04 v 0.3 l 0.2,0.29 c 1.02,0.095 1.766,-0.354 2.23,-1.36 1.345,-0.017 2.416,-0.764 3.214,-2.242 0.275,0.052 0.562,0.183 0.87,0.39 0.283,1.835 0.116,3.712 -0.48,5.645 l -0.098,0.58 -0.1,0.684 v 0.29 c 0.37,0.032 0.794,-0.035 1.27,-0.193 0.594,0.358 1.31,0.58 2.13,0.683 0.3,-0.233 0.556,-0.558 0.78,-0.972 l 0.293,-0.097 0.487,-0.583 0.098,-0.3 0.094,-0.19 c 0.065,-0.017 0.13,-0.08 0.197,-0.19 h 0.483 -0.094 0.194 -0.1 0.1 c 0.34,0.48 0.83,0.97 1.46,1.453 v 0.39 c -0.665,0.715 -1.22,1.652 -1.654,2.82 l -0.2,0.393 c 0,0.55 0.17,1.103 0.493,1.65 l 0.29,1.36 0.097,0.49 c 0.292,0.242 0.648,0.408 1.074,0.483 0.516,-0.14 0.902,-0.466 1.16,-0.974 0.2,-0.05 0.392,-0.14 0.59,-0.29 1.65,0.118 2.132,1.123 1.455,3.014 0.296,0.283 0.71,0.604 1.27,0.97 0.24,1.206 0.172,2.5 -0.2,3.895 -0.144,0.03 -0.31,0.1 -0.48,0.2 -1.206,-0.41 -2.175,-0.12 -2.924,0.868 h -0.78 c -1.485,-1.502 -2.266,-1.21 -2.33,0.882 1.252,0.788 2.414,0.63 3.5,-0.49 h 0.684 c 0.18,0.24 0.437,0.53 0.778,0.87 l 1.35,-0.06 c 0.885,-0.125 1.767,-0.202 2.634,-0.236 l -0.32,0.256 0.128,0.04 h 0.39 c 0.432,0.2 0.888,0.558 1.362,1.07 0.546,0.168 1.194,0.168 1.943,0 h 1.17 l 0.58,0.202 c 0.306,0.453 0.762,0.902 1.36,1.358 l 0.2,0.194 v 0.288 l -0.49,0.49 -0.68,0.1 h -0.97 l -0.683,-0.1 h -0.29 l -0.297,0.1 h -1.36 c -0.276,-0.083 -0.6,-0.117 -0.974,-0.1 h -2.218 c -0.623,0.067 -1.138,0.39 -1.56,0.97 -0.474,-0.065 -1.02,-0.032 -1.653,0.1 h -0.386 l -0.193,0.1 h -0.569 c -1.713,1.95 -2.896,3.942 -3.496,6.238 0.255,0.228 0.54,0.45 0.853,0.668 0.27,0.454 0.626,0.862 1.062,1.216 1.515,-0.922 3.012,-1.742 4.502,-2.47 -1.653,0.005 -1.947,-0.755 -0.88,-2.28 2.15,0.236 2.63,0.904 1.455,2 2.056,-0.976 4.096,-1.777 6.127,-2.427 -0.148,-0.344 -0.213,-0.77 -0.19,-1.267 0.4,-0.543 0.97,-1.016 1.697,-1.42 0.855,-0.07 1.61,0.262 2.286,0.99 0.016,0.232 0.01,0.45 -0.01,0.658 7.715,-1.78 15.37,-1.52 23.447,-0.436 2.667,12.553 5.168,22.63 2.61,29.083 11.587,-1.727 19.205,0.968 26.442,8.825 -0.755,1.18 -1.406,2.436 -1.974,3.75 l 0.01,0.004 0.29,0.184 0.386,0.104 1.255,0.288 h 0.29 l 1.355,0.39 0.19,0.085 0.283,0.1 1.156,0.68 c 0.18,0.135 0.442,0.29 0.775,0.476 l 0.29,0.1 0.186,0.102 0.29,0.185 0.19,0.185 0.284,0.205 1.36,0.473 h 0.283 c 2.104,2.227 4.667,2.705 7.698,1.44 0.12,-0.25 0.32,-0.505 0.59,-0.756 0.387,-0.08 0.8,-0.245 1.24,-0.494 -0.05,-0.375 0.085,-0.695 0.386,-0.95 1.087,1.402 2.627,2.2 4.63,2.407 1.052,0.776 2.33,1.03 3.847,0.76 0.16,0.185 0.317,0.445 0.47,0.778 -1.305,2.763 1.073,3.56 7.142,2.41 l 0.182,0.66 c -1.56,0.483 -2.007,1.61 -1.34,3.37 l -0.283,0.393 c -1.2,-0.07 -2.038,0.412 -2.514,1.44 -0.902,0.586 -1.225,1.523 -0.965,2.796 0.237,0.363 0.6,0.744 1.072,1.15 l 0.184,0.29 c 0.37,0.19 0.82,0.514 1.354,0.964 l 0.185,0.104 c 0.25,0.283 0.575,0.505 0.966,0.66 0.024,0.068 0.087,0.138 0.19,0.203 0.16,0.1 0.332,0.2 0.517,0.286 l 0.098,-0.058 c 0.314,0.042 0.67,0.02 1.084,-0.075 0.257,0.016 0.504,0.106 0.75,0.27 v 0.15 -0.15 0.15 c -0.13,0.077 -0.274,0.148 -0.423,0.2 l 0.277,0.195 0.778,0.473 0.293,0.185 0.284,0.104 0.285,0.184 0.766,0.597 1.46,0.575 0.182,0.084 0.293,0.103 0.285,0.098 0.185,0.19 0.386,0.19 c 0.394,0.536 0.942,0.93 1.655,1.168 0.19,0.215 0.44,0.406 0.76,0.57 l 0.202,0.19 c 0.382,0.195 0.864,0.348 1.442,0.477 l 0.076,0.2 0.208,0.09 0.286,0.096 0.58,0.39 0.187,0.105 0.487,0.086 c 0.028,0.064 0.09,0.134 0.185,0.203 l 0.19,0.185 1.064,0.58 0.397,0.185 0.187,0.098 0.184,0.19 c 0.282,0.11 0.572,0.28 0.86,0.49 l 2.222,0.865 0.292,0.185 0.286,0.103 c 0.18,0.1 0.41,0.26 0.677,0.476 l 0.292,0.103 0.67,0.282 1.256,0.966 0.19,0.105 0.674,0.575 0.184,0.188 c 0.437,0.216 0.98,0.378 1.652,0.492 0.37,0.45 0.885,0.864 1.535,1.24 0.342,0.288 0.757,0.514 1.24,0.676 l 0.106,0.203 c 0.29,0.068 0.61,0.19 0.964,0.37 l 0.68,0.286 1.437,0.87 0.184,0.097 0.11,0.202 0.28,0.193 0.19,0.185 0.206,0.097 0.37,0.104 0.303,0.185 0.29,0.103 0.29,0.185 0.28,0.29 0.292,0.1 0.377,0.19 c 0.335,0.266 0.782,0.555 1.354,0.86 l 0.862,0.78 c 1.334,0.206 2.074,0.62 2.22,1.256 0.33,0.1 0.745,0.2 1.255,0.284 l 0.477,0.476 h -0.97 c -0.543,-0.49 -1.25,-0.804 -2.117,-0.966 -0.113,-0.337 -0.343,-0.625 -0.673,-0.864 -0.582,-0.068 -1.126,-0.358 -1.636,-0.86 -0.77,-0.14 -1.54,-0.493 -2.3,-1.07 l -0.304,-0.086 -0.185,-0.205 c -0.2,-0.034 -0.458,-0.127 -0.765,-0.29 l -1.536,-0.948 -0.29,-0.1 -0.29,-0.102 -0.49,-0.184 -1.44,-0.492 -0.584,-0.477 c -0.447,-0.292 -1.02,-0.52 -1.72,-0.674 -0.66,-0.59 -1.496,-1.07 -2.51,-1.442 -0.18,-0.15 -0.41,-0.274 -0.677,-0.393 -0.415,-0.38 -0.998,-0.732 -1.733,-1.046 l -0.185,-0.104 -0.39,-0.185 -0.287,-0.29 -0.285,-0.202 c -0.343,-0.068 -0.724,-0.224 -1.155,-0.474 l -2.034,-1.255 -0.29,-0.1 c -0.18,-0.102 -0.37,-0.26 -0.57,-0.477 l -0.376,-0.185 -0.31,-0.205 c -0.223,-0.157 -0.514,-0.288 -0.862,-0.387 l -0.285,-0.287 -0.376,-0.185 -0.284,-0.292 -0.392,-0.288 c -0.27,-0.143 -0.655,-0.305 -1.155,-0.473 l -0.203,-0.205 c -0.627,-0.104 -1.36,-0.104 -2.2,0 h -1.258 c -0.29,-0.137 -0.65,-0.196 -1.064,-0.185 h -1.052 c -0.454,-0.034 -1.004,0 -1.643,0.098 -0.34,0.07 -0.76,0.102 -1.258,0.087 h -0.366 c -1.1,-0.44 -2.067,-1.207 -2.9,-2.307 -0.542,-0.1 -1.12,-0.034 -1.73,0.192 -0.295,0.05 -0.675,0.088 -1.15,0.1 -0.44,-0.452 -1.02,-0.74 -1.73,-0.864 -0.652,-1.515 -1.945,-2.064 -3.864,-1.644 -0.115,0.337 -0.172,0.698 -0.183,1.065 -0.38,0.298 -0.696,0.715 -0.97,1.256 0.122,3.523 1.475,6.7 4.05,9.53 0.08,0.37 0.237,0.787 0.475,1.25 -0.036,1.085 -0.515,1.727 -1.44,1.93 -0.274,-0.215 -0.563,-0.508 -0.86,-0.878 l -0.21,-0.087 -0.08,-0.204 -0.205,-0.185 -0.288,-0.286 c -0.13,-0.463 -0.38,-0.94 -0.766,-1.44 v -0.39 l -0.104,-0.29 -0.08,-0.288 c -0.19,-0.145 -0.423,-0.276 -0.675,-0.388 -0.14,-0.46 -0.4,-0.942 -0.782,-1.438 -0.224,-1.2 -0.838,-2.262 -1.835,-3.187 -0.016,-0.057 -0.04,-0.112 -0.07,-0.172 -1.34,0.04 -2.694,-0.395 -4.07,-1.306 -2.838,0.485 -4.025,-0.438 -3.563,-2.745 1.404,0.32 2.905,0.344 4.507,0.06 0.376,0.126 0.832,0.196 1.37,0.21 l -0.184,-0.37 -0.104,-0.39 c -0.014,-0.066 -0.076,-0.13 -0.19,-0.19 -0.076,-0.55 -0.304,-1.16 -0.674,-1.826 l -0.473,-0.576 c -1.146,-0.608 -2.65,-0.903 -4.525,-0.883 -0.16,-0.047 -0.328,-0.1 -0.495,-0.17 -0.168,0.383 -0.255,0.798 -0.27,1.254 l -1.206,0.728 c -0.653,-0.732 -1.043,-1.555 -1.167,-2.485 l -0.05,0.013 h -0.663 c -0.065,-0.01 -0.134,0.018 -0.204,0.082 h -1.335 l -0.97,-0.29 c -0.62,-0.752 -0.875,-1.71 -0.778,-2.878 1.338,-1.447 1.79,-2.952 1.354,-4.524 0.035,-1.03 -0.416,-1.798 -1.353,-2.32 -0.982,-2.205 -2.747,-3.487 -5.287,-3.848 l -0.104,-0.392 c -0.392,-0.01 -0.874,-0.103 -1.44,-0.283 l -0.36,-0.02 c -0.536,2.003 -0.994,4.07 -1.432,6.166 l 0.17,-0.02 c 0.342,1.498 0.256,1.643 -0.255,0.416 l -0.11,0.513 0.054,-0.004 c 0.55,0.874 0.462,1.227 -0.233,1.053 l -0.025,-0.062 c -0.26,1.243 -0.518,2.49 -0.79,3.733 l 0.27,0.15 c 0.207,0.336 0.43,0.75 0.652,1.24 -0.358,-0.425 -0.7,-0.736 -1.025,-0.937 -0.103,0.465 -0.21,0.93 -0.322,1.392 0.2,0.24 0.41,0.48 0.634,0.728 l 0.57,0.936 c 0.18,0.556 0.472,1.164 0.888,1.82 l 0.26,0.42 c -0.018,-0.444 0.142,-0.42 0.483,0.07 l 0.567,0.935 c 0.245,0.404 0.565,0.756 0.97,1.056 -0.106,-0.626 -0.44,-1.287 -0.985,-1.974 0.14,-0.176 0.347,-0.302 0.647,-0.392 -1.662,-1.56 -2.26,-2.958 -1.795,-4.21 0.667,0.855 1.315,1.922 1.945,3.207 l 0.492,0.995 c -0.11,-0.756 -0.41,-1.615 -0.898,-2.58 0.35,0.228 0.76,0.59 1.21,1.1 l -0.088,-0.33 c -0.275,-0.8 -0.706,-1.82 -1.302,-3.052 0.347,0.54 0.772,1.008 1.285,1.406 l 0.244,0.408 c 0.244,0.715 0.62,1.4 1.16,2.067 l 0.237,-0.14 c -0.34,-0.95 -0.367,-1.97 -0.11,-3.067 l -0.083,-0.504 0.153,-0.283 0.005,-1.262 0.068,-0.427 c 0.034,-0.19 0.03,-0.426 -0.005,-0.735 l 0.162,-0.266 0.158,-0.286 c 0.58,0.896 0.694,1.865 0.346,2.92 0.202,0.262 0.472,0.58 0.802,0.962 l 0.02,0.734 c -0.143,0.294 -0.193,0.69 -0.16,1.19 -0.06,0.016 -0.087,0.104 -0.075,0.244 l -0.086,0.21 c 0.386,0.762 0.686,0.887 0.896,0.395 l 0.483,0.256 c 0.82,1.08 1.522,1.314 2.094,0.734 0.495,0.513 0.553,1.096 0.17,1.735 l 1.295,-0.247 c 0.295,0.468 0.342,0.983 0.167,1.552 0.582,-0.117 1.288,0.064 2.09,0.56 -0.647,0.546 -0.805,1.496 -0.46,2.838 0.044,1.26 0.694,1.968 1.953,2.137 0.047,1.34 1.154,2.323 3.316,2.93 l 0.398,0.655 -0.314,0.386 c -1.686,-1.24 -2.92,-1.47 -3.71,-0.682 l -0.39,0.434 c 0.95,0.807 1.84,1.986 2.674,3.507 0.386,0.204 0.758,0.59 1.137,1.143 l 1.07,2.652 c -0.113,0.508 0.017,1.16 0.414,1.945 -0.032,0.416 -0.107,0.83 -0.245,1.238 1.15,2.526 2.882,4.957 5.204,7.293 0.647,1.1 1.198,2.36 1.645,3.785 l 0.242,0.408 0.32,1.063 0.09,0.335 c -0.13,-0.03 -0.267,-0.017 -0.407,0.054 -0.634,-0.444 -1.226,-1.064 -1.785,-1.856 -0.655,-1.65 -1.71,-3.454 -3.174,-5.406 l -1.226,-1.83 -0.24,-0.213 c 1.18,3.076 1.046,3.04 -0.393,-0.115 -0.21,-0.662 -0.536,-1.384 -0.98,-2.15 -0.236,-0.572 -0.563,-1.227 -0.986,-1.986 l -0.165,-0.443 c -0.473,-0.02 -0.754,0.214 -0.874,0.72 -0.086,-0.11 -0.195,-0.17 -0.335,-0.18 l 0.73,0.66 c -0.164,0.08 -0.304,0.224 -0.394,0.425 -0.36,-0.837 -0.44,-0.91 -0.24,-0.206 0.3,0.528 0.68,1.094 1.14,1.694 l 0.407,0.662 0.572,0.94 0.312,0.518 0.247,0.404 0.41,0.492 c 0.112,0.31 0.334,0.678 0.655,1.078 l 0.165,0.455 0.317,0.523 0.325,0.538 0.33,0.537 0.233,0.575 0.334,0.544 c 0.35,0.678 0.847,1.43 1.475,2.235 l 2.34,2.775 c 0.312,0.776 0.506,1.64 0.575,2.578 0.5,0.787 1.196,1.706 2.12,2.756 0.216,0.42 0.545,0.83 0.97,1.246 l 0.33,0.54 c 0.14,0.433 0.17,0.903 0.087,1.405 -0.318,0.373 -0.8,0.423 -1.45,0.138 -0.222,-0.45 -0.31,-0.948 -0.252,-1.49 -0.34,-0.525 -0.558,-1.13 -0.656,-1.803 -0.18,-0.294 -0.4,-0.59 -0.64,-0.89 l -0.655,-1.067 -1.226,-2.192 -0.318,-0.71 -0.092,-0.33 -0.08,-0.302 -2.366,-3.892 -0.314,-0.518 -0.423,-0.877 -0.322,-0.35 -0.236,-0.57 -1.39,-2.28 -0.818,-1.354 -0.4,-0.465 -1.62,-2.5 -0.576,-0.034 -0.165,-1 c -0.21,0.165 -0.238,0.43 -0.075,0.79 l -0.953,1.32 c 0.44,0.687 1.03,1.362 1.775,2.017 -0.07,1.022 0.34,1.933 1.234,2.742 l 0.174,0.278 -0.173,-0.278 0.174,0.278 c -0.453,0.078 -0.974,-0.535 -1.552,-1.827 -0.826,-0.507 -0.85,-0.305 -0.077,0.597 0.604,0.616 1.21,1.42 1.786,2.4 0.07,-0.238 0.234,-0.218 0.49,0.087 0.242,0.33 0.43,0.706 0.56,1.106 l -0.55,-0.018 c -0.39,-0.898 -0.983,-1.82 -1.79,-2.754 -1.33,-1.59 -1.28,-1.2 0.16,1.17 l 1.634,2.68 0.24,0.407 c 0.045,0.105 0.12,0.17 0.24,0.21 l 0.33,0.54 0.245,0.405 0.33,0.54 0.16,0.455 1.39,2.64 0.884,1.458 c 0.22,0.762 0.635,1.613 1.227,2.555 0.44,0.557 0.905,1.246 1.387,2.1 l 0.235,0.392 0.247,0.41 0.57,0.935 0.246,0.404 -0.237,0.504 c -0.435,-0.34 -0.943,-0.883 -1.536,-1.617 l -1.955,-3.206 c -0.108,-0.303 -0.3,-0.68 -0.575,-1.134 -0.578,-1.972 -1.638,-3.897 -3.17,-5.765 l -0.82,-1.34 -0.566,-0.21 c -0.124,0.096 -0.126,0.284 0.005,0.553 0.73,0.033 0.82,0.412 0.246,1.137 1.486,0.658 1.676,1.084 0.58,1.3 l -0.58,-0.945 c -0.466,1.06 -0.796,1.074 -0.963,0.034 -0.558,0.074 -0.806,-0.206 -0.73,-0.838 -0.306,-0.35 -0.708,-0.716 -1.222,-1.103 0.21,-0.437 0.26,-1.017 0.15,-1.737 l 0.24,-0.145 c 0.12,-0.44 0.364,-0.82 0.73,-1.156 -0.663,-1.205 -1.53,-2.328 -2.606,-3.384 0.342,0.725 0.827,1.53 1.466,2.41 l 0.084,0.333 c -0.35,0.56 -0.81,0.217 -1.378,-1.012 l 0.08,0.31 c 0.27,0.72 0.657,1.414 1.15,2.078 l -0.328,0.363 c -0.504,-0.225 -0.987,-0.662 -1.452,-1.304 h -0.33 c 0.25,0.468 0.47,1.018 0.664,1.628 0.38,0.52 0.644,1.092 0.81,1.7 -0.31,-0.353 -0.687,-0.678 -1.132,-0.958 l -0.812,-0.79 -0.322,-0.71 -0.325,-0.188 -0.07,0.425 1.13,2.417 0.242,0.398 0.903,1.485 c -0.083,1.633 0.31,3.546 1.167,5.715 l -0.322,0.363 -0.655,-0.71 c -0.2,-0.36 -0.395,-0.8 -0.564,-1.295 -0.187,-0.402 -0.43,-0.862 -0.747,-1.392 l -0.405,-0.852 -0.56,-1.107 -0.336,-0.734 -0.24,-0.564 -0.333,-0.737 -0.16,-0.446 -0.486,-0.804 c -0.34,-0.4 -0.74,-0.82 -1.21,-1.27 l -0.163,0.458 c 0.763,1.32 1.23,2.752 1.393,4.287 l 0.972,1.598 0.25,0.408 1.39,2.28 0.327,0.543 0.315,0.523 0.325,0.538 c 0.226,0.397 0.526,0.826 0.9,1.29 l 0.32,0.53 c 2.127,2.802 3.107,5.26 2.947,7.374 0.302,1.663 -0.368,1.47 -2.007,-0.59 l -1.045,-0.46 c -1.045,-1.363 -2.03,-3.088 -2.944,-5.194 l -0.313,-0.35 c 0.173,0.51 0.344,1.14 0.484,1.9 l 0.172,0.446 -0.006,0.36 c -0.447,-0.322 -0.88,-0.78 -1.302,-1.415 0.065,-1.347 -0.247,-2.87 -0.907,-4.57 -0.726,-0.766 -1.482,-1.834 -2.28,-3.2 -0.168,0.705 -0.11,1.65 0.177,2.83 -0.052,0.324 0.005,0.715 0.183,1.184 l -0.898,-1.107 c -0.044,-0.747 -0.214,-1.684 -0.506,-2.824 l 0.073,-0.246 -0.162,-0.44 -0.17,-0.453 c -0.91,-0.94 -1.754,-2.145 -2.51,-3.604 0,-0.695 0.1,-1.42 0.312,-2.196 0.24,0.356 0.503,0.56 0.813,0.61 -0.226,-0.666 -0.556,-1.33 -0.99,-1.982 -1.05,-1.668 -1.64,-1.975 -1.77,-0.93 -0.144,-0.205 -0.31,-0.348 -0.49,-0.44 l -0.574,-0.95 c 0.17,-0.55 -0.045,-1.152 -0.655,-1.795 -0.326,-0.28 -0.6,-0.2 -0.814,0.232 0.986,2.56 1.425,5.28 1.508,8.088 0.156,0.043 0.29,0.167 0.415,0.37 -0.14,0.03 -0.276,-0.027 -0.41,-0.175 0.114,5.015 -0.89,10.295 -1.92,15.415 0.215,0.275 0.48,0.535 0.792,0.787 0,0.06 0.037,0.118 0.113,0.18 -0.216,0.725 -0.65,1.055 -1.298,0.985 -0.352,1.76 -0.69,3.49 -0.97,5.18 0.217,-0.126 0.383,-0.33 0.494,-0.605 1.076,0 2.164,-0.31 3.242,-0.93 0.608,0.17 1.168,0.073 1.67,-0.29 0.897,0.268 1.885,0.304 2.964,0.113 0.36,0.06 0.798,0.09 1.3,0.09 l 1.3,0.167 0.37,-0.08 0.45,0.19 v 0.54 c -0.997,0.015 -1.922,0.393 -2.77,1.133 h -0.45 c -0.44,-0.65 -1.026,-0.813 -1.784,-0.483 v 0.56 c 1.3,0.68 1.242,1.115 -0.167,1.304 -1,-0.695 -2.143,-1.006 -3.443,-0.933 -0.762,-0.154 -1.227,0.09 -1.38,0.74 0.862,0.443 1.882,0.605 3.05,0.474 0.56,0.405 1.25,0.582 2.053,0.54 0.68,0.634 1.67,0.574 2.964,-0.17 0.58,0.605 1.312,0.662 2.21,0.17 l 0.645,0.28 v 0.29 c -0.044,0.59 -0.23,1.172 -0.563,1.75 -0.935,0.18 -2.13,0.22 -3.587,0.1 h -0.28 c -0.266,0 -0.51,-0.028 -0.74,-0.1 h -1.58 l -0.28,-0.09 h -0.65 c -0.473,-0.334 -1.036,-0.483 -1.664,-0.45 -0.525,0.3 -0.554,0.635 -0.09,1.01 0.777,0.42 1.516,0.384 2.21,-0.104 0.29,0.015 0.542,0.073 0.756,0.194 0.738,0.33 0.798,0.767 0.175,1.3 l 0.195,0.28 c 0.806,-0.09 1.675,-0.37 2.6,-0.84 h 0.36 l 0.18,-0.09 c 0.487,-0.015 1.04,0.052 1.66,0.192 h 0.37 c 1.042,-0.53 1.42,-0.013 1.13,1.558 0.215,0.406 0.555,0.78 1.01,1.132 l 0.18,0.258 -0.37,0.28 c -0.71,-0.06 -1.263,0.252 -1.666,0.932 l -0.175,0.367 c -0.723,-0.145 -1.373,0.037 -1.95,0.563 l -0.086,0.082 0.085,-0.082 -0.086,0.082 c -0.358,0.78 -0.055,1.336 0.915,1.67 0.76,1.18 1.815,1.395 3.15,0.648 h 0.65 c 0.152,0.76 0.54,1.352 1.195,1.752 l 0.11,0.65 -0.484,0.28 c -0.43,-0.348 -0.952,-0.398 -1.57,-0.17 -0.812,-0.208 -1.155,-0.024 -1.02,0.54 0.678,0.058 1.3,0.368 1.863,0.93 0.315,0.06 0.624,-0.038 0.93,-0.28 1.18,0.086 2.132,-0.377 2.855,-1.39 0.244,0.016 0.46,0.14 0.645,0.37 -0.474,1.042 -0.406,1.66 0.2,1.86 l 0.56,0.178 c 0.105,0.038 0.224,0.038 0.37,0 0.235,0.13 0.43,0.273 0.59,0.42 1.74,-0.133 3.48,0.258 5.224,1.18 1.8,2.082 2.248,3.874 1.33,5.368 -0.683,0.255 -1.344,0.395 -1.99,0.417 -0.12,0.046 -0.265,0.085 -0.44,0.124 v -0.13 c -0.794,-0.038 -1.56,-0.265 -2.292,-0.676 0.08,0.523 -0.115,0.702 -0.582,0.523 0.206,-0.125 0.375,-0.315 0.515,-0.56 -0.664,-0.385 -1.3,-0.924 -1.916,-1.61 -0.716,-0.436 -1.24,-0.87 -1.57,-1.297 -0.185,0.062 -0.43,0.107 -0.73,0.138 -0.26,-0.316 -0.415,-0.725 -0.46,-1.212 h -1.214 c -0.47,0.546 -0.53,1.48 -0.167,2.795 -0.38,0.3 -0.534,0.728 -0.48,1.297 0.71,-0.042 1.33,-0.324 1.86,-0.85 0.25,0.26 0.562,0.453 0.93,0.565 0.075,-0.607 0.414,-1.006 1.02,-1.214 0.822,-0.256 0.976,-0.064 0.457,0.57 -0.103,0.673 0.208,1.106 0.927,1.29 l 0.086,0.374 -0.82,0.177 c -1.315,-0.334 -2.43,0.096 -3.354,1.29 -1.152,0.395 -2.054,1.198 -2.69,2.41 l -0.54,0.475 c -0.905,0.148 -1.916,0.08 -3.05,-0.194 -0.73,0.2 -1.504,0.14 -2.31,-0.175 -0.51,0.104 -1.035,0.316 -1.582,0.65 -0.193,0.315 -0.282,0.718 -0.282,1.19 0.288,0.345 0.533,0.818 0.732,1.41 0.766,0.453 1.302,1.146 1.616,2.078 0.36,-0.465 0.85,-0.878 1.462,-1.233 2.32,-0.28 4.68,0.104 7.094,1.148 l 0.376,1.538 c -2.857,5.004 -5.602,5.684 -8.233,2.05 -0.863,0.522 -1.756,0.512 -2.678,-0.038 -0.33,0.123 -0.488,0.402 -0.457,0.84 -0.546,-0.014 -1.2,0.08 -1.95,0.28 h -0.933 c -0.153,0.09 -0.398,0.17 -0.73,0.258 h -0.46 c -0.375,-0.79 -1.02,-1.403 -1.94,-1.837 -0.667,-1.427 -1.723,-2.662 -3.163,-3.702 -0.276,-0.393 -0.674,-0.762 -1.19,-1.125 v -0.26 l -0.2,-0.108 v -0.09 0.09 -0.09 c -0.318,-0.014 -0.56,0.144 -0.73,0.458 -0.638,0.07 -1.11,0.226 -1.42,0.458 -0.066,0.45 -0.19,0.898 -0.375,1.35 0.095,0.336 0.29,0.724 0.584,1.156 h 0.277 c 0.045,-0.443 0.26,-0.813 0.65,-1.1 0.46,0.043 0.585,0.315 0.363,0.82 -0.243,0.274 -0.584,0.523 -1.013,0.76 0.113,1.427 0.793,2.66 2.032,3.702 0.2,1.485 0.85,2.837 1.95,4.06 l 0.19,0.46 c 0.23,0.516 -0.41,0.952 -1.948,1.3 0.117,2.15 -0.688,2.986 -2.423,2.512 v -1.39 c 0.39,-0.427 0.915,-0.647 1.58,-0.647 -0.083,-0.665 -0.06,-1.472 0.09,-2.424 -0.378,-0.365 -0.653,-0.82 -0.823,-1.38 l -0.456,-0.652 -0.28,-0.28 -0.19,-0.63 -0.18,-0.2 v -0.28 l -0.19,-0.17 -0.093,-0.28 -0.19,-0.2 -0.088,-0.282 -0.09,-0.257 c -0.128,-0.35 -0.376,-0.66 -0.753,-0.932 -0.246,-0.893 -0.738,-1.728 -1.47,-2.512 -0.065,-0.138 -0.142,-0.28 -0.232,-0.43 -0.87,-0.377 -1.586,-1.16 -2.16,-2.335 -0.52,-0.357 -0.91,-0.727 -1.173,-1.11 -0.138,0.123 -0.247,0.27 -0.335,0.455 0.028,0.555 0.242,1.11 0.652,1.67 0,0.29 -0.033,0.66 -0.093,1.1 v 0.28 c -0.052,0.42 -0.052,0.948 0,1.583 l -0.19,0.367 c -0.047,0.29 -0.076,0.63 -0.088,1.02 l 0.476,1.303 1.28,0.73 0.19,0.2 0.28,0.08 c 0.046,0.29 0.046,0.66 0,1.11 0.29,0.213 0.534,0.493 0.74,0.84 l 0.19,0.09 0.65,1.493 0.173,0.17 c -0.016,0.058 0.012,0.125 0.087,0.2 -0.116,0.59 -0.05,1.243 0.192,1.94 v 1.459 l 0.09,0.19 c 0.202,0.186 0.36,0.4 0.477,0.63 l -0.11,0.28 c -0.452,-0.074 -1.036,-0.376 -1.75,-0.91 l -0.09,-1.86 -0.93,-0.93 -0.37,-0.54 -0.278,-0.197 -0.173,-0.284 -0.28,-0.17 -0.2,-0.39 c -0.91,-0.09 -1.835,-0.43 -2.77,-1.02 -0.17,-0.37 -0.48,-0.675 -0.932,-0.91 -0.226,-0.516 -0.634,-0.8 -1.21,-0.842 0.072,0.798 -0.23,1.536 -0.91,2.232 -0.42,0.183 -0.79,0.494 -1.124,0.93 -0.3,-0.134 -0.64,-0.17 -1.02,-0.11 -0.256,0.193 -0.5,0.44 -0.735,0.76 0.117,0.303 0.3,0.605 0.567,0.91 0.052,0.53 0.275,1.054 0.652,1.58 l -0.113,0.56 c -0.256,0.11 -0.56,0.11 -0.906,0 0.243,-0.39 0.302,-0.847 0.167,-1.39 -0.47,0.134 -0.84,0.504 -1.096,1.11 h -0.65 c -0.41,-0.332 -0.594,-0.797 -0.563,-1.387 0.155,-0.38 0.254,-0.805 0.28,-1.302 0.764,-1.426 0.984,-3.152 0.654,-5.19 0.317,-1.414 0.22,-2.96 -0.28,-4.635 -0.208,-0.184 -0.52,-0.397 -0.933,-0.65 -0.014,-0.052 -0.075,-0.11 -0.176,-0.167 l -0.19,-0.193 -0.18,-0.09 c 0,-0.06 -0.03,-0.126 -0.104,-0.19 v -0.91 c 0.334,-0.435 0.367,-0.91 0.104,-1.41 -0.428,0.114 -0.933,0.33 -1.49,0.65 h -0.652 l -0.17,0.19 c -0.087,0.423 -0.087,0.91 0,1.48 0.997,-0.514 1.58,-0.135 1.75,1.12 0.164,1.226 -0.39,1.935 -1.662,2.12 l -0.2,-0.28 c 0.335,-0.785 0.37,-1.64 0.11,-2.58 -0.27,-0.03 -0.583,0.034 -0.93,0.18 -0.145,0.455 -0.39,1.01 -0.736,1.66 l -0.104,0.284 v 0.278 l -0.18,0.177 -0.08,0.28 -0.11,0.28 -0.17,0.373 c -0.075,0.013 -0.14,0.08 -0.203,0.19 l -0.73,0.18 c -0.963,-0.495 -1.12,-1.48 -0.457,-2.973 0.925,-1.32 1.322,-2.925 1.187,-4.804 0.35,-0.764 0.447,-1.63 0.284,-2.6 l -1.58,-0.56 c 0.12,-0.39 0.332,-0.782 0.65,-1.186 0.087,-2.224 -0.65,-2.224 -2.21,0 l -0.56,0.277 c -0.445,-0.026 -0.91,-0.18 -1.384,-0.47 l -0.11,-0.545 c 1.17,-1.53 1.205,-2.706 0.11,-3.524 -0.966,-0.03 -1.587,0.458 -1.86,1.47 -0.334,0.178 -0.67,0.46 -1.02,0.84 l -0.192,0.09 c -0.404,0.836 -0.53,1.796 -0.368,2.884 -0.422,0.5 -0.76,1.18 -1.02,2.027 -0.394,0.38 -0.694,0.868 -0.91,1.475 -0.316,0.074 -0.664,0.236 -1.034,0.48 0.113,-0.925 0.584,-1.67 1.404,-2.23 l 0.17,-0.654 c -0.382,-0.284 -0.914,-0.496 -1.574,-0.647 -0.07,-0.427 -0.07,-0.894 0,-1.38 0.747,-0.435 1.25,-1.117 1.495,-2.042 0.532,-0.27 0.744,-0.727 0.65,-1.38 -0.483,0.105 -0.82,0.415 -1.02,0.93 -0.55,0.244 -1.05,0.676 -1.493,1.278 -0.727,0.4 -1.337,1.022 -1.84,1.863 -0.48,0.29 -0.91,0.718 -1.3,1.295 l -0.192,0.086 -0.088,0.285 c -0.695,0.244 -1.345,0.678 -1.95,1.3 l -0.732,0.09 v -1.39 c 1.034,-0.14 1.713,-0.762 2.032,-1.862 0.925,-0.334 0.925,-0.574 0,-0.732 l -0.168,0.56 -0.112,0.173 c -0.578,0.103 -0.88,-0.142 -0.912,-0.732 0.447,-0.192 0.814,-0.5 1.102,-0.932 0.467,-0.218 0.835,-0.552 1.11,-1.017 0.56,-0.184 1.018,-0.585 1.38,-1.19 1.255,-0.88 2.283,-2.112 3.072,-3.7 0.408,-0.422 0.925,-0.704 1.56,-0.842 0.39,-0.39 0.7,-0.917 0.93,-1.582 0.318,-0.242 0.6,-0.583 0.844,-1.018 l 0.087,-0.284 0.18,-0.258 c 0.383,-0.257 0.76,-0.635 1.123,-1.12 0.212,-0.192 0.524,-0.342 0.93,-0.458 l 0.257,-0.282 0.19,-0.088 c 0.165,-0.334 0.282,-0.732 0.37,-1.21 l 0.09,-0.284 0.075,-0.294 z m 59.683,12.115 c -0.273,0.704 -0.19,1.4 0.235,2.076 l 0.37,0.126 1.715,0.48 0.237,0.132 c 0.745,0.04 1.394,0.12 1.942,0.238 l 0.605,0.127 0.737,0.243 0.37,0.238 0.732,0.124 0.604,0.13 0.503,0.116 0.345,0.122 0.495,0.235 h 0.483 l 0.36,0.136 0.976,0.37 c 1.115,0.274 2.01,0.635 2.69,1.08 h 1.1 c 1.315,-1.183 1.47,-2.438 0.47,-3.77 l -0.84,-0.257 h -0.496 c -0.938,0.42 -1.824,0.626 -2.666,0.626 -0.714,-0.03 -1.328,-0.112 -1.838,-0.257 l -1.447,-1.345 -0.63,-0.107 h -0.473 l -0.243,-0.132 -1.944,-0.103 h -0.368 l -0.372,-0.132 h -0.37 l -0.36,-0.132 H 281.6 c -0.468,-0.038 -0.91,-0.163 -1.347,-0.363 h -1.21 z M 94.577,258.11 c -0.046,0.043 -0.112,0.054 -0.178,0.054 l -0.12,0.127 c -0.25,0.488 -0.558,0.854 -0.92,1.1 l -0.206,0.304 0.39,-0.06 c 0.137,-0.233 0.317,-0.39 0.546,-0.49 -0.053,0.57 -0.296,0.986 -0.73,1.244 l -0.06,0.305 0.422,-0.125 c 0.584,-0.813 0.912,-1.63 0.983,-2.457 h -0.128 0.128 -0.128 z"
     id="splash"
     inkscape:connector-curvature="0"
     style="fill:#ffffff;fill-rule:evenodd"><animate
         id="animate82"
         repeatCount="finite"
         dur="4s"
         to="#F7CA18"
         from="#1e824c"
         attributeName="fill"
    />
  </path>
  <path
     d="m 153.55,28.045 c 7.22,6.928 15.324,37.464 9.752,56.216 2.423,6.593 2.802,13.874 2.174,20.425 h 3.555 c 4.724,-27.832 3.347,-15.286 2.597,-25.03 -0.415,-5.37 0.048,-19.21 -3.146,-31.26 -2.593,-9.792 -10.148,-19.29 -14.93,-20.35 m 32.035,88.67 c 1.98,8.86 -5.7,4.01 -3.705,16.608 -1.295,-0.228 -3.78,-1.808 -5.076,-2.034 -1.497,-10.316 -2.867,-18.332 -5.268,-20.5 -0.14,-21.175 9.79,-35.177 17.206,-35.265 -7.76,14.08 -5.137,32.336 -3.157,41.19 m -36.186,-0.847 c 7.574,-14.727 3.53,-27.597 -0.34,-40.494 8.58,4.555 16.685,16.882 13.71,35.75 -2.398,2.17 -5.048,4.77 -6.545,15.08 -1.296,0.227 -1.128,1.64 -2.424,1.862 -0.165,-4.18 -1.515,-9.378 -4.4,-12.198 m 76.877,-32.875 c 0.01,13.99 6.57,24.777 -6.293,38.427 -1.45,0.29 -3.38,-2.132 -7.825,-0.87 2.616,-4.344 5.784,-5.985 7.104,-16.93 1.32,-10.94 1.41,-15.985 7.013,-20.627 m -2.89,-1.11 c -7.053,5.43 -4.936,17.965 -6.806,23.65 -1.87,5.69 -4.1,16.512 -9.008,12.87 0.392,0.103 5.303,-13.684 4.064,-14.12 -14.5,-1.578 -15.65,7.946 -19.55,11.686 -1.766,1.694 -3.075,0.34 -3.95,-5.265 -0.872,-5.61 -1.427,-12.844 -0.977,-17.997 9.66,-9.908 25.02,-13.323 36.227,-10.824 M 115.79,76.49 c 11.206,-2.805 22.92,1.17 32.58,12.296 2.265,6.468 2.752,15.914 -0.455,21.075 -3.21,5.16 -2.995,8.316 -4.85,6.495 -3.924,-3.86 -6.464,-12.25 -20.09,-12.187 -5.703,-6.29 -0.136,-21.584 -7.186,-27.677 m -3.55,2.938 c 5.6,4.643 2.847,17.44 5.377,23.62 2.527,6.187 7.3,7.152 9.04,16.826 -4.443,-2.785 -7.39,0.142 -8.837,-0.146 -9.974,-9.305 -8.275,-26.31 -5.58,-40.3 m 97.09,28.532 c -6.538,-0.387 -12.47,2.24 -16.52,14.29 -9.273,-5.694 -10.225,12.178 -8.376,19.716 -13.973,-10.933 -4.308,2.88 -16.165,13.285 38.694,0.65 29.07,-33.626 41.06,-47.29 m -84.415,0 c 11.986,13.664 6.594,47.94 34.275,48.455 -8.958,-9.827 4.59,-32.054 -9.384,-21.12 1.85,-7.542 0.9,-18.74 -8.374,-13.046 -5.822,-12.24 -11.363,-14.822 -16.517,-14.29 m 41.555,3.775 c -2.558,2.51 -7.426,9.49 -8.208,14.718 -0.393,2.645 2.485,4.75 2.18,6.81 -0.232,3.155 -1.9,5.446 -1.882,8.026 0.036,5.674 2.596,9.483 4.646,15.606 4.743,-5.142 8.866,-11.61 10.665,-23.048 -0.69,-9.8 -2.786,-17.813 -7.4,-22.113 m 49.884,14.376 c 0.968,1.37 0.92,2.766 -0.58,5.223 -1.735,3.658 -5.578,5.26 -8.648,6.748 2.25,-0.517 6.348,0.16 6.036,2.54 0.407,6.44 -12.31,7.588 -18.255,7.834 5.29,-4.014 6.763,-10.46 11.517,-23.82 2.195,-0.37 6.403,-1.184 9.93,1.477 m -77.092,24.375 c -5.012,-7.636 -7.558,-11.782 -10.432,-23.505 -2.316,-2.33 -6.47,-7.656 -9.563,-3.77 0.38,4.935 3.474,9.19 6.955,13.346 -15.01,-2.806 -4.965,15.66 13.04,13.93 m 27.244,9.284 c 5.244,3.5 5.44,2.446 11.3,0 2.126,-3.095 4.535,-2.08 6.38,0 1.84,2.085 5.416,3.49 4.055,8.706 -1.358,5.213 -3.854,7.043 -10.72,5.804 -1.355,5.608 -4.374,8.376 -8.044,7.796 -5.602,-0.773 -7.995,-4.123 -8.186,-9.537 -1.7,2.59 -4.43,3.12 -6.956,4.06 -3.19,-0.182 -6.187,-1.047 -7.825,-6.672 1.25,-4.648 2.982,-8.908 8.114,-10.447 3.96,-1.835 7.92,-1.74 11.882,0.29 m 18.654,-3.702 c 4.262,3.675 6.326,4.52 6.086,15.445 -0.02,0.823 16.196,7.002 11.903,-3.748 11.066,-1.745 14.53,-2.13 1.874,-10.01 2.6,-0.937 6.453,-0.624 8.43,-3.125 -1.874,-3.232 -15.32,-3.576 -17.935,-3.86 -3.845,-0.415 -3.303,3.92 -10.36,5.298 m -34.326,0.946 c -2.987,7.24 -6.127,16.11 -15.29,16.3 -3.447,0.07 -5.952,-2.023 -5.167,-8.678 -7.997,0.204 -15.39,-1.395 -10.93,-9.695 6.02,-4.165 15.368,-2.777 24.048,-2.5 1.98,1.773 2.552,4.678 7.34,4.574 M 253.43,114.29 c -19.443,4.426 -16.568,34.656 -35.658,39.4 -1.758,-1.037 -5.278,-5.732 -8.69,-5.112 4.31,-1.42 9.338,-7.013 5.8,-12.097 6.76,-9.727 11.747,-25.682 20.605,-27.486 8.856,-1.804 11.08,-0.34 17.942,5.296 M 79.67,116.05 c 16.657,7.714 7.505,34.305 36.03,34.826 l 8.43,-0.938 c -9.883,-5.193 -10.118,-13.174 -3.76,-17.305 -6.953,-13.48 -11.748,-25.352 -20.913,-25.813 -9.162,-0.462 -11.855,4.34 -19.787,9.23 m 142.34,46.395 c 23.467,-1.375 26.795,-28.18 31.605,-44.68 -15.264,-0.42 -12.084,42.003 -36.945,38.99 -0.586,1.72 -4.373,1.035 -4.645,1.95 -0.448,1.53 3.61,4 9.986,3.74 m -115.68,-2.812 c -23.466,-1.375 -22.99,-23.102 -29.455,-38.77 13.55,2.648 13.06,34.378 37.264,32.515 1.56,4.588 -1.046,6.672 -7.81,6.255 m 92.956,16.75 c 12.804,1.035 0.258,-4.733 21.626,-10.335 4.847,-0.847 8.388,1.493 10.352,-0.113 14.925,-12.2 24.222,9.043 16.258,32.458 -17.092,-20.58 -47.188,11.513 -48.236,-22.01 m -64.33,0.443 c -5.08,-0.775 -5.35,-4.063 -8.232,-7.573 -2.238,-2.73 -9.804,-1.625 -11.338,-6.18 -28.122,-1.6 -29.08,6.88 -27.517,34.197 14.16,-15.934 46.092,13.845 47.087,-20.444 m 12.91,2.82 c 3.642,0.837 7.287,1.363 10.93,-0.312 1.614,3.907 4.527,6.512 10.31,6.252 5.932,-0.313 9.365,-3.126 10.304,-8.442 1.77,1.147 3.54,1.045 5.31,-0.31 1.92,19.782 -6.858,29.852 -19.16,38.79 -12.704,-8.236 -19.15,-19.405 -17.693,-35.98 m 98.392,22.132 c -3.338,-3.237 -8.58,-8.325 -17.793,-8.165 -7.842,1.503 -15.998,3.18 -23.842,1.91 -1.846,-0.807 -3.693,-1.617 -5.54,-2.427 1.886,13.378 10.764,15.415 21.456,12.82 7.735,-1.875 15.337,-4.13 25.72,-4.137 M 88.81,201.574 c 3.01,-2.925 10.426,-5.777 18.457,-5.354 7.08,1.355 14.158,1.46 21.237,0.313 1.666,-0.732 3.332,-1.46 4.997,-2.19 C 128.885,206 117.033,209 110.627,206.12 c -8.69,-3.904 -15.257,-4.155 -21.815,-4.547 m 78.576,25.882 c -1.546,-1.824 -1.52,-5.005 3.6,-11.045 5.118,-6.042 11.91,-10.885 15.09,-18.36 3.184,-7.47 0.996,-16.725 1.806,-23.682 6.107,0.752 9.392,6.756 8.217,14.686 -1.11,11.137 -5.448,21.925 -12.85,26.356 -5.914,3.54 -10.128,7.916 -15.864,12.045 m -2.96,-0.26 c 1.46,-2.5 -2.4,-8.77 -4.065,-10.337 -6.403,-6.27 -11.98,-12.47 -14.678,-19.7 -2.7,-7.23 -0.623,-13.967 -0.938,-20.95 -5.003,0.442 -6.807,5.132 -7.095,10.523 -0.685,12.708 4.202,22.764 11.802,27.608 5.934,3.78 10.878,9.456 14.975,12.857"
     id="flower"
     inkscape:connector-curvature="0"
     style="fill:#f7ca18;fill-rule:evenodd"><animate
         id="animate82"
         repeatCount="finite"
         dur="4s"
         to="#F7CA18"
         from="#ffffff"
         attributeName="fill" />
    </path>
  <path
     d="m 157.622,127.075 c 0,0 6.335,-18.437 9.137,-16.64 2.16,1.385 16.51,19.15 -1.96,46.582 1.82,-2.29 -5.937,7.237 -6.74,-16.24 -0.086,-2.525 1.845,-3.52 1.815,-6.8 -0.017,-1.86 -2.216,-4.762 -2.253,-6.902 z"
     id="core"
     inkscape:connector-curvature="0"
     style="fill:#ffffff">
    </path>
</svg>
