<?xml version="1.0" encoding="UTF-8" standalone="no"?>
<!-- Created with Inkscape (http://www.inkscape.org/) -->

<svg
   xmlns:dc="http://purl.org/dc/elements/1.1/"
   xmlns:cc="http://creativecommons.org/ns#"
   xmlns:rdf="http://www.w3.org/1999/02/22-rdf-syntax-ns#"
   xmlns:svg="http://www.w3.org/2000/svg"
   xmlns="http://www.w3.org/2000/svg"
   xmlns:sodipodi="http://sodipodi.sourceforge.net/DTD/sodipodi-0.dtd"
   xmlns:inkscape="http://www.inkscape.org/namespaces/inkscape"
   width="515.01544"
   height="300.82965"
   id="svg4608"
   version="1.1"
   inkscape:version="0.48.3.1 r9886"
   sodipodi:docname="taxi.svg">
  <defs
     id="defs4610" />
  <sodipodi:namedview
     id="base"
     pagecolor="#ffffff"
     bordercolor="#666666"
     borderopacity="1.0"
     inkscape:pageopacity="0.0"
     inkscape:pageshadow="2"
     inkscape:zoom="1.1921972"
     inkscape:cx="98.976933"
     inkscape:cy="175.87058"
     inkscape:document-units="px"
     inkscape:current-layer="layer1"
     showgrid="false"
     inkscape:window-width="1440"
     inkscape:window-height="850"
     inkscape:window-x="0"
     inkscape:window-y="22"
     inkscape:window-maximized="1"
     fit-margin-top="0"
     fit-margin-left="0"
     fit-margin-right="0"
     fit-margin-bottom="0" />
  <metadata
     id="metadata4613">
    <rdf:RDF>
      <cc:Work
         rdf:about="">
        <dc:format>image/svg+xml</dc:format>
        <dc:type
           rdf:resource="http://purl.org/dc/dcmitype/StillImage" />
        <dc:title />
      </cc:Work>
    </rdf:RDF>
  </metadata>
  <g
     inkscape:label="Capa 1"
     inkscape:groupmode="layer"
     id="layer1"
     transform="translate(-122.46294,-298.87176)">
    <g
       id="g3102">
      <path
         transform="matrix(0.89619373,0,0,0.89000599,10.11769,6.776364)"
         d="m 630.76811,606.54669 c 0,9.95987 -108.53046,18.03393 -242.40956,18.03393 -133.8791,0 -242.40956,-8.07406 -242.40956,-18.03393 0,-9.95986 108.53046,-18.03393 242.40956,-18.03393 133.8791,0 242.40956,8.07407 242.40956,18.03393 z"
         sodipodi:ry="18.03393"
         sodipodi:rx="242.40956"
         sodipodi:cy="606.54669"
         sodipodi:cx="388.35855"
         id="path3044"
         style="fill:#333333;fill-opacity:1;fill-rule:evenodd;stroke:none"
         sodipodi:type="arc" />
      <path
         sodipodi:nodetypes="cc"
         inkscape:connector-curvature="0"
         id="path3825"
         d="m 286.71791,482.00496 130.27052,-0.6622"
         style="fill:none;stroke:none" />
      <path
         sodipodi:nodetypes="cc"
         inkscape:connector-curvature="0"
         id="path3831"
         d="m 203.23512,518.6745 c 0,0 0.6008,-43.99122 32.76576,-48.80333"
         style="fill:none;stroke:none" />
      <path
         sodipodi:nodetypes="ccc"
         inkscape:connector-curvature="0"
         id="path3833"
         d="m 234.87882,470.09432 c 0,0 34.65236,-7.49789 45.90805,26.38729 0,0 3.6763,10.09984 1.98391,22.3912"
         style="fill:none;stroke:none" />
      <path
         sodipodi:nodetypes="ccccsc"
         inkscape:connector-curvature="0"
         id="path3835"
         d="m 262.08295,459.61121 1.73932,-33.7803 c 0,0 43.48242,-68.0438 65.74539,-69.42566 5.75626,-1.01955 87.67467,-9.73564 99.19197,0.16952 0,0 37.51681,45.76501 43.77828,62.34701 6.26146,16.58196 3.82642,46.98221 3.82642,46.98221"
         style="fill:none;stroke:#000000;stroke-width:0.44287917px;stroke-linecap:butt;stroke-linejoin:miter;stroke-opacity:1" />
      <path
         sodipodi:nodetypes="cc"
         inkscape:connector-curvature="0"
         id="path3837"
         d="m 366.78862,352.94844 5.56577,166.15602"
         style="fill:none;stroke:none" />
      <path
         inkscape:connector-curvature="0"
         id="path3839"
         d="m 281.47518,413.45702 74.36725,-1.10774 1.41711,-46.72229 c 0,0 -45.15636,-2.02778 -75.78436,47.83003 z"
         style="fill:#91d0e1;fill-opacity:1;stroke:none" />
      <path
         inkscape:connector-curvature="0"
         id="path3841"
         d="m 377.07485,365.21552 0.60596,44.76257 73.05977,0.46153 c 0,0 -10.21631,-31.71843 -29.65366,-45.40108 z"
         style="fill:#91d0e1;fill-opacity:1;stroke:none" />
      <path
         sodipodi:nodetypes="cc"
         inkscape:connector-curvature="0"
         id="path3849"
         d="m 494.60943,489.89114 17.41431,-0.25095"
         style="fill:none;stroke:none" />
      <path
         inkscape:connector-curvature="0"
         id="path3851"
         d="m 510.25496,489.76566 c 0,0 -4.29564,8.03002 0.75804,29.10878"
         style="fill:none;stroke:none" />
      <path
         sodipodi:nodetypes="csccc"
         inkscape:connector-curvature="0"
         id="path3874"
         d="m 413.95671,518.68174 c 0,0 -6.12405,-16.84235 3.06203,-37.11494 9.18612,-20.2726 37.25473,-20.2726 37.25473,-20.2726 0,0 34.55721,-1.81005 40.24388,28.38165 0,0 2.62458,9.6295 0.5832,28.88845"
         style="fill:none;stroke:none" />
      <path
         transform="matrix(0.44441605,0,0,0.4413476,-707.85635,-394.21115)"
         inkscape:transform-center-y="-10.886369"
         inkscape:transform-center-x="-0.29210022"
         d="m 2471.9834,1663.3161 -77.1756,1.0118 37.7115,-67.3419 z"
         inkscape:randomized="0"
         inkscape:rounded="0"
         inkscape:flatsided="true"
         sodipodi:arg2="1.5576859"
         sodipodi:arg1="0.51048832"
         sodipodi:r2="22.280586"
         sodipodi:r1="44.561172"
         sodipodi:cy="1641.5433"
         sodipodi:cx="2433.1035"
         sodipodi:sides="3"
         id="path3878"
         style="opacity:0.65094341;fill:#ffe680;fill-opacity:1;fill-rule:evenodd;stroke:none"
         sodipodi:type="star" />
      <path
         inkscape:connector-curvature="0"
         id="path4017"
         d="m 174.45038,442.91675 c -4.28435,3.78116 -6.99325,9.04211 -8.49426,14.47629 -1.05878,3.8997 -1.70345,7.92541 -1.86326,11.96263 -0.0721,4.68571 -0.13346,9.39422 0.49432,14.04907 0.27345,2.03175 0.44118,4.10952 0.96421,6.0861 0.39877,0.41107 1.11984,0.10936 1.65185,0.19525 7.44517,-0.1046 14.89225,-0.17764 22.33524,-0.36817 0.71462,0.16321 0.9642,-0.47167 0.83377,-1.06414 0.14527,-14.77132 0.20154,-29.54389 0.43842,-44.31408 0.10398,-0.53862 0.0182,-1.32576 -0.73227,-1.11427 -5.12967,0 -10.2593,0 -15.38897,0 -0.0797,0.0304 -0.15937,0.0609 -0.23905,0.0913 z"
         style="fill:#800000;stroke:none" />
      <path
         inkscape:connector-curvature="0"
         id="path4019"
         d="m 187.53056,489.25833 c -8.99111,0.0937 -17.9864,0.20166 -26.97236,0.47772 -0.74769,0.46169 -0.99612,1.45561 -1.48209,2.16044 -1.89712,3.53758 -2.71751,7.59947 -2.48748,11.60272 0.16754,4.63653 1.75051,9.13854 3.92428,13.20358 0.47073,0.67716 0.77146,1.59984 1.46671,2.04004 10.30245,0 20.60486,0 30.90726,0 0.66148,-0.31353 0.42651,-1.30692 0.6645,-1.91753 0.87692,-5.19135 1.60354,-10.43593 1.31618,-15.71457 -0.0392,-3.53617 -0.5997,-7.22111 -2.52331,-10.26138 -0.60907,-0.79315 -1.34169,-1.85785 -2.49522,-1.59419 -0.77284,0 -1.54567,0 -2.31847,0.004 z"
         style="fill:#4d4d4d;fill-opacity:1;stroke:none" />
      <path
         inkscape:connector-curvature="0"
         id="path4029"
         d="m 414.66231,481.28729 c -14.41725,0.0545 -28.83584,0.11502 -43.25176,0.26988 -0.61863,0.28317 -0.20052,1.11912 -0.30248,1.65157 0.34016,11.56565 0.6833,23.13509 1.13736,34.69486 -0.12618,0.69221 0.33993,1.17319 1.04109,0.97216 13.06178,-0.0238 26.12414,0.0549 39.18549,-0.0581 0.47059,-0.10182 1.31236,0.18899 1.45693,-0.4394 -2.72734,-9.46752 -2.35416,-19.70458 0.34047,-29.12757 0.70462,-2.56401 1.71331,-5.04135 2.70102,-7.51147 -0.0294,-0.73547 -1.00806,-0.35776 -1.47981,-0.45521 -0.27612,0 -0.55219,0.004 -0.82831,0.004 z"
         style="fill:#ffffff;stroke:none" />
      <path
         inkscape:connector-curvature="0"
         id="path4041"
         d="m 364.38975,353.10525 c -12.20353,0.95914 -24.45773,1.79704 -36.5562,3.62775 -5.73723,1.10478 -10.43533,4.91921 -14.86496,8.48185 -11.94817,10.31373 -21.84932,22.71418 -31.34733,35.23098 -6.12698,8.25814 -12.12838,16.61704 -17.63363,25.28894 -0.52783,1.67418 -0.20608,3.57435 -0.44446,5.32539 -0.43459,9.39524 -1.09553,18.78424 -1.34311,28.18565 1.58923,1.29143 3.68888,1.99715 5.36552,3.26929 7.03271,4.71434 13.10498,10.85556 17.97934,17.75877 0.53663,0.92904 0.94647,2.19305 2.31958,1.73542 27.63655,-0.14834 55.27514,-0.12032 82.90942,-0.53783 0.80919,-0.81896 0.0187,-2.43439 0.21243,-3.55673 -1.40418,-41.48919 -2.81697,-82.97926 -4.11387,-124.47136 -0.0935,-1.02636 -1.83517,-0.164 -2.48273,-0.33812 z m -8.32076,12.54636 c 1.9413,-0.58107 0.85021,1.76195 1.06429,2.8459 -0.47086,14.56827 -0.81471,29.14135 -1.42604,43.70467 -24.72047,0.55164 -49.44644,0.84227 -74.17015,1.21163 4.93288,-7.93684 10.58595,-15.35435 17.35213,-21.7929 15.04793,-15.04912 35.67479,-25.07795 57.17977,-25.9693 z"
         style="fill:#fecb00;fill-opacity:1;stroke:#ffffff;stroke-width:0.84147042;stroke-linecap:round;stroke-linejoin:round;stroke-miterlimit:4;stroke-opacity:1;stroke-dasharray:none" />
      <path
         inkscape:connector-curvature="0"
         id="path4043"
         d="m 395.32471,351.92879 c -9.25222,0.16428 -18.5298,0.21856 -27.74996,1.03554 -1.24303,0.2126 -0.37558,1.95565 -0.59472,2.79642 1.23107,41.49392 2.55828,82.98562 4.05636,124.47083 -0.31065,1.64826 1.43898,1.30904 2.52531,1.28918 14.45227,0.004 28.90628,0.0327 43.35576,-0.29588 1.25472,-1.49241 1.97907,-3.49004 3.29144,-5.01574 6.25835,-8.22372 16.50596,-12.49631 26.53697,-14.13843 9.82101,-1.54741 20.14733,-0.47953 29.22541,3.59976 1.10291,-0.44696 0.28563,-2.43169 0.62432,-3.46308 0.21199,-8.19013 0.15048,-16.40096 -0.32807,-24.58019 -0.88283,-8.3251 -2.08351,-16.9007 -6.3967,-24.23448 -7.48357,-13.28104 -16.77355,-25.46046 -25.97723,-37.60869 -4.93955,-6.35227 -9.80999,-12.78447 -15.03059,-18.90292 -2.45798,-2.36443 -6.08815,-2.85172 -9.30345,-3.52513 -7.98216,-1.28467 -16.1559,-1.42458 -24.23485,-1.42719 z m 27.94857,14.80064 c 9.28501,7.61471 15.81005,17.94727 21.1262,28.5743 2.41696,4.90443 4.48576,9.96952 6.33293,15.12322 -24.31845,-0.1042 -48.63911,-0.2525 -72.95716,-0.50725 -0.29465,-14.87429 -0.51721,-29.75061 -0.64551,-44.62734 14.69506,-0.13002 29.39096,-0.14313 44.08642,-0.2043 0.68569,0.54714 1.37143,1.09423 2.05712,1.64137 z"
         style="fill:#fecb00;fill-opacity:1;stroke:#ffffff;stroke-width:0.84147042;stroke-miterlimit:4;stroke-opacity:1;stroke-dasharray:none" />
      <path
         inkscape:connector-curvature="0"
         id="path4045"
         d="m 390.74674,339.07693 c -0.51469,-0.0448 -0.37714,0.67703 -0.92044,0.48512 -10.64167,0.42662 -21.30712,0.0742 -31.94267,0.67407 -5.61697,0.54948 -11.13947,1.84325 -16.63734,3.05722 -8.88623,2.09605 -17.62776,4.72666 -26.20659,7.84535 -10.6415,12.58988 -21.16656,25.29981 -31.76824,37.9318 -7.14242,8.51245 -14.24611,17.07759 -21.41125,25.55839 -4.02263,-0.10706 -8.02233,-0.74927 -12.04545,-0.94757 -7.50072,-0.43035 -15.0274,-0.42435 -22.5342,-0.16682 -10.48361,0.66555 -21.04751,2.33327 -30.76604,6.42014 -0.42557,0.15121 -0.37535,2.02469 -0.60165,0.98558 -0.27709,-0.94034 -1.29321,-0.10381 -1.81704,0.13179 -7.14252,3.55999 -13.82827,8.88763 -17.08268,16.30355 -0.64276,1.72169 -1.52453,3.49772 -1.49893,5.34939 1.5575,0.33746 3.26112,0.10986 4.87355,0.23516 3.40218,0.0731 6.80508,0.12472 10.2082,0.11205 -0.0469,15.25722 -0.25106,30.51367 -0.38051,45.77036 0.74475,0.83847 1.82131,1.48204 2.34994,2.55332 0.21811,0.50129 0.90754,1.58192 1.42435,0.77108 6.20036,-9.20748 13.66539,-17.64622 22.38865,-24.53204 8.60115,-6.74159 19.0743,-11.95249 30.25607,-11.79113 5.15586,0.0456 10.21286,1.29968 14.92234,3.3346 0.93905,0.16154 0.5209,-1.24499 0.6772,-1.78194 0.57383,-10.54732 1.10051,-21.09707 1.64705,-31.64577 11.59206,-17.32475 23.71622,-34.3815 37.86531,-49.70973 5.04879,-5.21069 10.18717,-10.45319 16.20092,-14.60273 3.73776,-2.52557 7.92377,-4.82345 12.55467,-5.10649 17.93165,-2.05028 35.93828,-3.54251 53.9814,-4.14668 3.38138,-0.1662 6.8021,-0.0623 10.16241,-0.19874 0.46549,-0.78356 0.0766,-1.96492 0.20434,-2.90084 -0.0449,-3.13794 0.0896,-6.31352 -0.0666,-9.42811 -0.90457,-0.60107 -2.22919,-0.38172 -3.31152,-0.54366 -0.24141,-0.0101 -0.48375,-0.0318 -0.72529,-0.0168 z"
         style="fill:#fccb02;fill-opacity:1;stroke:none" />
      <path
         inkscape:connector-curvature="0"
         id="path4047"
         d="m 394.45605,339.74398 c 0.33127,3.93523 0.25061,7.96955 0.25661,11.94472 1.0945,0.81244 3.04193,0.12076 4.45829,0.35039 8.77468,0.0704 17.78633,0.19843 26.21245,2.76319 2.10436,0.56911 3.77892,1.97004 4.98071,3.77343 12.51027,15.55172 24.80699,31.36384 35.60746,48.15601 3.83815,5.98251 7.28113,12.36325 8.58932,19.41232 2.45571,11.1491 2.12293,22.66254 2.0888,34.0185 0.072,1.85538 -0.2095,3.78063 -0.24608,5.57316 4.82316,2.76152 9.57645,6.06888 12.73492,10.77519 2.6932,3.9434 4.40892,8.46231 5.4205,13.13124 1.22592,0.60041 2.92039,0.10037 4.32999,0.23467 4.05343,-0.14631 8.18783,-0.0393 12.18815,-0.44969 0.14964,-8.91351 0.0213,-17.86708 0.0641,-26.79598 4.55846,-0.0854 9.19159,0.16978 13.70361,-0.12738 0.52321,-10.03191 0.54615,-20.13719 0.10853,-30.18702 -0.59414,-6.66514 -1.11855,-13.57775 -4.04561,-19.69408 -0.75778,-1.485 -2.01778,-3.04455 -3.897,-2.86673 -13.44661,-0.95538 -26.93907,-1.18039 -40.38115,-2.20581 -14.01012,-19.14632 -27.82685,-38.45219 -41.88866,-57.54961 -6.17889,-2.67766 -12.74887,-4.43841 -19.18219,-6.4311 -6.55447,-1.79796 -13.24115,-3.2762 -20.01227,-3.95284 -0.36358,0.0432 -0.77129,-0.11219 -1.09051,0.12742 z"
         style="fill:#fccb02;fill-opacity:1;stroke:none" />
      <rect
         y="422.29596"
         x="335.29422"
         height="6.909153"
         width="21.219423"
         id="rect3845"
         style="fill:#000000;fill-opacity:1;fill-rule:evenodd;stroke:#000000;stroke-width:0.44287917px;stroke-linecap:butt;stroke-linejoin:miter;stroke-opacity:1" />
      <rect
         y="422.55557"
         x="433.35556"
         height="6.909153"
         width="21.219423"
         id="rect3845-5"
         style="fill:#000000;fill-opacity:1;fill-rule:evenodd;stroke:#000000;stroke-width:0.44287917px;stroke-linecap:butt;stroke-linejoin:miter;stroke-opacity:1" />
      <path
         inkscape:connector-curvature="0"
         id="path4093"
         d="m 242.76152,469.25434 c -5.74514,0.004 -11.59957,0.88239 -16.72329,3.57832 -8.06704,4.01895 -13.77459,11.57121 -17.25929,19.68212 -3.44285,7.9845 -5.11967,16.63853 -5.71861,25.28873 0.063,1.06232 1.41164,0.6701 2.10222,0.79464 0.95993,-0.0661 2.04342,0.27386 2.93559,-0.13637 0.35833,-0.63131 -0.22221,-1.39969 -0.18942,-2.09243 -2.00009,-11.5792 1.76762,-24.00468 9.99514,-32.44448 7.87097,-8.23833 19.80207,-12.50016 31.18806,-10.93236 8.4279,1.06789 16.4133,5.21859 22.15881,11.46842 4.41287,4.68402 7.44317,10.56206 9.00959,16.76415 1.27828,5.48537 1.30597,11.25167 0.25163,16.77589 -0.12021,0.96897 1.10228,0.56836 1.66941,0.54409 1.19912,0.19931 0.94242,-1.13471 1.04082,-1.89352 0.32349,-5.58754 0.11111,-11.25096 -1.30605,-16.68942 -2.21577,-9.03249 -6.96986,-17.78979 -14.66062,-23.34239 -6.99395,-5.22088 -15.82286,-7.47864 -24.49399,-7.36539 z"
         style="fill:#333333;stroke:none" />
      <path
         inkscape:connector-curvature="0"
         id="path4121"
         d="m 453.83479,468.32522 c -2.84533,-0.0304 -5.68826,0.30973 -8.42435,1.08554 -7.88279,2.14265 -15.30445,6.41137 -20.63713,12.62788 -5.26544,6.09258 -8.03975,14.04319 -8.45043,22.01036 -0.24275,4.50563 0.0709,9.05027 0.97842,13.46988 0.047,0.5941 0.91897,0.91421 1.25805,0.3725 -0.11977,-1.18127 -0.54654,-2.33005 -0.71301,-3.51564 -1.93344,-10.46175 0.70021,-21.71576 7.35077,-30.08305 5.47161,-7.01814 13.56646,-11.99309 22.35426,-13.5815 3.25494,-0.66944 6.6274,-0.48601 9.94461,-0.43199 6.97533,0.61188 13.75392,3.31178 19.23997,7.64144 8.1909,6.31984 13.45656,16.23718 14.21829,26.49781 0.11133,4.07682 0.14159,8.22615 -0.96021,12.17426 -0.0147,0.53849 -0.57192,1.21684 -0.14021,1.67774 0.50144,0.2871 1.40903,0.35921 1.53355,-0.37249 1.12184,-4.93802 1.32356,-10.04887 1.07589,-15.09427 -0.28976,-3.92349 -1.12892,-7.84037 -2.64015,-11.47923 -1.6946,-3.73817 -4.56753,-6.75664 -7.30522,-9.76049 -6.0777,-6.29278 -13.88014,-11.27753 -22.61851,-12.82998 -1.9929,-0.36543 -4.03152,-0.4571 -6.06459,-0.40877 z"
         style="fill:#333333;fill-opacity:1;stroke:none" />
      <path
         transform="matrix(0.34153516,0,0,0.33917705,-456.83692,-224.18091)"
         inkscape:transform-center-y="-8.3662163"
         inkscape:transform-center-x="-0.22447462"
         d="m 2471.9834,1663.3161 -77.1756,1.0118 37.7115,-67.3419 z"
         inkscape:randomized="0"
         inkscape:rounded="0"
         inkscape:flatsided="true"
         sodipodi:arg2="1.5576859"
         sodipodi:arg1="0.51048832"
         sodipodi:r2="22.280586"
         sodipodi:r1="44.561172"
         sodipodi:cy="1641.5433"
         sodipodi:cx="2433.1035"
         sodipodi:sides="3"
         id="path3878-4"
         style="opacity:0.65094341;fill:#ffd31c;fill-opacity:1;fill-rule:evenodd;stroke:none"
         sodipodi:type="star" />
      <path
         inkscape:connector-curvature="0"
         id="path4370"
         d="m 488.72002,414.82445 c 43.94577,-13.87306 30.94131,51.75458 18.52642,39.42535 -9.32474,-9.2603 -9.00658,-31.15295 -18.52642,-39.42535 z"
         style="fill:#ffe67d;fill-opacity:1;stroke:none" />
      <path
         inkscape:connector-curvature="0"
         id="path4372"
         d="m 318.75925,404.97101 c 33.40159,15.00568 39.24611,-44.71059 0,0 z"
         style="fill:#bbe3ed;fill-opacity:1;stroke:none" />
      <path
         inkscape:connector-curvature="0"
         id="path4374"
         d="m 399.39622,398.95584 c 4.46101,21.3286 92.92864,-6.32337 0,0 z"
         style="fill:#bbe3ed;fill-opacity:1;stroke:none" />
      <path
         sodipodi:nodetypes="cssc"
         inkscape:connector-curvature="0"
         id="path4376"
         d="m 312.05745,451.44284 c 8.19321,-2.71985 20.92022,7.35748 29.11294,5.25671 25.58552,-6.56068 14.496,22.13584 -3.96997,13.43939 -11.18355,-5.26678 -12.29304,-17.59587 -25.14297,-18.6961 z"
         style="fill:#ffe67d;fill-opacity:1;stroke:none" />
      <path
         inkscape:connector-curvature="0"
         id="path4378"
         d="m 410.6444,453.56139 c 58.92885,-33.14979 27.87612,32.84685 0,0 z"
         style="fill:#ffe67d;fill-opacity:1;stroke:none" />
      <path
         sodipodi:nodetypes="ccccccccccc"
         inkscape:connector-curvature="0"
         id="path3797"
         d="m 532.42377,489.71208 -21.21709,0 0,-27.15761 16.97367,0 c 3.68287,13.00876 2.56481,19.79876 1.88597,27.15761 l 15.0877,-0.46822 c 8.48683,16.85647 0.47148,29.49883 0.47148,29.49883 l -383.7933,0 c 0,0 -10.84428,-14.98353 -1.41444,-29.03061 l 30.17536,-0.46822 c 0,0 7.80999,3.02495 2.47571,29.8434"
         style="opacity:0.81603771;fill:none;stroke:none;display:inline" />
      <path
         sodipodi:nodetypes="cccc"
         inkscape:connector-curvature="0"
         id="path3799"
         d="m 165.60414,489.56886 c 0,0 -7.07235,-32.63324 8.95832,-46.68027 l 16.13603,0.0606 -0.43259,46.53706"
         style="opacity:0.81603771;fill:none;stroke:#ffffff;stroke-width:0.44287917px;stroke-linecap:butt;stroke-linejoin:miter;stroke-opacity:1;display:inline" />
      <path
         sodipodi:nodetypes="ccccccc"
         inkscape:connector-curvature="0"
         id="path3801"
         d="m 175.44445,442.74538 c 0,0 2.41846,-37.3156 86.34377,-27.9509 l 53.27841,-63.67997 c 62.08275,-22.16589 95.99036,-9.89533 119.67769,-1.25779 l 42.04358,57.91424 41.01964,1.87295 c 0,0 9.87173,-0.43884 7.04275,52.93995"
         style="opacity:0.81603771;fill:none;stroke:none;display:inline" />
      <path
         sodipodi:nodetypes="csc"
         inkscape:connector-curvature="0"
         id="path3829"
         d="m 193.46934,492.86433 c 0,0 44.88033,-72.59856 90.58781,-14.73991 5.17087,6.54553 11.62508,23.62361 11.61481,40.71784"
         style="opacity:0.81603771;fill:none;stroke:#ffffff;stroke-width:0.44287917px;stroke-linecap:butt;stroke-linejoin:miter;stroke-opacity:1;display:inline" />
      <path
         inkscape:connector-curvature="0"
         id="path4025"
         d="m 367.17686,481.56764 c -26.62336,0.10203 -53.24891,0.21338 -79.87036,0.44222 -0.86191,0.25965 -1.4e-4,1.17739 0.12461,1.69606 5.14336,10.53047 7.81284,22.20649 8.16068,33.90026 -0.30358,1.00203 0.42047,1.46765 1.34801,1.22593 25.01862,0 50.03729,0 75.05591,0 0.70324,-0.30881 0.20469,-1.33759 0.33264,-1.93942 -0.37193,-11.66613 -0.73804,-23.33461 -1.19676,-34.99665 -0.423,-0.66639 -1.46085,-0.18232 -2.14271,-0.33278 -0.60401,-8e-5 -1.20801,0.004 -1.81202,0.004 z"
         style="opacity:0.81603771;fill:#ffffff;stroke:none;display:inline" />
      <path
         inkscape:connector-curvature="0"
         id="path4035"
         d="m 511.2353,462.55314 c -0.26021,0.78065 -0.0404,1.66565 -0.11288,2.48695 0,8.10597 0,16.21194 0,24.31786 0.22248,0.61139 1.0666,0.33158 1.57994,0.41981 5.71141,0.0389 11.42665,0.0695 17.13606,-0.0503 0.57761,-0.16568 0.30354,-0.98778 0.44095,-1.44678 0.52161,-5.26144 0.89247,-10.59221 0.0909,-15.84478 -0.45926,-3.28309 -1.17971,-6.52792 -2.06307,-9.72227 -0.37646,-0.50742 -1.1565,-0.15076 -1.70811,-0.25748 -5.03995,0 -10.07989,0 -15.11984,0 -0.0813,0.0323 -0.16266,0.0646 -0.24398,0.0969 z"
         style="opacity:0.81603771;fill:#fc4444;fill-opacity:1;stroke:none;display:inline" />
      <path
         inkscape:connector-curvature="0"
         id="path4037"
         d="m 543.77477,489.21561 c -6.61864,0.18643 -13.23724,0.41778 -19.85984,0.37832 -4.49495,0.006 -8.98991,0 -13.48491,0.004 -0.5737,0.21838 -0.50593,1.01718 -0.75644,1.50849 -1.19935,3.90773 -1.24642,8.06165 -1.11016,12.10722 0.24119,5.17912 1.09789,10.3308 2.3279,15.35484 0.38691,0.42863 1.11882,0.11161 1.64945,0.21515 10.99285,0.0344 21.9858,0.0163 32.97869,0.0212 0.59721,-0.25329 0.61756,-1.08881 0.96083,-1.59027 1.83264,-3.9411 2.70499,-8.3119 2.59415,-12.64969 0.0661,-4.30926 -0.97963,-8.5669 -2.58922,-12.54821 -0.42445,-0.90481 -0.7284,-1.89837 -1.26849,-2.7285 -0.42286,-0.17217 -0.97563,-0.0401 -1.44196,-0.0719 z"
         style="fill:#4d4d4d;fill-opacity:1;stroke:none;display:inline" />
      <path
         inkscape:connector-curvature="0"
         id="path4039"
         d="m 508.59076,489.61543 c -4.5614,0.0304 -9.12182,0.14882 -13.68318,0.1757 -0.6876,0.21449 -0.10555,1.00336 -0.1363,1.49506 1.34694,8.16379 1.17709,16.49572 0.48815,24.71834 -0.0151,0.88406 -0.27989,1.78207 -0.18714,2.65122 0.63596,0.32726 1.44017,0.0634 2.14431,0.14842 4.45864,-0.0322 8.92321,0.0748 13.37812,-0.0878 0.66729,-0.17587 0.17412,-0.991 0.14946,-1.43883 -1.55613,-6.91027 -2.495,-14.04443 -1.87762,-21.12722 0.17653,-2.04472 0.60378,-4.05656 1.25236,-6.00171 0.1436,-0.57742 -0.60458,-0.59533 -0.99131,-0.53571 -0.17896,0 -0.35788,0 -0.53685,0.004 z"
         style="opacity:0.81603771;fill:#fccb02;fill-opacity:1;stroke:none;display:inline" />
      <rect
         y="482.521"
         x="286.04196"
         height="12.190361"
         width="24.716106"
         id="rect3880-4"
         style="opacity:0.81603771;fill:#000000;fill-rule:evenodd;stroke:none;display:inline" />
      <rect
         inkscape:transform-center-y="-7.4997891"
         inkscape:transform-center-x="-5.8331693"
         y="506.0589"
         x="285.48642"
         height="12.190361"
         width="24.716106"
         id="rect3880-4-5"
         style="opacity:0.81603771;fill:#000000;fill-rule:evenodd;stroke:none;display:inline" />
      <path
         inkscape:connector-curvature="0"
         id="path4021"
         d="m 245.62969,455.69972 c -9.40402,0.18748 -18.30185,4.16778 -25.90048,9.44462 -7.10971,5.01221 -13.28875,11.22991 -18.8815,17.84549 -2.60286,3.16341 -5.07292,6.47545 -7.24664,9.9369 0.1711,0.99687 0.6495,1.96567 0.78368,3.00068 1.07246,5.25887 0.59858,10.681 -0.016,15.97461 -0.27034,2.19046 -0.70893,4.36971 -1.04117,6.54175 0.39401,0.63576 1.33147,0.28498 1.95427,0.40917 2.65134,-0.0154 5.32952,0.0691 7.9638,-0.0415 0.49325,-0.45335 0.19359,-1.35418 0.33994,-1.99229 0.5116,-6.89755 1.8229,-13.74992 4.0772,-20.28512 2.92804,-8.38742 7.81639,-16.50879 15.35422,-21.56045 5.49316,-3.71681 12.14682,-5.469 18.76698,-5.41635 4.16436,-0.0963 8.33875,0.14304 12.37712,1.19332 7.5089,1.76944 14.45468,5.90337 19.29939,11.90186 5.88247,7.24406 9.03813,16.44487 9.71347,25.68859 0.23358,3.40407 0.14398,6.85691 -0.23568,10.23503 0.36389,0.6001 1.34414,0.14167 1.95352,0.28476 3.53115,-0.0548 7.07689,0.11514 10.59937,-0.10134 0.7935,-0.1806 0.33656,-1.1923 0.41681,-1.74177 -0.27908,-7.16807 -1.41862,-14.2972 -3.46986,-21.17732 -1.42156,-4.68703 -3.10949,-9.33539 -5.52143,-13.61275 -0.99047,-1.88178 -2.23603,-3.72744 -3.62199,-5.38965 -5.76341,-6.89491 -12.44795,-13.30888 -20.62001,-17.27249 -5.27967,-2.58334 -11.14053,-4.00841 -17.04492,-3.86572 z"
         style="fill:#febf1e;fill-opacity:1;stroke:none;display:inline" />
      <rect
         y="494.10593"
         x="309.92865"
         height="12.190361"
         width="24.716106"
         id="rect3880-4-9"
         style="opacity:0.81603771;fill:#000000;fill-rule:evenodd;stroke:none;display:inline" />
      <rect
         y="506.24271"
         x="334.74118"
         height="12.190361"
         width="24.716106"
         id="rect3880-4-8"
         style="opacity:0.81603771;fill:#000000;fill-rule:evenodd;stroke:none;display:inline" />
      <rect
         y="482.33701"
         x="334.556"
         height="12.190361"
         width="24.716106"
         id="rect3880-4-85"
         style="opacity:0.81603771;fill:#000000;fill-rule:evenodd;stroke:none;display:inline" />
      <rect
         y="494.47375"
         x="359.18332"
         height="12.190361"
         width="24.716106"
         id="rect3880-4-0"
         style="opacity:0.81603771;fill:#000000;fill-rule:evenodd;stroke:none;display:inline" />
      <rect
         y="482.33701"
         x="383.81076"
         height="12.190361"
         width="24.716106"
         id="rect3880-4-81"
         style="opacity:0.81603771;fill:#000000;fill-rule:evenodd;stroke:none;display:inline" />
      <rect
         y="506.24271"
         x="383.44046"
         height="12.190361"
         width="24.716106"
         id="rect3880-4-4"
         style="opacity:0.81603771;fill:#000000;fill-rule:evenodd;stroke:none;display:inline" />
      <rect
         y="493.92212"
         x="408.06778"
         height="12.190361"
         width="5.4586186"
         id="rect3880-4-97"
         style="opacity:0.81603771;fill:#000000;fill-rule:evenodd;stroke:none;display:inline" />
      <rect
         y="506.33487"
         x="526.0304"
         height="2.7877939"
         width="23.393131"
         id="rect4292-8"
         style="opacity:0.81603771;fill:#999999;fill-rule:evenodd;stroke:none;display:inline" />
      <path
         transform="matrix(0.44441605,0,0,0.4413476,-726.92742,-411.46652)"
         d="m 2269.3111,2088.0295 a 83.812798,85.404175 0 1 1 -167.6256,0 83.812798,85.404175 0 1 1 167.6256,0 z"
         sodipodi:ry="85.404175"
         sodipodi:rx="83.812798"
         sodipodi:cy="2088.0295"
         sodipodi:cx="2185.4983"
         id="path3777"
         style="fill:#000000;fill-opacity:1;fill-rule:evenodd;stroke:none;display:inline"
         sodipodi:type="arc" />
      <path
         transform="matrix(0.44441605,0,0,0.4413476,-517.11416,-414.04178)"
         d="m 2269.3111,2088.0295 a 83.812798,85.404175 0 1 1 -167.6256,0 83.812798,85.404175 0 1 1 167.6256,0 z"
         sodipodi:ry="85.404175"
         sodipodi:rx="83.812798"
         sodipodi:cy="2088.0295"
         sodipodi:cx="2185.4983"
         id="path3777-4"
         style="fill:#000000;fill-opacity:1;fill-rule:evenodd;stroke:none;display:inline"
         sodipodi:type="arc" />
      <path
         transform="matrix(0.16182209,0,0,0.32806418,-133.63051,-135.1775)"
         inkscape:transform-center-y="3.7399046"
         inkscape:transform-center-x="0.29869034"
         d="m 2037.475,1698.0513 -21.3282,-31.2586 37.7348,-2.8414 z"
         inkscape:randomized="0"
         inkscape:rounded="0"
         inkscape:flatsided="true"
         sodipodi:arg2="2.5428367"
         sodipodi:arg1="1.4956392"
         sodipodi:r2="11.51261"
         sodipodi:r1="21.847878"
         sodipodi:cy="1676.2651"
         sodipodi:cx="2035.8345"
         sodipodi:sides="3"
         id="path3876"
         style="fill:#000000;fill-opacity:1;fill-rule:evenodd;stroke:none"
         sodipodi:type="star" />
      <path
         inkscape:connector-curvature="0"
         id="path4033"
         d="m 454.28191,461.3322 c -6.19124,0.0366 -12.34743,1.34421 -18.12204,3.5194 -6.99243,2.67522 -13.61317,7.07736 -17.47968,13.60396 -3.47085,5.97545 -5.40757,12.74969 -6.35768,19.56004 -0.33891,4.34917 -0.42228,8.748 -0.0351,13.09571 0.44423,2.53731 0.7827,5.13278 1.69651,7.53711 1.04394,0.219 2.30652,0.17517 3.41178,0.0353 0.77764,-0.43203 -0.0186,-1.42797 0.0267,-2.08434 -1.78589,-9.6506 -1.12695,-20.11915 3.70887,-28.82945 5.00671,-9.17593 14.37749,-15.34994 24.34405,-18.09957 4.22266,-1.15704 8.70175,-1.31368 13.04499,-0.87123 9.69302,1.30811 18.2627,6.92665 24.74472,13.95303 2.94222,3.3098 6.06886,6.80584 7.21142,11.18997 1.29004,4.0585 1.89498,8.30312 1.78753,12.57157 0.086,3.94944 -0.36594,7.87241 -1.2341,11.72082 0.2586,0.87546 1.49959,0.40786 2.16568,0.53902 0.76551,0.0389 2.11995,0.12587 2.01458,-1.00826 0.71182,-6.86388 0.80035,-13.79569 0.43313,-20.68419 -0.69436,-7.74248 -2.56322,-15.73436 -7.51121,-21.94782 -5.45232,-7.13514 -14.09448,-11.0961 -22.76393,-12.84136 -3.63642,-0.82325 -7.36445,-1.0091 -11.08608,-0.95985 z"
         style="fill:#febf1e;fill-opacity:1;stroke:none" />
      <path
         transform="matrix(0.44441605,0,0,0.4413476,-517.59547,-411.92897)"
         d="m 2230.8873,2083.7368 a 43.952522,43.952522 0 1 1 -87.905,0 43.952522,43.952522 0 1 1 87.905,0 z"
         sodipodi:ry="43.952522"
         sodipodi:rx="43.952522"
         sodipodi:cy="2083.7368"
         sodipodi:cx="2186.9348"
         id="path4147-7"
         style="fill:#333333;fill-opacity:1;fill-rule:evenodd;stroke:#ffffff;stroke-width:1.89999998;stroke-linecap:round;stroke-linejoin:round;stroke-miterlimit:4;stroke-opacity:1;stroke-dasharray:none;stroke-dashoffset:0"
         sodipodi:type="arc" />
      <path
         transform="matrix(0.44441605,0,0,0.4413476,-728.14584,-410.99726)"
         d="m 2230.8873,2083.7368 a 43.952522,43.952522 0 1 1 -87.905,0 43.952522,43.952522 0 1 1 87.905,0 z"
         sodipodi:ry="43.952522"
         sodipodi:rx="43.952522"
         sodipodi:cy="2083.7368"
         sodipodi:cx="2186.9348"
         id="path4147"
         style="fill:#333333;fill-opacity:1;fill-rule:evenodd;stroke:#ffffff;stroke-width:1.89999998;stroke-linecap:round;stroke-linejoin:round;stroke-miterlimit:4;stroke-opacity:1;stroke-dasharray:none;stroke-dashoffset:0"
         sodipodi:type="arc" />
      <path
         sodipodi:nodetypes="cc"
         inkscape:connector-curvature="0"
         id="path4290"
         d="m 171.39057,456.61927 c -9.19661,54.61275 19.26877,2.63745 0,0 z"
         style="fill:#aa0000;fill-opacity:1;stroke:none" />
      <rect
         y="505.40561"
         x="157.35469"
         height="2.7877939"
         width="23.393131"
         id="rect4292"
         style="fill:#999999;fill-rule:evenodd;stroke:none" />
      <path
         transform="matrix(0.34770664,0,0,0.34530592,-412.83448,-180.60433)"
         d="m 1968.6578,1993.67 a 78.956863,83.694275 0 1 1 -157.9137,0 78.956863,83.694275 0 1 1 157.9137,0 z"
         sodipodi:ry="83.694275"
         sodipodi:rx="78.956863"
         sodipodi:cy="1993.67"
         sodipodi:cx="1889.7009"
         id="path4314"
         style="opacity:0.43396223;fill:#808080;fill-opacity:1;fill-rule:evenodd;stroke:none"
         sodipodi:type="arc" />
      <path
         sodipodi:nodetypes="ccc"
         inkscape:connector-curvature="0"
         id="path4341"
         d="m 201.80165,433.38766 c 10.17104,-1.01126 58.37791,-9.84047 58.01496,4.64633 -30.85243,-0.95557 -52.38915,6.52762 -58.01496,-4.64633 z"
         style="fill:#fde987;fill-opacity:1;stroke:none" />
      <path
         sodipodi:nodetypes="cc"
         inkscape:connector-curvature="0"
         id="path4343"
         d="m 522.75541,464.51802 c -11.88782,21.31431 13.633,33.84426 0,0 z"
         style="fill:#ffaaaa;fill-opacity:1;stroke:none" />
      <path
         transform="matrix(0.34770664,0,0,0.34530592,-202.61411,-180.77696)"
         d="m 1968.6578,1993.67 a 78.956863,83.694275 0 1 1 -157.9137,0 78.956863,83.694275 0 1 1 157.9137,0 z"
         sodipodi:ry="83.694275"
         sodipodi:rx="78.956863"
         sodipodi:cy="1993.67"
         sodipodi:cx="1889.7009"
         id="path4314-8"
         style="opacity:0.43396223;fill:#808080;fill-opacity:1;fill-rule:evenodd;stroke:none;display:inline"
         sodipodi:type="arc" />
    </g>
  </g>
</svg>
