<?xml version="1.0" encoding="UTF-8" standalone="no"?>
<!-- Created with Inkscape (http://www.inkscape.org/) -->

<svg
   xmlns:dc="http://purl.org/dc/elements/1.1/"
   xmlns:cc="http://creativecommons.org/ns#"
   xmlns:rdf="http://www.w3.org/1999/02/22-rdf-syntax-ns#"
   xmlns:svg="http://www.w3.org/2000/svg"
   xmlns="http://www.w3.org/2000/svg"
   xmlns:sodipodi="http://sodipodi.sourceforge.net/DTD/sodipodi-0.dtd"
   xmlns:inkscape="http://www.inkscape.org/namespaces/inkscape"
   width="212.4975"
   height="212.4975"
   id="svg2"
   version="1.1"
   inkscape:version="0.48.3.1 r9886"
   sodipodi:docname="eli.svg">
  <defs
     id="defs4">
    <clipPath
       clipPathUnits="userSpaceOnUse"
       id="clipPath684">
      <path
         inkscape:connector-curvature="0"
         d="m 416.51,653.483 c 0,-46.945 38.055,-85.002 85,-85.002 l 0,0 c 46.944,0 85,38.057 85,85.002 l 0,0 c 0,46.944 -38.056,85 -85,85 l 0,0 c -46.945,0 -85,-38.056 -85,-85"
         id="path686" />
    </clipPath>
    <clipPath
       clipPathUnits="userSpaceOnUse"
       id="clipPath668">
      <path
         inkscape:connector-curvature="0"
         d="M 0,800 800,800 800,0 0,0 0,800 z"
         id="path670" />
    </clipPath>
    <clipPath
       clipPathUnits="userSpaceOnUse"
       id="clipPath684-2">
      <path
         inkscape:connector-curvature="0"
         d="m 416.51,653.483 c 0,-46.945 38.055,-85.002 85,-85.002 l 0,0 c 46.944,0 85,38.057 85,85.002 l 0,0 c 0,46.944 -38.056,85 -85,85 l 0,0 c -46.945,0 -85,-38.056 -85,-85"
         id="path686-5" />
    </clipPath>
    <clipPath
       clipPathUnits="userSpaceOnUse"
       id="clipPath504">
      <path
         inkscape:connector-curvature="0"
         d="M 0,800 800,800 800,0 0,0 0,800 z"
         id="path506" />
    </clipPath>
  </defs>
  <sodipodi:namedview
     id="base"
     pagecolor="#ffffff"
     bordercolor="#666666"
     borderopacity="1.0"
     inkscape:pageopacity="0.0"
     inkscape:pageshadow="2"
     inkscape:zoom="0.35"
     inkscape:cx="99.641611"
     inkscape:cy="46.785332"
     inkscape:document-units="px"
     inkscape:current-layer="layer1"
     showgrid="false"
     fit-margin-top="0"
     fit-margin-left="0"
     fit-margin-right="0"
     fit-margin-bottom="0"
     inkscape:window-width="981"
     inkscape:window-height="657"
     inkscape:window-x="457"
     inkscape:window-y="107"
     inkscape:window-maximized="0" />
  <metadata
     id="metadata7">
    <rdf:RDF>
      <cc:Work
         rdf:about="">
        <dc:format>image/svg+xml</dc:format>
        <dc:type
           rdf:resource="http://purl.org/dc/dcmitype/StillImage" />
        <dc:title />
      </cc:Work>
    </rdf:RDF>
  </metadata>
  <g
     inkscape:label="Capa 1"
     inkscape:groupmode="layer"
     id="layer1"
     transform="translate(-250.35839,-366.65002)">
    <g
       id="g3222">
      <g
         transform="matrix(1.25,0,0,-1.25,-16.505111,652.61552)"
         id="g500">
        <g
           clip-path="url(#clipPath504)"
           id="g502">
          <g
             transform="translate(383.4888,143.7744)"
             id="g508">
            <path
               inkscape:connector-curvature="0"
               id="path510"
               style="fill:#b5332b;fill-opacity:1;fill-rule:nonzero;stroke:none"
               d="m 0,0 c 0,46.943 -38.056,84.998 -85,84.998 -46.943,0 -84.998,-38.055 -84.998,-84.998 0,-46.944 38.055,-85 84.998,-85 46.944,0 85,38.056 85,85" />
          </g>
          <g
             transform="translate(383.4888,143.7744)"
             id="g512">
            <path
               inkscape:connector-curvature="0"
               id="path514"
               style="fill:#a22d26;fill-opacity:1;fill-rule:nonzero;stroke:none"
               d="M 0,0 C 0,46.943 -38.056,84.998 -85,84.998 L -85,-85 c 46.944,0 85,38.056 85,85" />
          </g>
        </g>
      </g>
      <g
         id="g680"
         transform="matrix(1.25,0,0,-1.25,-269.7458,1289.215)">
        <g
           clip-path="url(#clipPath684-2)"
           id="g682">
          <g
             transform="translate(468.7832,668.6299)"
             id="g688">
            <path
               id="path690"
               style="fill:#461811;fill-opacity:1;fill-rule:nonzero;stroke:none"
               d="m 0,0 c 0,-14.238 -7.814,-14.607 -7.257,-24.035 0.618,-10.443 8.78,-10.465 8.78,-17.644 0,-7.176 -7.504,-15.223 -0.856,-22.951 l 32.089,0 0,87.07 L 0,0 z"
               inkscape:connector-curvature="0" />
          </g>
          <g
             transform="translate(534.2646,668.6299)"
             id="g692">
            <path
               id="path694"
               style="fill:#461811;fill-opacity:1;fill-rule:nonzero;stroke:none"
               d="M 0,0 C 0,-14.238 7.814,-14.607 7.257,-24.035 6.64,-34.478 -1.522,-34.5 -1.522,-41.679 c 0,-7.176 7.503,-15.223 0.856,-22.951 l -32.089,0 0,87.07 L 0,0 z"
               inkscape:connector-curvature="0" />
          </g>
          <g
             transform="translate(538.8838,683.3525)"
             id="g696">
            <path
               id="path698"
               style="fill:#461811;fill-opacity:1;fill-rule:nonzero;stroke:none"
               d="m 0,0 c 0,20.547 -16.655,37.202 -37.202,37.202 -20.546,0 -37.201,-16.655 -37.201,-37.202 0,-20.546 16.655,-37.201 37.201,-37.201 C -16.655,-37.201 0,-20.546 0,0"
               inkscape:connector-curvature="0" />
          </g>
          <g
             transform="translate(514.1289,603.6865)"
             id="g700">
            <path
               id="path702"
               style="fill:#eac8ad;fill-opacity:1;fill-rule:nonzero;stroke:none"
               d="M 0,0 -12.604,-35.355 -24.894,0 l 0,27.295 L 0,27.295 0,0 z"
               inkscape:connector-curvature="0" />
          </g>
          <g
             transform="translate(501.6816,706.6299)"
             id="g704">
            <path
               id="path706"
               style="fill:#f2d7bc;fill-opacity:1;fill-rule:nonzero;stroke:none"
               d="m 0,0 c -12.086,0 -31.199,-6.871 -31.199,-39.067 0,-18.589 7.246,-27.354 9.886,-30.723 2.43,-3.099 14.904,-13.118 21.313,-13.118 L 0,0 z"
               inkscape:connector-curvature="0" />
          </g>
          <g
             transform="translate(464.4697,659.8857)"
             id="g708">
            <path
               id="path710"
               style="fill:#f2d7bc;fill-opacity:1;fill-rule:nonzero;stroke:none"
               d="M 0,0 C -0.533,5.145 1.919,9.71 5.474,10.197 9.03,10.686 12.345,6.91 12.879,1.766 13.412,-3.377 10.96,-7.941 7.403,-8.43 3.848,-8.917 0.532,-5.143 0,0"
               inkscape:connector-curvature="0" />
          </g>
          <g
             transform="translate(501.584,706.6299)"
             id="g712">
            <path
               id="path714"
               style="fill:#eac0a7;fill-opacity:1;fill-rule:nonzero;stroke:none"
               d="m 0,0 c 12.086,0 31.198,-6.871 31.198,-39.067 0,-18.589 -7.245,-27.354 -9.885,-30.723 C 18.882,-72.889 6.408,-82.908 0,-82.908 L 0,0 z"
               inkscape:connector-curvature="0" />
          </g>
          <g
             transform="translate(538.8936,659.8857)"
             id="g716">
            <path
               id="path718"
               style="fill:#eac0a7;fill-opacity:1;fill-rule:nonzero;stroke:none"
               d="M 0,0 C 0.532,5.145 -1.919,9.71 -5.474,10.197 -9.031,10.686 -12.345,6.91 -12.878,1.766 -13.411,-3.377 -10.96,-7.941 -7.404,-8.43 -3.849,-8.917 -0.533,-5.143 0,0"
               inkscape:connector-curvature="0" />
          </g>
          <g
             transform="translate(501.5244,568.3311)"
             id="g720">
            <path
               id="path722"
               style="fill:#eac8ad;fill-opacity:1;fill-rule:nonzero;stroke:none"
               d="m 0,0 0,34 c 0,0 -9.286,2.301 -11.333,9.823 -0.984,3.615 -0.956,6.517 -0.956,6.517 0,0 -20.306,-6.859 -24.839,-13.942 C -40.899,25.17 -41.934,0 -41.934,0 L 0,0 z"
               inkscape:connector-curvature="0" />
          </g>
          <g
             transform="translate(501.5244,568.3311)"
             id="g724">
            <path
               id="path726"
               style="fill:#eac8ad;fill-opacity:1;fill-rule:nonzero;stroke:none"
               d="m 0,0 0,34 c 0,0 9.286,2.301 11.333,9.823 0.983,3.615 0.955,6.517 0.955,6.517 0,0 20.306,-6.859 24.839,-13.942 C 40.899,25.17 41.933,0 41.933,0 L 0,0 z"
               inkscape:connector-curvature="0" />
          </g>
          <g
             transform="translate(501.6816,635.0605)"
             id="g728">
            <path
               id="path730"
               style="fill:#ffffff;fill-opacity:1;fill-rule:nonzero;stroke:none"
               d="m 0,0 c 4.712,0 8.531,2.893 8.531,6.462 l -17.062,0 C -8.531,2.893 -4.711,0 0,0"
               inkscape:connector-curvature="0" />
          </g>
          <g
             transform="translate(501.5244,581.626)"
             id="g732">
            <path
               id="path734"
               style="fill:#eb1a3a;fill-opacity:1;fill-rule:nonzero;stroke:none"
               d="m 0,0 c 0,0 -8.938,22.375 -12.289,37.045 -3.386,-1.311 -6.157,-2.128 -8.275,-3.226 -10.051,-21.163 -10.478,-47.114 -10.478,-47.114 L 0,-13.295 0,0 z"
               inkscape:connector-curvature="0" />
          </g>
          <g
             transform="translate(501.6611,581.626)"
             id="g736">
            <path
               id="path738"
               style="fill:#c5132d;fill-opacity:1;fill-rule:nonzero;stroke:none"
               d="m 0,0 c 0,0 8.938,22.375 12.289,37.045 3.386,-1.311 6.157,-2.128 8.275,-3.226 10.051,-21.163 10.478,-47.114 10.478,-47.114 L 0,-13.295 0,0 z"
               inkscape:connector-curvature="0" />
          </g>
          <g
             transform="translate(499.9238,715.8926)"
             id="g740">
            <path
               id="path742"
               style="fill:#461811;fill-opacity:1;fill-rule:nonzero;stroke:none"
               d="m 0,0 c -22.085,0 -28.799,-19.348 -28.799,-28.258 -8.01,-11.132 0.722,-21.092 6.903,-24.591 l 0,5.478 c 0,7.199 6.845,13.865 17.126,12.756 9.214,-0.994 15.017,4.212 19.918,13.065 C 21.2,-9.693 13.646,0 0,0"
               inkscape:connector-curvature="0" />
          </g>
          <g
             transform="translate(514.1289,697.9824)"
             id="g744">
            <path
               id="path746"
               style="fill:#461811;fill-opacity:1;fill-rule:nonzero;stroke:none"
               d="m 0,0 c 0,0 5.159,-20.948 19.291,-27.899 2.516,18.833 4.002,14.866 0,24.782 C 15.289,6.8 0,14.167 0,14.167 L 0,0 z"
               inkscape:connector-curvature="0" />
          </g>
        </g>
      </g>
    </g>
  </g>
</svg>
