<?xml version="1.0" encoding="UTF-8" standalone="no"?>
<!-- Created with Inkscape (http://www.inkscape.org/) -->

<svg
   xmlns:dc="http://purl.org/dc/elements/1.1/"
   xmlns:cc="http://creativecommons.org/ns#"
   xmlns:rdf="http://www.w3.org/1999/02/22-rdf-syntax-ns#"
   xmlns:svg="http://www.w3.org/2000/svg"
   xmlns="http://www.w3.org/2000/svg"
   xmlns:sodipodi="http://sodipodi.sourceforge.net/DTD/sodipodi-0.dtd"
   xmlns:inkscape="http://www.inkscape.org/namespaces/inkscape"
   width="182.88658"
   height="310.83374"
   id="svg3785"
   version="1.1"
   inkscape:version="0.48.3.1 r9886"
   sodipodi:docname="logo.svg">
  <defs
     id="defs3787" />
  <sodipodi:namedview
     id="base"
     pagecolor="#ffffff"
     bordercolor="#666666"
     borderopacity="1.0"
     inkscape:pageopacity="0.0"
     inkscape:pageshadow="2"
     inkscape:zoom="0.35"
     inkscape:cx="96.383196"
     inkscape:cy="82.55972"
     inkscape:document-units="px"
     inkscape:current-layer="layer1"
     showgrid="false"
     inkscape:window-width="1440"
     inkscape:window-height="850"
     inkscape:window-x="0"
     inkscape:window-y="22"
     inkscape:window-maximized="1"
     fit-margin-top="0"
     fit-margin-left="0"
     fit-margin-right="0"
     fit-margin-bottom="0" />
  <metadata
     id="metadata3790">
    <rdf:RDF>
      <cc:Work
         rdf:about="">
        <dc:format>image/svg+xml</dc:format>
        <dc:type
           rdf:resource="http://purl.org/dc/dcmitype/StillImage" />
        <dc:title></dc:title>
      </cc:Work>
    </rdf:RDF>
  </metadata>
  <g
     inkscape:label="Capa 1"
     inkscape:groupmode="layer"
     id="layer1"
     transform="translate(-253.6168,-304.08817)">
    <g
       id="g3866">
      <path
         sodipodi:nodetypes="ccccsssccscsccscccsssscssssssscssccccccssscccssssssscssscsccsscccsscccssccscscccscsccscsccccscccccscccssscccsssscsssscsssssscsscscsscsscscsssscsscscsscccccsccsssccssssccsscsscccscssssccsscsss"
         style="fill:#ffffff"
         d="m 395.57882,614.68479 c -0.59129,-0.17366 -2.41726,-0.6116 -4.05803,-0.97396 -1.64076,-0.3626 -3.94472,-1.62033 -5.11997,-2.79558 -2.13257,-2.13251 -2.13232,-2.14566 0.10334,-6.52734 1.88125,-3.68754 2.6149,-4.27143 4.58255,-3.647 6.39012,2.02795 7.90786,1.85949 10.26691,-1.13954 2.8198,-3.58481 3.2962,-1.79894 -8.09869,-30.36347 -5.02642,-12.6001 -8.87239,-23.60389 -8.5466,-24.4528 0.85814,-2.2364 9.63728,-2.065 11.5381,0.22502 0.80739,0.97285 4.13147,8.34897 7.38682,16.39141 3.25541,8.0425 6.40259,14.54617 6.9937,14.45262 0.5913,-0.0936 3.85288,-7.07638 7.24826,-15.5175 3.39538,-8.44112 6.7811,-15.73334 7.52391,-16.20497 2.24074,-1.42253 10.49738,-1.03852 11.09393,0.51608 0.54299,1.41446 -20.47451,53.89595 -24.40994,60.95331 -3.17176,5.68785 -11.83093,10.45372 -16.50398,9.08353 z M 277.88298,593.82921 c -9.35478,-2.85588 -17.70986,-10.22338 -21.8707,-19.28545 -3.2694,-7.12052 -3.17939,-20.10995 0.19151,-27.63893 3.07867,-6.87624 10.93524,-14.6777 17.85141,-17.72619 10.84807,-4.78159 25.0527,-3.76875 34.45114,2.45652 6.90481,4.57356 7.63398,6.38425 4.20975,10.45372 -1.52833,1.81637 -3.41221,3.30243 -4.18638,3.30243 -0.77417,0 -4.16606,-1.45102 -7.53753,-3.22453 -10.57215,-5.56127 -21.85841,-3.76868 -29.24581,4.6451 -5.63085,6.41318 -6.25759,18.66009 -1.32345,25.86103 4.31749,6.30096 10.051,9.26324 17.92906,9.26324 6.53052,0 10.63397,-1.39043 16.67088,-5.64871 2.23787,-1.57858 4.4541,-0.46961 7.6699,3.83753 l 2.13482,2.85936 -2.61831,2.84175 c -1.44007,1.56299 -5.5204,4.22888 -9.0674,5.92418 -5.41946,2.59026 -7.73611,3.06776 -14.51044,2.99083 -4.43375,-0.0489 -9.27056,-0.46043 -10.74845,-0.91188 z m 47.7758,-0.36261 c -0.28862,-0.75235 -0.3944,-12.23976 -0.23481,-25.52764 l 0.28984,-24.15973 4.79779,-0.34181 c 7.4103,-0.5277 7.56292,-0.0183 7.56292,25.33931 0,13.04049 -0.45004,22.74063 -1.11263,23.97861 -0.84683,1.58224 -2.26752,2.07906 -5.9454,2.07906 -2.92051,0 -5.04048,-0.54115 -5.35765,-1.36786 z m 36.05138,-1.0505 c -7.32348,-4.98435 -8.01108,-6.89924 -8.42223,-23.4547 -0.32897,-13.24258 -0.58334,-14.97115 -2.20344,-14.97115 -2.64088,0 -4.41127,-2.15678 -4.41127,-5.37422 0,-3.25927 1.77663,-5.37422 4.51437,-5.37422 1.65837,0 1.93475,-0.96741 1.93475,-6.77156 0,-7.81913 1.05657,-9.35117 6.44907,-9.35117 5.39245,0 6.44907,1.53204 6.44907,9.35117 l 0,6.77156 4.74893,0 c 6.82671,0 8.14926,0.76868 8.14926,4.73682 0,4.69635 -1.69316,6.01162 -7.7389,6.01162 l -5.15929,0 0,13.35882 c 0,10.71127 0.33447,13.6936 1.68907,15.04788 1.99101,1.99102 5.0834,2.16687 8.25498,0.46961 1.94974,-1.04347 2.64578,-0.79283 4.82109,1.73609 3.28134,3.81479 2.78721,6.02073 -1.87013,8.34928 -5.35545,2.67763 -12.82567,2.44503 -17.20533,-0.53565 z m -35.45905,-57.77311 c -4.42296,-4.42289 -0.76428,-12.89813 5.56806,-12.89813 2.65256,0 7.33014,4.67757 7.33014,7.33013 0,6.33234 -8.47524,9.99102 -12.8982,5.56806 z m 11.81638,-42.86818 c -4.03424,-1.30971 -7.70784,-3.31558 -38.15013,-20.83094 -35.01396,-20.14566 -35.12648,-20.22301 -38.54799,-26.50949 l -2.83365,-5.20631 0.0238,-41.23623 c 0.0214,-37.84329 0.18742,-41.5899 2.01417,-45.53554 1.0948,-2.36468 3.38167,-5.55993 5.08192,-7.10065 1.70025,-1.54067 18.08549,-11.4561 36.41165,-22.03438 l 33.32029,-19.2331 8.06134,0 8.06139,0 33.32024,19.2331 c 18.32617,10.57828 34.7114,20.49371 36.41166,22.03438 1.70026,1.54072 3.9871,4.73597 5.08194,7.10065 1.82677,3.94564 1.99248,7.69225 2.01412,45.53554 l 0.0245,41.23623 -2.83362,5.20631 c -1.55851,2.86352 -4.58151,6.38181 -6.7178,7.8184 -4.58525,3.08353 -57.75923,33.75004 -64.35664,37.11583 -5.16608,2.6355 -12.40523,3.69854 -16.38609,2.4062 z m 16.24135,-17.98264 c 3.78116,-2.2002 7.23016,-4.52391 7.66449,-5.16376 0.43415,-0.6399 0.78972,-23.17091 0.78972,-50.06899 0,-26.89802 -0.35527,-49.4212 -0.78972,-50.05139 -18.03767,-13.64371 -17.93809,-11.09549 -30.01187,-4.76116 -3.43629,1.93072 -6.6031,4.04966 -7.03743,4.7087 -0.43414,0.65904 -0.79711,23.53309 -0.80616,50.83113 l -0.0183,49.63283 5.64296,3.22814 c 13.83613,7.9152 13.79308,7.91232 24.56446,1.6445 z m -6.91904,-7.58109 c -0.39379,-0.3944 -0.71658,-2.55185 -0.71658,-4.79497 0,-4.68761 3.20649,-8.46148 7.18919,-8.46148 2.22233,0 2.48447,0.50262 2.48447,4.7636 0,4.03125 -0.48001,5.10536 -3.12175,6.98649 -3.28183,2.33686 -4.65128,2.69041 -5.83533,1.50636 z m -0.70013,-23.1988 c 0.0183,-5.17678 0.61832,-6.41892 3.94356,-8.16919 4.50465,-2.37105 5.71365,-1.6256 5.71365,3.52305 0,3.86077 -0.53443,5.17916 -2.83209,6.98649 -1.55767,1.22527 -3.7342,2.22771 -4.8368,2.22771 -1.64456,0 -2.00178,-0.82078 -1.98832,-4.56806 z m -0.0183,-19.53798 c 0,-3.86077 0.53443,-5.17916 2.83209,-6.98649 1.55766,-1.22526 3.7342,-2.22771 4.8368,-2.22771 1.65458,0 2.00477,0.83124 2.00477,4.75878 0,3.86077 -0.53442,5.17916 -2.83209,6.98649 -1.5576,1.22526 -3.73419,2.22771 -4.8368,2.22771 -1.65458,0 -2.00477,-0.83123 -2.00477,-4.75878 z m 0,-19.34726 c 0,-3.86077 0.53443,-5.17916 2.83209,-6.98649 1.55766,-1.22526 3.7342,-2.22771 4.8368,-2.22771 1.65458,0 2.00477,0.83123 2.00477,4.75878 0,3.86076 -0.53442,5.17916 -2.83209,6.98648 -1.5576,1.22527 -3.73419,2.22772 -4.8368,2.22772 -1.65458,0 -2.00477,-0.83124 -2.00477,-4.75878 z m -36.94365,12.7937 c -0.24527,-0.63911 -4.46849,-3.49927 -9.385,-6.35594 l -8.93913,-5.19397 -5.41767,3.0178 c -2.97971,1.65978 -7.23147,4.14963 -9.44834,5.53296 l -4.03068,2.51517 0,10.54763 c 0,12.82464 -1.12038,11.52869 20.95953,24.24338 l 16.12272,9.28428 0.29222,-21.2147 c 0.1607,-11.66804 0.0916,-21.73757 -0.15366,-22.37661 z m -15.72386,20.5266 c 0,-3.86083 0.53442,-5.17922 2.83207,-6.98655 1.55764,-1.2252 3.7342,-2.22771 4.83681,-2.22771 1.65456,0 2.00475,0.83129 2.00475,4.75884 0,3.86077 -0.53443,5.17916 -2.83208,6.98649 -1.55763,1.22526 -3.7342,2.22771 -4.83681,2.22771 -1.65456,0 -2.00474,-0.83124 -2.00474,-4.75878 z m 101.57312,12.52765 c 20.63753,-11.9045 18.80984,-8.72699 18.80984,-32.70144 l 0,-20.25841 -4.68338,-2.9701 c -2.57583,-1.63355 -6.84861,-4.11875 -9.49512,-5.52275 l -4.81179,-2.55265 -9.30757,5.27773 -9.30757,5.27774 -0.006,32.0145 -0.006,32.01457 2.41837,-1.25951 c 1.33013,-0.69274 8.70631,-4.88658 16.39147,-9.31968 z m 4.43567,-11.75285 c -0.37055,-0.37055 -0.67372,-2.73456 -0.67372,-5.25334 0,-3.68815 0.56134,-5.02128 2.88407,-6.84829 1.58622,-1.24771 3.64186,-2.12523 4.56812,-1.95005 2.14003,0.4048 2.89617,7.86622 1.0255,10.12016 -1.79724,2.16559 -6.96601,4.76948 -7.80397,3.93152 z m 0,-19.34726 c -0.37055,-0.37056 -0.67372,-2.73457 -0.67372,-5.25334 0,-3.68815 0.56134,-5.02128 2.88407,-6.8483 1.58622,-1.2477 3.64186,-2.12523 4.56812,-1.95004 2.14003,0.4048 2.89617,7.86621 1.0255,10.12016 -1.79724,2.16559 -6.96601,4.76948 -7.80397,3.93152 z M 280.63961,395.45026 c 8.83358,-4.94002 13.01461,-4.93947 21.21073,0.003 3.4288,2.06757 6.69365,3.7592 7.25521,3.7592 0.6001,0 1.02171,-6.75761 1.02269,-16.3914 0.002,-19.74662 0.77669,-21.93067 9.94065,-28.02655 34.15834,-16.0774 20.07205,-16.88081 46.75592,0 7.66663,5.09985 9.93843,9.29406 9.94069,18.35295 8.6e-4,3.69475 0.28617,6.71774 0.63312,6.71774 0.34731,0 3.65868,-1.69286 7.35851,-3.76195 4.40424,-2.46295 8.14027,-3.76196 10.81986,-3.76196 2.67959,0 6.41556,1.29901 10.8198,3.76196 3.6999,2.06909 7.0112,3.76195 7.35851,3.76195 0.34732,0 0.63153,-4.78323 0.63153,-10.62939 0,-8.57069 -0.36444,-11.05436 -1.88101,-12.82378 -1.03455,-1.20692 -16.23836,-10.45041 -33.78618,-20.54116 -22.69917,-13.05338 -32.87692,-18.34726 -35.27279,-18.34726 -2.39587,0 -12.57363,5.29388 -35.27276,18.34677 -17.54787,10.09075 -32.75166,19.3343 -33.7862,20.54122 -1.64758,1.92204 -1.88099,4.71372 -1.88099,22.49738 0,11.1667 0.31626,20.30306 0.70285,20.30306 0.38657,0 3.73,-1.69292 7.42986,-3.76196 z"
         id="path2999"
         inkscape:connector-curvature="0" />
      <path
         sodipodi:nodetypes="sssssscccssssscss"
         style="fill:#dd362c;fill-opacity:1"
         d="m 277.90061,592.58698 c -9.58372,-2.70147 -17.90695,-10.56821 -21.10326,-19.94584 -1.7651,-5.17861 -1.54279,-16.04995 0.44765,-21.89161 2.21087,-6.48854 8.54362,-13.57776 15.09961,-16.90331 4.00307,-2.03057 7.35726,-2.75357 14.19375,-3.05946 9.98229,-0.44661 16.14823,1.24792 21.77815,5.98518 l 3.96232,3.44913 -1.60286,3.20437 -3.78,1.02723 -3.94264,-2.60912 c -8.27787,-5.47803 -21.31325,-5.36015 -29.432,0.26617 -6.53235,4.52693 -9.91601,11.27306 -9.8682,19.67464 0.12144,21.34449 22.41237,31.84047 40.5208,19.07979 1.5531,-1.09443 4.14846,-1.82038 5.38797,0.7732 l 1.34477,2.81388 -2.68712,2.17737 c -7.67681,6.2205 -20.46994,8.73465 -30.31894,5.95838 z"
         id="path2989"
         inkscape:connector-curvature="0" />
      <path
         transform="matrix(0.99313864,-6.3572356,6.4180568,0.1415343,-17.559463,644.36152)"
         d="m 43.453035,50.777248 c 0,0.673723 -0.612075,1.219882 -1.367109,1.219882 -0.755033,0 -1.367109,-0.546159 -1.367109,-1.219882 0,-0.673722 0.612076,-1.219882 1.367109,-1.219882 0.755034,0 1.367109,0.54616 1.367109,1.219882 z"
         sodipodi:ry="1.2198819"
         sodipodi:rx="1.3671091"
         sodipodi:cy="50.777248"
         sodipodi:cx="42.085926"
         id="path3015"
         style="fill:#ffcc00;fill-opacity:1;fill-rule:evenodd;stroke:none"
         sodipodi:type="arc" />
    </g>
  </g>
</svg>
