<?xml version="1.0" encoding="UTF-8" standalone="no"?>
<!-- Created with Inkscape (http://www.inkscape.org/) -->

<svg
   xmlns:dc="http://purl.org/dc/elements/1.1/"
   xmlns:cc="http://creativecommons.org/ns#"
   xmlns:rdf="http://www.w3.org/1999/02/22-rdf-syntax-ns#"
   xmlns:svg="http://www.w3.org/2000/svg"
   xmlns="http://www.w3.org/2000/svg"
   xmlns:sodipodi="http://sodipodi.sourceforge.net/DTD/sodipodi-0.dtd"
   xmlns:inkscape="http://www.inkscape.org/namespaces/inkscape"
   width="212.4975"
   height="212.49976"
   id="svg2"
   version="1.1"
   inkscape:version="0.48.3.1 r9886"
   sodipodi:docname="juan.svg">
  <defs
     id="defs4">
    <clipPath
       clipPathUnits="userSpaceOnUse"
       id="clipPath684">
      <path
         inkscape:connector-curvature="0"
         d="m 416.51,653.483 c 0,-46.945 38.055,-85.002 85,-85.002 l 0,0 c 46.944,0 85,38.057 85,85.002 l 0,0 c 0,46.944 -38.056,85 -85,85 l 0,0 c -46.945,0 -85,-38.056 -85,-85"
         id="path686" />
    </clipPath>
    <clipPath
       clipPathUnits="userSpaceOnUse"
       id="clipPath668">
      <path
         inkscape:connector-curvature="0"
         d="M 0,800 800,800 800,0 0,0 0,800 z"
         id="path670" />
    </clipPath>
    <clipPath
       clipPathUnits="userSpaceOnUse"
       id="clipPath684-2">
      <path
         inkscape:connector-curvature="0"
         d="m 416.51,653.483 c 0,-46.945 38.055,-85.002 85,-85.002 l 0,0 c 46.944,0 85,38.057 85,85.002 l 0,0 c 0,46.944 -38.056,85 -85,85 l 0,0 c -46.945,0 -85,-38.056 -85,-85"
         id="path686-5" />
    </clipPath>
    <clipPath
       clipPathUnits="userSpaceOnUse"
       id="clipPath504">
      <path
         inkscape:connector-curvature="0"
         d="M 0,800 800,800 800,0 0,0 0,800 z"
         id="path506" />
    </clipPath>
    <clipPath
       clipPathUnits="userSpaceOnUse"
       id="clipPath38">
      <path
         inkscape:connector-curvature="0"
         d="m 619.532,143.773 c 0,-46.945 38.056,-85.001 85.001,-85.001 l 0,0 c 46.944,0 84.999,38.056 84.999,85.001 l 0,0 c 0,46.944 -38.055,85.001 -84.999,85.001 l 0,0 c -46.945,0 -85.001,-38.057 -85.001,-85.001"
         id="path40" />
    </clipPath>
    <clipPath
       clipPathUnits="userSpaceOnUse"
       id="clipPath102">
      <path
         inkscape:connector-curvature="0"
         d="M 0,800 800,800 800,0 0,0 0,800 z"
         id="path104" />
    </clipPath>
    <clipPath
       clipPathUnits="userSpaceOnUse"
       id="clipPath364">
      <path
         inkscape:connector-curvature="0"
         d="m 619.532,404.134 c 0,-46.945 38.056,-85.001 85.001,-85.001 l 0,0 c 46.944,0 84.999,38.056 84.999,85.001 l 0,0 c 0,46.944 -38.055,85 -84.999,85 l 0,0 c -46.945,0 -85.001,-38.056 -85.001,-85"
         id="path366" />
    </clipPath>
    <clipPath
       clipPathUnits="userSpaceOnUse"
       id="clipPath588">
      <path
         inkscape:connector-curvature="0"
         d="M 0,800 800,800 800,0 0,0 0,800 z"
         id="path590" />
    </clipPath>
  </defs>
  <sodipodi:namedview
     id="base"
     pagecolor="#ffffff"
     bordercolor="#666666"
     borderopacity="1.0"
     inkscape:pageopacity="0.0"
     inkscape:pageshadow="2"
     inkscape:zoom="0.35"
     inkscape:cx="91.60401"
     inkscape:cy="50.17803"
     inkscape:document-units="px"
     inkscape:current-layer="layer1"
     showgrid="false"
     fit-margin-top="0"
     fit-margin-left="0"
     fit-margin-right="0"
     fit-margin-bottom="0"
     inkscape:window-width="981"
     inkscape:window-height="657"
     inkscape:window-x="457"
     inkscape:window-y="107"
     inkscape:window-maximized="0" />
  <metadata
     id="metadata7">
    <rdf:RDF>
      <cc:Work
         rdf:about="">
        <dc:format>image/svg+xml</dc:format>
        <dc:type
           rdf:resource="http://purl.org/dc/dcmitype/StillImage" />
        <dc:title></dc:title>
      </cc:Work>
    </rdf:RDF>
  </metadata>
  <g
     inkscape:label="Capa 1"
     inkscape:groupmode="layer"
     id="layer1"
     transform="translate(-258.39598,-370.04046)">
    <g
       id="g584"
       transform="matrix(1.25,0,0,-1.25,-262.24489,981.45646)">
      <g
         id="g586"
         clip-path="url(#clipPath588)">
        <g
           id="g592"
           transform="translate(586.5107,404.1328)">
          <path
             d="m 0,0 c 0,46.944 -38.055,85 -84.999,85 -46.944,0 -84.999,-38.056 -84.999,-85 0,-46.943 38.055,-84.998 84.999,-84.998 C -38.055,-84.998 0,-46.943 0,0"
             style="fill:#29a69c;fill-opacity:1;fill-rule:nonzero;stroke:none"
             id="path594"
             inkscape:connector-curvature="0" />
        </g>
        <g
           id="g596"
           transform="translate(586.5107,404.1328)">
          <path
             d="m 0,0 c 0,46.944 -38.055,85 -84.999,85 l 0,-169.998 C -38.055,-84.998 0,-46.943 0,0"
             style="fill:#27a096;fill-opacity:1;fill-rule:nonzero;stroke:none"
             id="path598"
             inkscape:connector-curvature="0" />
        </g>
      </g>
    </g>
    <g
       transform="matrix(1.25,0,0,-1.25,-515.48558,981.45646)"
       id="g360">
      <g
         id="g362"
         clip-path="url(#clipPath364)">
        <g
           id="g368"
           transform="translate(720.1553,366.4307)">
          <path
             inkscape:connector-curvature="0"
             d="m 0,0 c 0,0 23.669,-3.46 27.163,-7.1 3.043,-3.171 9.371,-33.535 10.835,-40.198 l -53.464,0 0,46.012 L 0,0 z"
             style="fill:#2d404e;fill-opacity:1;fill-rule:nonzero;stroke:none"
             id="path370" />
        </g>
        <path
           inkscape:connector-curvature="0"
           d="m 717.137,355.401 -24.893,0 0,27.295 24.893,0 0,-27.295 z"
           style="fill:#d9a78c;fill-opacity:1;fill-rule:nonzero;stroke:none"
           id="path372" />
        <g
           id="g374"
           transform="translate(704.6895,460.7988)">
          <path
             inkscape:connector-curvature="0"
             d="m 0,0 c 12.086,0 31.201,-6.87 31.201,-39.066 0,-18.589 -6.061,-30.767 -8.702,-34.136 C 20.069,-76.302 6.41,-82.907 0,-82.907 L 0,0 z"
             style="fill:#eac0a7;fill-opacity:1;fill-rule:nonzero;stroke:none"
             id="path376" />
        </g>
        <g
           id="g378"
           transform="translate(741.9014,414.0566)">
          <path
             inkscape:connector-curvature="0"
             d="M 0,0 C 0.533,5.144 -1.918,9.708 -5.474,10.196 -9.03,10.685 -12.345,6.909 -12.878,1.765 -13.411,-3.378 -10.96,-7.943 -7.403,-8.431 -3.847,-8.918 -0.532,-5.144 0,0"
             style="fill:#eac0a7;fill-opacity:1;fill-rule:nonzero;stroke:none"
             id="path380" />
        </g>
        <g
           id="g382"
           transform="translate(704.6904,460.7988)">
          <path
             inkscape:connector-curvature="0"
             d="m 0,0 c -12.086,0 -31.2,-6.87 -31.2,-39.066 0,-18.589 6.06,-30.767 8.701,-34.136 2.43,-3.1 16.09,-9.705 22.499,-9.705 L 0,0 z"
             style="fill:#f2d7bc;fill-opacity:1;fill-rule:nonzero;stroke:none"
             id="path384" />
        </g>
        <g
           id="g386"
           transform="translate(667.4785,414.0566)">
          <path
             inkscape:connector-curvature="0"
             d="M 0,0 C -0.533,5.144 1.918,9.708 5.474,10.196 9.031,10.685 12.346,6.909 12.879,1.765 13.412,-3.378 10.96,-7.943 7.403,-8.431 3.848,-8.918 0.533,-5.144 0,0"
             style="fill:#f2d7bc;fill-opacity:1;fill-rule:nonzero;stroke:none"
             id="path388" />
        </g>
        <g
           id="g390"
           transform="translate(688.4121,454.0674)">
          <path
             inkscape:connector-curvature="0"
             d="m 0,0 c 0,0 -10.557,-12.525 -6.514,-24.204 0.674,-13.925 -0.674,-18.641 -5.165,-22.459 1.122,13.475 -0.224,17.968 -5.165,16.395 C -18.865,-19.712 -14.506,8.724 0,0"
             style="fill:#e6e7e8;fill-opacity:1;fill-rule:nonzero;stroke:none"
             id="path392" />
        </g>
        <g
           id="g394"
           transform="translate(720.8848,454.0674)">
          <path
             inkscape:connector-curvature="0"
             d="m 0,0 c 0,0 10.558,-12.525 6.514,-24.204 -0.673,-13.925 0.674,-18.641 5.166,-22.459 -1.122,13.475 0.224,17.968 5.165,16.395 C 18.866,-19.712 14.506,8.724 0,0"
             style="fill:#e6e7e8;fill-opacity:1;fill-rule:nonzero;stroke:none"
             id="path396" />
        </g>
        <g
           id="g398"
           transform="translate(689.2236,366.4307)">
          <path
             inkscape:connector-curvature="0"
             d="m 0,0 c 0,0 -23.667,-3.46 -27.163,-7.1 -3.043,-3.171 -9.371,-33.535 -10.834,-40.198 l 53.463,0 0,46.012 L 0,0 z"
             style="fill:#344650;fill-opacity:1;fill-rule:nonzero;stroke:none"
             id="path400" />
        </g>
        <g
           id="g402"
           transform="translate(720.4414,367.0654)">
          <path
             inkscape:connector-curvature="0"
             d="M 0,0 -15.752,-1.921 -31.502,0 l 15.75,-47.933"
             style="fill:#b9c7d0;fill-opacity:1;fill-rule:nonzero;stroke:none"
             id="path404" />
        </g>
        <g
           id="g406"
           transform="translate(703.084,360.5156)">
          <path
             inkscape:connector-curvature="0"
             d="m 0,0 -3.148,-32.416 4.755,-8.967 4.756,8.967 L 3.214,0 0,0 z"
             style="fill:#b63c40;fill-opacity:1;fill-rule:nonzero;stroke:none"
             id="path408" />
        </g>
        <g
           id="g410"
           transform="translate(693.334,346.374)">
          <path
             inkscape:connector-curvature="0"
             d="m 0,0 -12.527,18.581 c 3.429,1.243 7.109,2.177 10.979,2.807 L 11.357,-27.241 -6.738,-1.334 0,0 z"
             style="fill:#222b30;fill-opacity:1;fill-rule:nonzero;stroke:none"
             id="path412" />
        </g>
        <g
           id="g414"
           transform="translate(716.0488,346.374)">
          <path
             inkscape:connector-curvature="0"
             d="M 0,0 12.526,18.581 C 9.097,19.824 5.417,20.758 1.547,21.388 L -11.357,-27.241 6.738,-1.334 0,0 z"
             style="fill:#222b30;fill-opacity:1;fill-rule:nonzero;stroke:none"
             id="path416" />
        </g>
        <g
           id="g418"
           transform="translate(708.9395,360.7852)">
          <path
             inkscape:connector-curvature="0"
             d="M 0,0 -4.248,-4.249 -8.497,0 -4.248,4.249 0,0 z"
             style="fill:#b63c40;fill-opacity:1;fill-rule:nonzero;stroke:none"
             id="path420" />
        </g>
        <g
           id="g422"
           transform="translate(704.6895,365.1445)">
          <path
             inkscape:connector-curvature="0"
             d="M 0,0 -12.637,5.082 -15.75,1.921 -9.463,-12.024 0,0 z"
             style="fill:#ffffff;fill-opacity:1;fill-rule:nonzero;stroke:none"
             id="path424" />
        </g>
        <g
           id="g426"
           transform="translate(704.6895,365.1445)">
          <path
             inkscape:connector-curvature="0"
             d="M 0,0 12.638,5.082 15.752,1.921 9.463,-12.024 0,0 z"
             style="fill:#ffffff;fill-opacity:1;fill-rule:nonzero;stroke:none"
             id="path428" />
        </g>
        <g
           id="g430"
           transform="translate(704.8311,397.7725)">
          <path
             inkscape:connector-curvature="0"
             d="m 0,0 0,-3.032 -9.237,-1.991 -1.926,0 L 0,0 z"
             style="fill:#5c2f12;fill-opacity:1;fill-rule:nonzero;stroke:none"
             id="path432" />
        </g>
        <g
           id="g434"
           transform="translate(704.7344,397.7725)">
          <path
             inkscape:connector-curvature="0"
             d="m 0,0 0,-3.032 9.237,-1.991 1.926,0 L 0,0 z"
             style="fill:#5c2f12;fill-opacity:1;fill-rule:nonzero;stroke:none"
             id="path436" />
        </g>
      </g>
    </g>
  </g>
</svg>
